<?xml-stylesheet type="text/css" href="../css/main.css"?>
<svg class="animation-element commercial" xmlns="http://www.w3.org/2000/svg" viewBox="0 0 574.47 197.726"><path d="M145.655 74.949c-2.685-.027-11.166 2.169-43.523 11.219-6.407 1.792-13.295 3.6-15.307 4.016l-3.657.756-.016 9.415c-.01 5.178.056 10.265.143 11.305.088 1.039.362-1.795.61-6.297.249-4.503.485-8.53.524-8.952.119-1.266 1.744-1.821 16.153-5.516 17.908-4.591 31.33-8.183 38.28-10.245 6.524-1.935 6.407-2.01 7.058 4.478.618 6.15 1.958 3.6 2.272-4.324l.224-5.667-2.519-.18a3.972 3.972 0 0 0-.242-.008zm394.124 49.211c1.375.275 1.825.635 1.483 1.189-.27.436-.412 1.545-.316 2.464.096.918-.138 1.862-.521 2.1-.383.236-.525.97-.315 1.632.511 1.609.927 9.208 1.256 22.936.487 20.353 1.046 30.234 1.75 30.938.711.711 8.228.88 8.651.194m3.24.917c.448.28 1.047.547 1.702.784.07-.025.138-.053.208-.077 3.112-1.09 4.79-.983 7.55-.982 2.72 0 5.441.003 8.161 0 .405-5.17 2.293-5.066 1.117-8.76l.012.11c-.17-.52-.429-1.02-.51-1.56-.264-1.756-.65-3.526-.622-5.297-1.46.007-1.639-.25-1.536-1.25.096-.936-.292-1.46-1.26-1.704-1.47-.37-2.972-3.92-2.972-7.02 0-1.094-.497-1.825-1.575-2.315-1.471-.67-1.574-1.02-1.574-5.355 0-4.358-.094-4.673-1.562-5.231-4.222-1.605 2.04-3.028 10.618-2.744v-3.483c-.002-.038-.002-.077-.003-.116-9.368-1.534-11.271-2.13-11.067-3.452.105-.677.35-2.549.547-4.16l.356-2.932-3.38-.706c-5.631-1.177-5.842-1.914-.547-1.914 2.598 0 5.14.264 5.651.587 1.587 1.003 1.808-.447 1.476-9.684-.385-10.714 1.146-9.185-13.294-13.272-19.302-5.463-22.103-5.8-21.29-2.556.693 2.758 2.218 3.07-45.558-9.317-13.812-3.58-16.161-4.034-17.002-3.281-.536.48-1.967 1.128-3.18 1.44-1.739.446-2.27.942-2.518 2.35l-.315 1.786-2.128-1.793c-1.866-1.57-2.7-1.81-6.773-1.94-3.59-.114-5.022-.443-6.301-1.449-.972-.765-2.595-1.306-3.932-1.31-3.45-.014-5.11-.634-5.11-1.912 0-1.496 1.328-1.862 6.297-1.736 5.72.145 6.802-.31 6.679-2.817-.12-2.424-6.761-3.545-8.326-1.406-.669.916-1.318.86-7.058-.594-3.476-.881-6.48-1.602-6.679-1.603-.681.009-.37 19.436.337 20.987.655 1.436 1.063 1.54 7.118 1.81m4.442 9.909c.228.368.842.67 1.366.67 1.949 0 .707 2.816-1.34 3.039-2.8.305-3.059.905-1.983 4.61 1.04 3.58 1.163 5.483 1.098 16.828-.05 8.808-.432 8.282 5.9 8.102 6.984-.199 6.16-3.138 6.924 24.724.175 6.407.499 12.287.718 13.066.486 1.73-1.145 1.927-3.928.476-.992-.517-2.243-.942-2.78-.944-.536-.003-1.308-.337-1.714-.743-.565-.565-1.15-.536-2.487.123-.962.473-2.24.908-2.84.967-1.849.179-3.02 1.565-2.63 3.116.198.788.04 1.63-.352 1.873-.473.292-.187.927.852 1.89 1.038.962 1.429 1.815 1.235 2.696h.443c.373.023.746.044 1.119.065a1.378 1.378 0 0 1-.119-.23c-.246-.643.034-.945.877-.945.683 0 1.24.425 1.24.944a.997.997 0 0 1-.065.354c.222.016.446.027.668.045 1.4.114 2.796.283 4.195.413 2.837.262 3.834.35 4.421.396-.015-.45-.12-.867-.345-1.138-.782-.942-.206-1.81.792-1.193.93.574 6.261.208 6.97-.479.346-.336.169-.717-.443-.951-.56-.215-1.305-1.287-1.656-2.382-.783-2.448-1.477-41.802-.745-42.254m5.773-3.025c-.531 1.854-.46 2.045.787 2.071 7.003.148 11.888.535 13.695 1.087 1.189.363 5.845.824 10.348 1.024 4.502.2 9.272.55 10.6.777l2.414.414-.21-9.125c-.16-6.938-.008-9.369.631-10.14.935-1.126.5-2.327-.844-2.327M80.023 82.566c-1.282-.005-5.905 1.398-20.617 5.87-10.961 3.333-20.496 6.208-21.19 6.389-1.692.443-2.89 1.433-2.5 2.065.371.6 4.748-.547 22.022-5.776 19.482-5.897 22.22-6.846 22.595-7.825.165-.428.272-.721-.31-.723zm246.415.183c-2.604-.006-5.255.088-7.962.28-12.136.86-10.998 1.655 2.91 2.033 20.186.549 46.886 7.808 48.98 13.316 1.778 4.675.702 9.79-1.538 7.314-1.617-1.786-3.626-1.701-3.364.142.153 1.078.68 1.463 2.201 1.61 1.784.174 3.929 1.66 3.285 2.279-.136.13-2.23-.122-4.655-.56a386.073 386.073 0 0 0-9.917-1.613c-5.04-.747-5.987-1.13-11.128-4.494-6.038-3.95-6.648-4.182-7.204-2.732-.61 1.59.275 2.833 2.026 2.848.916.007 2.373.568 3.239 1.245 1.935 1.514 2.458 1.513-7.542.003-4.64-.7-9.397-1.085-10.751-.868-2.061.33-2.792.107-4.82-1.472-9.601-7.471-14.758-9.46-12.216-4.71.808 1.51.729 4.498-.151 5.662-.68.9-.601 8.369.095 9.062.458.456 58.847 8.067 61.888 8.067.967 0 1.934.283 2.148.63.512.827 1.157.794 2.056-.105 1.466-1.466 14.094-2.527 15.451-1.299 1.13 1.023 1.25 1.002 2.39-.404 2.749-3.395 1.33-5.298-4.469-5.994-11.845-1.423-12.282-1.67-11.7-6.62.222-1.893.714-3.816 1.092-4.272.506-.61.479-.828-.102-.828-.552 0-.68-.67-.427-2.233.323-1.99.177-2.31-1.334-2.926-.933-.38-5.097-2.34-9.253-4.352-12.494-6.05-25.167-8.98-39.228-9.01zm133.289 1.528c-2.978-.01-5.15 1.297-3.674 2.21.515.318.523.633.03 1.126-1.039 1.04-.83 1.576.733 1.877 4.434.854 6.948 0 7.073-2.405.122-2.357-.53-2.796-4.162-2.808zm-157.01 4.627c-.251.03-.652.477-.99 1.134-.72 1.406-.704 1.423.384.384.626-.598.965-1.26.754-1.47a.17.17 0 0 0-.147-.048zm-156.19 5.58c-.085.04-.144.677-.144 1.748 0 1.559.123 2.196.273 1.416.15-.779.15-2.054 0-2.833-.047-.243-.09-.349-.13-.33zm121.81.621c-.64.04-1.22.656-1.22 1.479 0 .499.394.907.876.907 1.068 0 1.823-1.703.985-2.22a1.077 1.077 0 0 0-.64-.166zm-62.348.695c-2.554.744-2.788.984-2.788 2.843 0 1.117-.351 2.25-.78 2.518-1.133.71-.084 3.782 2.114 6.188 1.694 1.855 1.89 1.919 2.958.967 1.016-.907 1.036-1.099.176-1.728m56.966-9.097c-.326 0-.768.283-.982.63-.214.346.053.63.593.63.54 0 .98-.284.98-.63 0-.347-.265-.63-.591-.63zM146.399 99.64a.33.33 0 0 0-.187.056c-.346.214-.63.798-.63 1.297 0 .499.284.907.63.907.346 0 .63-.583.63-1.296 0-.58-.187-.958-.443-.964zm165.628.478c.568.009 1.681.586 3.756 1.776 3.051 1.75 3.15 1.879 1.395 1.815-3.918-.142-5.56-.803-5.668-2.281-.059-.806-.002-1.25.41-1.305a.718.718 0 0 1 .107-.006zm67.785 1.854c-.465-.013-.724.49-.313 1.156.232.375.71.503 1.063.285.43-.265.42-.618-.033-1.07-.253-.252-.506-.365-.717-.37zm3.148.63c-.464-.013-.723.49-.312 1.156.232.375.71.503 1.063.285.43-.265.419-.618-.033-1.07-.253-.252-.507-.365-.718-.37zm4.393 1.187c-.367 0-.491.284-.277.63.214.346.514.63.666.63.153 0 .278-.284.278-.63 0-.346-.3-.63-.667-.63zm-119.169.563a.468.468 0 0 0-.123.008c-.693.14-5.51.212-10.705.16-6.588-.065-11.923.278-17.632 1.136-4.502.677-9.178 1.356-10.39 1.51-1.213.153-5.605.854-9.76 1.556-4.157.702-9.737 1.41-12.4 1.574-2.663.164-5.176.505-5.584.757-.408.252-3.679.969-7.269 1.592-7.276 1.263-7.816 1.47-7.788 2.988.04 2.092 1.613 3.44 3.002 2.573 1.004-.627 2.282-.59 6.513.189 2.895.533 7.53 1.007 10.301 1.055 6.263.107 62.155-6.77 62.82-7.73 1.094-1.578.28-7.26-.985-7.368zm-234.074.899a2.375 2.375 0 0 0-.194 0c-1.445.055-5.224 1.11-14.72 3.645-14.023 3.742-15.994 4.58-14.909 6.335.217.35 1.138.46 2.049.245 21.842-5.166 28.105-7.105 28.302-8.766.105-.882.366-1.431-.528-1.46zm99.214 4.81c-1.26-.049-47.255 8.438-47.697 8.802-.246.202-.012 1.852.52 3.667.532 1.814 1.3 3.299 1.707 3.298 1.022 0 28.008-4.127 37.378-5.715 5.71-.967 7.994-1.127 8.932-.626 1.793.96 3.575.835 4.532-.318 1.043-1.257-.059-2.098-2.211-1.687-1.862.356-2.2-.24-2.372-4.182-.076-1.768-.432-3.225-.79-3.239zm73.933 5.693c.713 0 1.296.283 1.296.63 0 .346-.408.63-.907.63-.5 0-1.083-.284-1.297-.63-.214-.347.195-.63.908-.63zm101.666.866c-.437-.009-.702.009-.75.057-.569.57-.967 73.791-.405 74.7 22.681-.686 25.65.065 37.98.03 16.572-.06 20.478-.327 21.964-1.507.544-.431.787-.38.787.167 0 .62 2.015.695 9.288.347 11.708-.56 14.362-1.192 6.77-1.614l-5.668-.315-.424-2.834a275.296 275.296 0 0 1-.842-6.296c-.23-1.905-.69-3.793-1.024-4.195-.39-.473-.37-.876.058-1.14.886-.548.093-3.646-1.115-4.358-.825-.486-.792-.681.25-1.442 1.139-.833 1.147-.977.16-2.698-.983-1.711-.976-1.878.112-2.862 1.301-1.178 1.117-4.62-.375-7.019-.713-1.146-.707-1.412.04-1.698 1.072-.411 1.13-6.699.062-6.714-.374-.005-.255-.278.265-.606.734-.464.955-2.04.991-7.075.027-3.562.258-7.112.514-7.888.256-.776.245-1.768-.025-2.204-.27-.436-.411-1.533-.316-2.438.145-1.387-.131-1.706-1.755-2.031-1.14-.228-1.928-.779-1.928-1.346 0-.529-.284-.96-.63-.96-.346 0-.63.458-.63 1.018 0 .77-.344.907-1.416.564-1.465-.468-9.071-1.477-23.772-3.152-8.236-.94-14.457-1.705-30.776-3.788-3.214-.41-6.078-.676-7.39-.703zm-40.038.058c-.894-.01-7.078.67-14.377 1.588-7.785.978-21.097 2.545-29.583 3.482-17.734 1.957-16.869 1.526-16.407 8.174.193 2.771.15 6.738-.096 8.816-1.155 9.78-.75 48.997.51 49.45.658.235 6.438.61 12.845.833 43.99 1.529 45.34 1.68 45.34 5.104.832 5.767 2.365-1.831 1.734-3.849-.578-1.712-.66-3.434-.28-5.884.576-3.709.971-67.361.42-67.702a.305.305 0 0 0-.106-.012zm-194.16 12.588c.014-7.424.167-9.045-2.19-9.005-.787.013-1.852.21-3.294.439-18.963 3.007-28.296 5.278-30.418 7.4-3.059 3.058-6.588 3.636-6.588 1.077 0-.777-.432-.898-2.047-.572-2.038.413-17.2 3.184-21.095 3.855-2.414.417-2.736 2.197-.844 4.657l1.174 1.528 8.3-1.38c8.093-1.347 9.474-1.348 9.474 0 0 .36.458 1.62 1.018 2.8.758 1.596.84 2.362.32 2.987-.772.93-.332 1.67.995 1.67.561 0 .8-.589.682-1.679-.248-2.3 2.303-2.917 9.416-2.278l5.484.493.506 2.834c.278 1.558.242 6.659-.082 11.334-.323 4.676-.634 12.823-.693 18.105l-.106 9.603h2.338c1.488 0 2.642-.401 3.175-1.103.795-1.047.837-1.045.856.021.011.617.658 1.36 1.437 1.649.78.289 2.408.408 3.62.264 1.213-.144 5.464-.319 9.447-.389l7.241-.128.399-4.092c.85-8.717 1.302-37.63.595-38.068-.387-.239-.916.185-1.204.964m114.982-15.935l-3.231.396c-34.81 4.263-32.077 3.727-31.535 6.194.24 1.096.367 4.131.281 6.746-.086 2.614-.192 14.103-.236 25.53l-.078 20.777 10.379.202c5.708.11 10.479.302 10.602.425.123.123 3.008.208 6.412.188l6.187-.036.402-6.368c.222-3.503.496-17.098.61-30.211zm205.08.513c-1.054.038-1.104 1.9-1.31 30.7-.122 16.916-.366 30.99-.542 31.275-.176.285.036.661.471.837.435.175.792.341.795.368.003.028.994-.25 2.204-.617 1.21-.367 8.276-1.08 15.702-1.586 9.382-.638 13.801-1.18 14.483-1.777.54-.473 1.632-1.057 2.426-1.3l1.445-.44-.12-21.202c-.067-11.66.09-23.339.349-25.953.362-3.672.276-4.906-.38-5.434-.671-.54-30.418-4.63-35.418-4.87a.7.7 0 0 0-.106 0zm116.257 1.038c-.948.036-1.317 2.749-.58 4.862.437 1.255.923 1.788 1.292 1.42.802-.802.376-5.96-.515-6.252a.557.557 0 0 0-.197-.03zm-376.245 4.287l-2.225.354c-1.223.194-10.725 1.405-21.116 2.692l-18.891 2.34.302 1.543c.362 1.852.381 9.656.075 29.88l-.228 15.114 13.464.315c7.406.173 16.652.403 20.549.51l7.084.195v-1.631c0-.898-.432-1.798-.959-2-.778-.299-.656-.648.649-1.857l1.607-1.49-.155-22.982zm-96.035.601c.367 0 .492.284.278.63-.214.347-.514.63-.667.63-.153 0-.278-.283-.278-.63 0-.346.3-.63.667-.63zm472.59 7.619c-.392-.005-.635.018-.692.074-.395.396.77 10.356 1.315 11.239 1.194 1.931 3.44-.967 3.44-4.44 0-1.003.282-1.998.629-2.212.349-.216.635.259.643 1.065.031 3.2 1.743 4.227 7.543 4.523 2.944.15 5.963.467 6.709.705 1.686.54 2.615-2.711 2.168-7.589-.058-.634-17.952-3.316-21.754-3.365zM202.924 142.2c-.367 0-.667.284-.667.63 0 .347.125.63.278.63.153 0 .453-.283.667-.63.214-.346.089-.63-.278-.63zm-155.561 2.724s11.917-1.487 15.834-1.891l3.386-.35m233.63 1.407c-.152 0-.452.283-.666.63-.214.346-.09.629.278.629.366 0 .667-.283.667-.63 0-.346-.125-.63-.278-.63zm-21.761.63a.632.632 0 0 0-.63.629c0 .346.284.63.63.63.346 0 .63-.284.63-.63a.632.632 0 0 0-.63-.63zm-247.044 2.11c1.584-1.932-5.6-.739-7.933-.725-2.333.013-5.593.314-9.923.903l-2.625.357-.013 8.595c-.007 4.727-.208 12.317-.447 16.867-.238 4.55-.28 8.517-.094 8.816.187.299 4.736.558 10.11.577l9.768.033.814-4.126c.838-4.246 1.126-30.514.343-31.297m46.354.037a.33.33 0 0 0-.187.057c-.347.214-.63.797-.63 1.296 0 .5.283.908.63.908.346 0 .63-.584.63-1.297 0-.579-.187-.958-.443-.964zm-42.763 4.39a.431.431 0 0 0-.244.074c-.347.214-.63.656-.63.981 0 .326.283.593.63.593.346 0 .63-.442.63-.982 0-.405-.16-.656-.386-.666zm537.532.45c-.674-.041-1 .887-.774 2.43.155 1.054.501 1.917.769 1.917.083 0 .164-.057.24-.155v-.991-3.15a.884.884 0 0 0-.235-.05zm-134.763 20.09a.631.631 0 0 0-.63.629c0 .346.284.63.63.63.347 0 .63-.284.63-.63a.631.631 0 0 0-.63-.63zm46.533 9.085c-1.476-.014-3.046.228-4.397.768-1.364.546-3.047.844-3.74.663-3.222-.843-7.548 7.09-4.94 9.062 1.102.833 1.208 1.227.623 2.32-.925 1.729-.89 2.028.24 2.028.531 0 .814.03.871.27.472.052.944.1 1.416.142.523.045 1.05.026 1.573.06 1.024.067 2.047.162 3.07.243 2.602.039 5.185.393 7.783.502.506.021 1.013.016 1.521.003-.405-1.725 1.516-2.344 2.675-.826.158.206.297.46.414.73 4.238-.079 8.476-.011 12.713-.004 1.505-.008 3.01-.01 4.515-.007h4.574c.72 0 1.417.022 2.103.055.016-.437-.176-.852-.628-1.218-1.55-1.256-1.455-2.968.244-4.378 1.307-1.084 1.142-1.75-.49-1.983-.78-.11-1.511-.73-1.636-1.386-.397-2.083-4.433-5.645-5.445-4.805-.623.517-1.227.536-2.107.065-.932-.499-1.42-.436-1.997.259-.669.806-.928.805-2.095-.013-1.833-1.283-2.253-1.172-1.838.484.342 1.367.31 1.378-.896.314-3.015-2.656-5.108.33-2.989 4.265 1.446 2.686 1.006 3.147-1.864 1.948-2.089-.873-2.233-1.1-1.862-2.955.313-1.566.208-1.938-.48-1.689-.486.177-.812.64-.726 1.03.087.389-.409.708-1.102.708-.692 0-1.26-.284-1.26-.63 0-.347.254-.63.563-.63.935 0 1.327-1.807.731-3.375-.479-1.26-2.677-1.997-5.137-2.02zm-3.139 2.364c.75-.017 1.945.808 1.945 1.526 0 1.192-1.837 1.117-2.302-.094-.205-.535-.236-1.108-.07-1.274.105-.106.255-.154.427-.158zm-214.491 2.547c.414.015.573.402.157 1.074-.228.37-.884.672-1.457.672-.961 0-.96-.083.022-1.065.48-.48.956-.693 1.278-.681zm164.17.486a.632.632 0 0 0-.63.63c0 .346.284.63.63.63.347 0 .63-.284.63-.63a.631.631 0 0 0-.63-.63zm102.202 1.89c-.45 0-.819.45-.819 1.002s-.56 1.715-1.245 2.586c-.93 1.183-1.09 1.875-.63 2.734-.265 2.317 5.066 1.704 6.984.38-1.237-.362-1.96-1.678-1.96-3.701 0-1.64-1.058-3.002-2.33-3.002zm-78.273.63c.347 0 .63.283.63.629 0 .346-.283.63-.63.63a.632.632 0 0 1-.63-.63c0-.346.284-.63.63-.63zm70.692 6.985c-3.114 1.99 3.892 1.437.793.173a2.337 2.337 0 0 0-.793-.173zM147.441 74.25c-3.232-.077-11.9 2.038-32.991 7.813-30.564 8.37-31.038 8.472-31.635 6.77-.212-.606-.983-1.586-1.712-2.178-1.52-1.233-.96-2.815 1.424-4.025 6.34-3.218-.954-1.594-22.907 5.102-11.079 3.379-21.033 6.394-22.12 6.702-1.956.553-1.975.6-2 4.733-.028 5.072 1.181 4.342-13.83 8.337-6.83 1.818-13.553 3.662-14.938 4.098l-2.52.791-.177 10.181c-.155 8.805-.048 10.18.787 10.18.648 0 .965.609.965 1.853 0 1.019.31 2.042.687 2.276.405.25.528 1.262.302 2.469-.268 1.43-.096 2.283.573 2.838 1.232 1.023 1.24 3.159.012 3.159-.527 0-.944.561-.944 1.272 0 1.023.291 1.198 1.494.896 2.46-.618 3.035 8.523 1.758 27.979-.276 4.215-.203 6.6.207 6.721.349.103 5.21.34 10.801.527l10.168.339.368-2.023c.462-2.541 1.74-16.089 1.912-20.283.071-1.732-.197-3.857-.596-4.723-.68-1.474-.668-12.42.014-14.326.417-1.163 5.352-.989 6.706.237.883.8.987 1.295.471 2.258-.363.679-.536 1.358-.385 1.51.54.54 2.345-.534 2.345-1.396 0-.482.119-.877.264-.877.145 0 .694-.165 1.221-.367 1.712-.657 2.5 4.112 1.688 10.214-.385 2.896-.82 10.79-.967 17.54l-.266 12.273 1.583.398c.871.218 2.555.24 3.742.047 1.187-.193 2.325-.08 2.529.25.856 1.384 21.698.482 21.987-.953.48-2.383 1.074-18.082 1.36-35.939.496-30.86.08-28.017 4.163-28.477 3.134-.354 4.804.85 3.763 2.711-1.071 1.913.37 5.15 2.143 4.811.856-.163 1.5.015 1.5.416 0 .387-.409.703-.908.703-1.199 0-1.708.904-1.222 2.17.357.933.527.937 1.891.043l1.498-.982v4.133c0 3.299.286 4.52 1.417 6.05 1.273 1.72 1.415 2.63 1.402 8.948-.04 18.912-.535 34.811-1.108 35.54-1.18 1.502.275 1.717 13.925 2.06 7.505.19 17.078.403 21.273.473l7.628.128.494-4.25c.272-2.338.583-12.61.69-22.827.393-37.424.418-37.782 2.712-37.782 2.265 0 4.148-1.42 3.64-2.743-.268-.7-1.144-1.036-2.7-1.036-2.215 0-2.288-.07-1.93-1.864.206-1.026.099-2.035-.238-2.243-.647-.4-.167-3.378.7-4.328.282-.31 3.009-.639 6.058-.73l5.545-.168.158-3.047c.087-1.676.594-8.938 1.125-16.136.532-7.2.798-13.363.592-13.697-.206-.333-.685-.527-1.59-.549zm408.647 113.313c.273-.118.548-.229.83-.327 3.11-1.09 4.79-.983 7.55-.982 2.72 0 5.44.003 8.16 0 .672-4.769 2.293-5.066 1.117-8.76l.012.11c-.17-.52-.429-1.02-.51-1.56-.29-1.928-.731-3.873-.605-5.819-.452-.32-.753-.803-.757-1.421-.012-2.126-.878-3.61-1.781-3.052-1.326.82-2.708-2.584-2.773-6.826-.06-3.983-1.62-6.331-1.806-2.717-.106 2.074-1.107-3.186-1.15-6.04-.028-1.874-.321-2.495-1.296-2.75-4.002-1.047-1.163-1.497 9.685-1.532v-4.242c-.009-.209-.014-.418-.017-.628-4.518-.756-10.306-2.102-10.54-2.503-.801-1.37.924-3.39 2.036-2.385 1.525 1.38 2.615 1.303 2.615-.186 0-.859-.509-1.276-1.727-1.417-2.292-.264-2.822-2.403-.595-2.403 1.975 0 2.071-.7 1.792-13.104l-.217-9.641-1.673-.638c-4.04-1.541-31.35-8.766-32.507-8.6-.936.133-1.308.693-1.381 2.072-.055 1.04-.126 2.073-.158 2.297-.032.224-7.07-1.406-15.643-3.622-44.222-11.436-46.227-11.9-46.987-10.868-.392.533-1.563 1.25-2.602 1.593-1.04.343-2.2 1.24-2.578 1.992-.665 1.321-.725 1.33-1.732.216-1.298-1.435-1.343-2.627-.098-2.627.519 0 .944-.284.944-.63 0-.347.834-.63 1.852-.63 2.185 0 2.904-.817 1.642-1.864-.495-.411-.744-1.155-.552-1.654.645-1.683-1.059-2.78-4.32-2.78-4.108 0-5.776.899-5.287 2.848.335 1.334.102 1.54-2.28 2.01-1.95.386-2.745.885-2.994 1.879-.332 1.324-.371 1.328-1.757.199-1.647-1.342-1.847-2.528-.427-2.528.544 0 1.414-.424 1.934-.944s1.667-.944 2.551-.944c1.213 0 1.446-.194.955-.788-.358-.433-.747-1.637-.864-2.676-.254-2.25-6.777-3.19-9.4-1.354-1.154.808-1.956.732-7.195-.682-2.789-.752-4.579-1.287-5.714-1.257-2.167.058-1.95 2.172-1.747 8.756.567 18.412 1.147 20.181 6.87 20.954 4.005.54 5.425 1.324 4.064 2.241-.859.579-4.289.38-7.085-.41-.606-.17-1.101-.048-1.101.272 0 .321 2.126.947 4.724 1.392 8.738 1.494 9.06 3.24.433 2.354-6.499-.667-6.939-.537-5.903 1.736.53 1.165 1.205 1.576 2.58 1.576 4.136 0 7.076 3.023 6.06 6.227-.225.705-.112 1.836.25 2.512.45.84.46 2.279.034 4.524-.343 1.811-.407 3.606-.142 3.989.265.382.452 2.82.415 5.418-.08 5.695-.14 5.646 6.782 5.658 7.886.014 8.454 1.76.773 2.376-4.912.394-4.774 1.27.203 1.287 1.995.007 3.938.038 4.32.069.789.064 1.877 29.223 1.16 31.092-.503 1.31-4.279.92-6.052-.625-.824-.718-1.339-.76-2.39-.198-2.546 1.363-5.407.586-5.174-1.404.216-1.85.125-1.939-1.399-1.354-.731.28-.828.669-.38 1.508.65 1.212.062 1.966-2.15 2.76-.92.33-1.032.608-.472 1.168 1.575 1.575.903 3.821-.997 3.337-.952-.243-2.45-.434-3.329-.424l-1.598.017-.153-18.383c-.084-10.11.133-22.342.483-27.18.766-10.586 1.621-9.62-9.813-11.087-5.149-.66-12.903-1.659-17.232-2.218-11.924-1.54-11-1.675-11.14 1.637-.065 1.558-.105 4.534-.088 6.612.263 31.8-.09 48.442-1.006 47.525-.657-.657-.748-.928-.912-2.743-.136-1.504-2.73-1.738-3.713-.334-.515.735-1.315 1.121-1.929.93-1.295-.402-2.244.203-2.903 1.85-1.305 3.26-2.213-14.63-1.637-32.273.09-2.77 2.315-2.901 3.26-.192 1.004 2.883 6.17 1.938 6.205-1.136.006-.588-.46-.737-1.496-.477-1.558.393-3.533-1.624-3.533-3.605 0-.49-.4-1.222-.89-1.628-.489-.406-1.078-2.212-1.309-4.013-.23-1.801-.655-4.266-.943-5.478-.288-1.213-.71-3.825-.937-5.805-.402-3.494-.478-3.612-2.575-4.005-4.756-.892-2.412-3.74 3.506-4.261 2.251-.199 5.098-.542 6.326-.763 1.645-.296 2.454-.137 3.069.604 1.755 2.115 4.459-.27 4.459-3.933 0-2.513-.917-3.076-5.668-3.477-11.808-.997-12.267-1.218-11.738-5.683.455-3.84 1.269-4.825 2.326-2.814 1.587 3.021 10.609 4.27 12.004 1.662 1.156-2.159.425-2.478-10.001-4.372l-3.947-.717.381-2.035c.61-3.245-12.415-9.727-27.207-13.54-17.198-4.435-45.748-3.802-41.824.927 1.21 1.457.327 3.107-1.391 2.6-.775-.228-3.677-.805-6.447-1.282-2.771-.477-6.148-1.153-7.505-1.503-1.691-.436-3.524-.424-5.825.038-4.57.918-4.404 2.23.231 1.84.88-.075 1.658.406 2.132 1.318 1.284 2.467 2.685 3.349 5.3 3.337 2.805-.013 3.687 1.711 1.065 2.083-1.775.252-1.487 1.607.4 1.885.909.133 1.368-.131 1.368-.787 0-.544.39-.989.868-.989.477 0 1.231-.439 1.676-.975.882-1.062 3.205-1.01 3.563.08.122.373-.466.992-1.309 1.376-.933.425-1.697 1.45-1.955 2.624-.232 1.059-.896 2.202-1.475 2.54-1.186.692-.727.85.785.27.547-.21.996-.762.996-1.225 0-.464.78-1.215 1.732-1.67 1.06-.507 1.817-1.435 1.952-2.396.223-1.587 1.079-2.486 2.383-2.503.497-.007.652 1.765.51 5.815-.114 3.203-.262 7.525-.329 9.603-.067 2.078.201 4.581.597 5.563.396.981.506 2.115.243 2.518-.262.404-.476 3.285-.476 6.402v5.668l-2.047.197c-2.401.231-2.781 1.377-.457 1.377 2.337 0 2.609 1.507 2.438 13.538-.084 5.888-.147 17.223-.14 25.189.006 7.966-.032 16.347-.086 18.626-.103 4.362.829 6.15 2.81 5.39.528-.203 1.656-.051 2.508.337 1.188.541 1.778.515 2.535-.113.77-.64 6.948-.848 28.198-.949 27.265-.13 49.348-1.046 53.39-2.214 3.427-.99 22.624-1.593 22.624-.71 0 .97 2.061.93 3.065-.06.64-.63.96-.567 1.612.316 1.152 1.559 3.719 1.495 3.219-.08-.4-1.259 1.842-2.392 2.53-1.278.195.314 1.361.57 2.593.57 1.959 0 2.198.165 1.898 1.31-.25.96-.1 1.216.562.962 1.334-.512 4.042.698 4.042 1.806 0 .414-.038.681-.156.812h1.446c1.24.078 2.482.132 3.72.233 1.401.114 2.796.283 4.195.412 5.297.491 4.958.443 5.698.494 1.497-1.316 3.42-2.314 4.621-1.933 1.792.568 2.276-1.185.749-2.712-1.171-1.172-2.483-30.097-1.847-40.74l.15-2.518 6.297-.315c3.463-.173 7.856-.113 9.76.132 5.77.744 19.564 1.87 24.17 1.975l4.334.097-.123-5.352c-.068-2.944-.236-6.505-.375-7.914-.416-4.241.413-6.238 2.638-6.354 3.354-.174 3.643.395 3.805 7.47.268 11.672.995 16.015 2.774 16.58 1.435.456 2.45-.095 2.45-1.33 0-1.021 13.111-.636 15.224.447 1.628.835 2.915.012 3.412-2.182.502-2.216.42-14.606-.108-16.297-.185-.593-.018-1.673.371-2.401.535-1 .519-1.553-.068-2.26-1.273-1.534-.236-2.48 2.121-2.428.786.018 1.719.146 2.762.4 4.651 1.136 5.955 3.52 1.537 2.813-1.92-.307-2.582-.201-2.582.413 0 1.268 1.354 2.338 2.96 2.338.895 0 1.448.376 1.448.986 0 .7-.366.872-1.26.588-.766-.243-1.26-.113-1.26.331 0 .402.56.877 1.245 1.056 1.24.325 1.84 2.347 1.739 5.854-.025.866.18 3.629.456 6.14.482 4.384.449 4.566-.827 4.566-.895 0-1.459.518-1.727 1.589-.346 1.376-.664 1.546-2.374 1.265-1.702-.28-15.597-1.587-16.93-1.593-.26 0-.472.551-.472 1.228 0 2.072 3.608 3.362 7.168 2.565 2.095-.47 3.329-.467 4.227.016.698.373 1.607.557 2.02.408.415-.149 1.28 0 1.923.333.777.4 1.4.372 1.857-.086.379-.378 1.306-.688 2.06-.688.755 0 1.816-.637 2.36-1.416.922-1.323.995-.895 1.09 6.454.114 8.97.713 21.593 1.142 24.086.045.26.913.473 1.93.473 4.01 0 5.05.87 4.722 4.033l.351-.079c.617-.15 1.248-.25 1.85-.453a8.377 8.377 0 0 0-.209-1.055c-.39-1.37-.237-1.707.914-2.008M290.065 81.961c-.168.016-.28.15-.28.38 0 .367.284.667.63.667.347 0 .63-.125.63-.277 0-.153-.283-.454-.63-.668a.578.578 0 0 0-.35-.102zm28.568 113.09c-.582.934-1.025 1.073-1.907.601m-13.935.378c-.745-.04-2.634-.124-4.196-.188-2.007-.082-3.314-.556-4.454-1.613-.888-.823-2.23-1.692-2.984-1.932-.809-.256-1.408-.998-1.46-1.809-.05-.756-.12-1.941-.158-2.634-.037-.692-.28-1.33-.54-1.417-1.252-.417-1.645-.015-1.536 1.569.1 1.462-.17 1.774-1.77 2.046-1.04.177-2.672.852-3.629 1.5-1.205.817-2.325 1.062-3.646.798-1.088-.217-2.454-.047-3.18.396-1.062.648-1.407.595-2.09-.326-.45-.606-1.274-1.102-1.831-1.102-.588 0-.877-.354-.689-.844.178-.464-.069-1.17-.548-1.568-.63-.522-.812-1.907-.656-4.98.12-2.342.19-18.568.157-36.058-.072-38.284-.105-34.07.312-39.17.425-5.19.382-5.22-6.24-4.28-2.905.412-5.65.513-6.103.224-1.529-.975-8.964-.792-16.567.408-4.156.656-8.832 1.318-10.39 1.47-1.559.153-6.156.908-10.216 1.68-9.328 1.772-16.52.938-7.888-.915 1.33-.286 1.732-.738 1.732-1.954m7.18-5.153c-1.637.182-3.507 1.67-3.043 2.422.19.307-.053.559-.54.559-.485 0-1.396.566-2.023 1.26-1.47 1.623-1.317 1.606 5.546-.613 3.184-1.03 7.63-2.324 9.882-2.877 2.25-.552 4.589-1.146 5.195-1.319.714-.204 1.102.032 1.102.672 0 1.381 1.047 1.235 1.422-.198.518-1.979 21.877-2.688 21.877-.726 0 .273 1.913.401 4.25.284l4.251-.214v-4.274c0-5.39.427-6.084 3.487-5.674 1.308.175 2.638.06 2.956-.258.317-.317 1.687-.619 3.044-.67 2.264-.085 5.47-1.784 3.31-1.754-1.317.018-10.802 1.754-11.91 2.18-1.544.593-2.604-1.104-1.879-3.011.925-2.434-.222-2.927-8.497-3.645a79.454 79.454 0 0 0-6.327-.292c-14.93-.102-30.883 3.825-44.938 11.163-6.283 3.28-7.107 3.983-6.596 5.626.173.557-.077 1.339-.556 1.736-1.107.919.487 6.382 1.862 6.382 3.182 0-1.286 4.008-5.113 4.586-11.406 1.722-11.65 1.809-11.65 4.147 0 2.605 1.473 4.361 2.761 3.292 1.119-.928 5.437-.602 11.982.906 2.615.603 4.079.667 4.922.216.873-.467 1.575-.398 2.575.256 1.003.655 2.225.775 4.523.443 27.797-4.018 36.218-4.967 43.765-4.928 9.544.049.36 1.458-30.226 4.638-10.035 1.043-16.714 2.02-17.808 2.604-.963.514-2.805.887-4.094.828-3.448-.159-3.647-.077-2.305.947.935.713 1.034 1.056.423 1.461-.44.291-.935 2.068-1.102 3.948-.262 2.97-.19 3.274.554 2.316.471-.606 1.289-1.101 1.817-1.101s1.46-.766 2.074-1.7c1.033-1.577 1.144-1.612 1.523-.473.72 2.159.009 8.47-.954 8.47-.475 0-1.168.566-1.538 1.26-.371.692-1.221 1.259-1.89 1.259-2.029 0-2.426 1.845-2.89 13.395-.432 10.798.223 18.164 1.697 19.075.284.175.243 1.036-.09 1.912-1.312 3.452-.818 5.3 1.304 4.876l1.91-.382-.414 2.59c-.33 2.067-.207 2.671.609 2.985.563.216 1.023 1.04 1.023 1.832 0 2.054.308 2.105 17.17 2.816 43.976 1.856 43.75 1.828 42.036 5.03M442.258 86.787c2.068 0 2.49.201 2.32 1.102-.24 1.261-4.527 1.937-5.216.822-.746-1.207.333-1.924 2.896-1.924zm13.01 3.189c.706-.012 1.372.06 1.836.238.77.295.805.548.178 1.304-.428.515-1.097.894-1.488.842-3.445-.457-4.217-.721-4.005-1.367.186-.569 1.927-.993 3.48-1.017zM292.934 99.38c-.733 0-1.158.284-.944.63.214.346.639.63.944.63.306 0 .73-.284.945-.63.214-.346-.211-.63-.945-.63zm-96.345 2.52c-1.149 0-1.802.26-1.574.629.214.346.922.63 1.574.63.651 0 1.36-.284 1.574-.63.228-.369-.426-.63-1.574-.63zm99.608 1.307c-.656.018-.883.57-.527 1.499.478 1.245 1.432 1.246 1.909.003.214-.558-.036-1.125-.59-1.337-.308-.118-.574-.171-.792-.165zm-3.226.581c-.794 0-1.363.984-.86 1.487.71.709 1.453.432 1.453-.542 0-.52-.267-.945-.593-.945zm10.895 3.779c-.983 0-2.683 1.67-2.726 2.676-.031.744.84.557 2.359-.508 1.65-1.155 1.82-2.168.367-2.168zm77.475.63c-.483 0-.877.424-.877.944s.557.944 1.24.944c.843 0 1.123-.302.876-.944-.199-.52-.757-.945-1.24-.945zm-107.89 1.888c-.368 0-.667.284-.667.63 0 .347.124.63.277.63.153 0 .453-.283.667-.63.214-.346.089-.63-.278-.63zm19.44.743c-.57-.052-.589.422-.328 1.461.287 1.141.142 1.574-.524 1.574-.506 0-1.105.3-1.332.668-.598.968 4.452.36 5.714-.687.908-.754.794-.962-1.078-1.96-1.234-.658-2.01-1.016-2.452-1.056zm3.784 6.814c-.367 0-.491.283-.277.63.214.346.513.63.666.63.153 0 .278-.284.278-.63 0-.347-.3-.63-.667-.63zm-2.882.218c-.095-.015-.16.216-.18.674-.027.664.122 1.036.331.826.21-.209.232-.752.05-1.206-.075-.189-.144-.286-.2-.294zm7.25 2.93c-2.979 0-3.118.71-.395 2.009 2.544 1.214 3.434 1.322 3.953.483.748-1.212-1.079-2.492-3.558-2.492zm202.27.932c.483.01 1.01.061 1.58.158 3.011.507 3.086.573 3.057 2.706-.033 2.419-.885 2.788-4.433 1.92-5.393-1.321-4.874-4.89-.204-4.784zm-364.36.858c-.09.03-.151.525-.151 1.359 0 1.212.13 1.708.288 1.102.158-.606.158-1.598 0-2.204-.05-.19-.096-.271-.137-.257zm240.53.311c-.168.017-.279.152-.279.381 0 .367.283.667.63.667.346 0 .63-.125.63-.278 0-.152-.284-.453-.63-.667a.579.579 0 0 0-.352-.103zm124.403 1.13c-.285 0-.57.043-.787.13-.433.175-.079.318.787.318s1.22-.143.788-.317a2.193 2.193 0 0 0-.788-.132zm-204.654.548c-1.394 0-1.707.974-.473 1.472 1.37.552 1.732.443 1.732-.528 0-.524-.56-.944-1.26-.944zm-93.1 1.26c.639 0 1.162.283 1.162.63 0 .345-.465.628-1.033.628-.567 0-1.355.441-1.749.98-.394.54-.921.775-1.172.524-.672-.672 1.441-2.763 2.792-2.763zm86.186.215c-1.202.06-3.208 1.09-2.848 1.672.596.964 3.284.75 3.684-.294.195-.508.108-1.076-.194-1.263a.906.906 0 0 0-.413-.114 1.738 1.738 0 0 0-.229 0zm-105.09.103c-4.25.093-34.989 4.138-35.615 4.748-.354.345-.29 1.206.165 2.205.411.901.589 1.894.395 2.208-.193.313-.036 1.16.35 1.882.448.837.487 1.584.108 2.06-.328.41-.629 3.013-.669 5.784-.04 2.77-.098 5.463-.13 5.982-.03.52.058 2.43.198 4.245.14 1.816.057 4.791-.184 6.612-.241 1.822-.278 3.586-.08 3.92.922 1.572.007 18.222-1.044 18.997-1.706 1.257-.094 1.51 12.872 2.033 16.193.652 22.85.708 23.168.194.821-1.329 1.735-60.045.946-60.834-.031-.031-.197-.042-.48-.036zm-149.128.087c.976.028.091 2.257-1.387 3.021-2.372 1.227-3.161 1.235-3.62.037-.645-1.678.283-2.834 2.27-2.834 1.05 0 2.118-.07 2.373-.158.143-.048.263-.069.364-.066zm100.8 1.095a.43.43 0 0 0-.244.073c-.347.214-.63.656-.63.982 0 .326.283.593.63.593.346 0 .63-.442.63-.982 0-.405-.16-.656-.386-.666zm158.956.425c-.684 0-1.144.318-1.144.95 0 .67.37.87 1.155.621 1.43-.454 2.604 1.829 2.668 5.191.035 1.877.15 2.086.585 1.072 1.088-2.532.717-5.85-.77-6.89-.9-.631-1.81-.945-2.494-.944zm-174.045 2.865c.834-.21 2.172-.138 2.973.158 1.92.71-2.934 1.562-20.527 3.599-14.044 1.626-18.112 1.857-14.2.807 1.212-.326 3.48-.727 5.038-.891l4.9-.519c1.137-.12 2.13-.328 2.204-.461 10.582-1.469 14.15-1.715 19.612-2.693zm167.586.877c-.54 0-.981.283-.981.63 0 .346.266.629.592.629.326 0 .768-.283.982-.63.214-.346-.053-.63-.593-.63zm-88.15 3.778c-.584 0-.991.538-.991 1.312 0 1.534 1.472 1.317 1.778-.262.12-.622-.2-1.05-.787-1.05zm181.273.841c-.167.017-.278.152-.278.381 0 .367.283.667.63.667.346 0 .63-.125.63-.278 0-.152-.284-.453-.63-.667a.578.578 0 0 0-.352-.103zm1.872 1.207c-.132-.015-.08.21.107.697.218.568.65 1.033.959 1.033.81 0 .696-.365-.397-1.272-.35-.29-.566-.447-.669-.458zm-85.032.86c-.145.014-.24.34-.24 1.09 0 1.708-1.819 4.818-2.818 4.818-.494 0-1.152.454-1.463 1.01-.596 1.065-1.96.61-4.669-1.559-.593-.475-1.509-.698-2.036-.496-1.329.51-.51 2.304 1.051 2.304.696 0 2.656 1.021 4.356 2.269 2.48 1.82 3.268 2.12 3.992 1.52 1.234-1.024 2.53-.202 1.547.982-.401.484-.577 1.281-.389 1.771.212.551-.172 1.025-1.006 1.243l-1.349.353 1.323 1.441c.962 1.048 1.238 1.984 1.014 3.431-.246 1.584-.028 2.141 1.063 2.725.844.452 1.23 1.1 1.005 1.688-.2.524-.197 1.225.01 1.559.69 1.117 1.796.15 2.224-1.945.35-1.714.217-2.13-.77-2.388-1.267-.331-1.565-1.122-.639-1.695 1.166-.72 1.163-4.185-.004-5.002-1.075-.754-1.068-.843.153-1.888 1.208-1.035 1.223-1.187.253-2.667-.593-.905-1.096-3.16-1.187-5.322-.107-2.519-.988-5.284-1.421-5.242zm3.224 2.13c-.974 0-1.251.742-.542 1.452.503.503 1.486-.066 1.486-.86 0-.326-.425-.592-.944-.592zm74.553 1.889c.708 0 1.368 1.637.863 2.142-.758.758-1.426.345-1.426-.883 0-.693.253-1.26.563-1.26zm-101.08 1.574c-1.477 0-1.568.165-1.217 2.204.209 1.212.47 2.913.582 3.778.111.866.247 1.81.3 2.1.262 1.393 1.65-.243 1.484-1.748-.105-.945.12-2.093.499-2.55 1.185-1.428.159-3.784-1.648-3.784zm159.098 1.574c-1.298 0-2.122.834-1.47 1.487.715.715 1.937.427 2.31-.542.244-.637-.03-.945-.84-.945zm-292.024.227c-.522.034-.801.947-.401 1.99.386 1.005.446 1.007 1.012-.004.386-.69.378-1.298-.023-1.698-.212-.212-.414-.299-.588-.288zm-67.552.403c-.819 0-1.407 2.338-.95 3.778.578 1.82 1.411 1.548 1.886-.614.42-1.912.05-3.164-.936-3.164zm303.857.244a.701.701 0 1 1-.055 1.402.701.701 0 0 1 .055-1.402zm190.907 1.312c-.397.018-.74.284-1.309.761-.739.62-1.464 1.203-1.612 1.297-.148.094.2.522.774.95.573.43 1.098 1.774 1.166 2.986.067 1.212.232 2.416.365 2.676.34.662.71.883 1.037.764v-2.063V147.6a1.19 1.19 0 0 0-.421-.065zm-531.964.4c-.7-.048-1.185.787-.519 1.59.576.693.583 1.092.03 1.644-.4.401-.728.956-.728 1.233 0 .277.39.504.866.504 1.032 0 1.92-3.762 1.085-4.597-.245-.245-.501-.36-.734-.375zm421.354.563c-.326 0-.768.283-.982.63-.214.346.053.629.593.629.54 0 .982-.283.982-.63 0-.346-.267-.63-.593-.63zm6.656.093c-1.586 0-2.285.15-2.285.462 0 .388 1.01.704 2.249.704 1.237 0 2.674.425 3.194.945 1.05 1.05 2.224 1.11 6.836.35 2.038-.337 3.293-.291 3.558.129.47.746 2.424.17 2.424-.716 0-.667-3.21-1.12-12.121-1.71-1.632-.109-2.903-.164-3.855-.164zm-30.847.546c-1.573.021-2.557 1.118-1.81 2.018.394.475.746 1.418.782 2.095.115 2.162.437 6.251.532 6.74.505 2.61 1.465-.25 1.199-3.571-.179-2.224-.067-4.302.249-4.618.717-.717.018-2.677-.952-2.664zm-243.787.62c-1.041 0-1.106.278-.548 2.362.548 2.042 1.493 1.742 1.493-.473 0-1.26-.315-1.889-.945-1.889zm-158.567.63c-1.458 0-1.769.885-1.312 3.74.373 2.33 1.498 3.646 1.514 1.77.004-.433.183-1.85.398-3.148.312-1.893.194-2.362-.6-2.362zm451.149.007c-1.158.023-1.135.332-.927 1.127.437 1.67 3.403 2.388 5.235 1.266 1.16-.711 1.434-.673 1.973.276.68 1.197 2.77 1.487 3.398.471.498-.806 5.25-.13 6.926.986 2.141 1.425 4.093.64 4.093-1.646 0-.867-1.018-1.105-6.14-1.442-3.377-.222-8.32-.588-10.984-.814-1.76-.149-2.88-.238-3.574-.224zm-340.96.22c-.167 0-.361.088-.567.293-.346.346-.42.968-.164 1.382.353.57.587.553.974-.073.498-.805.255-1.6-.244-1.602zm238.438 2.54c-1.046.039-.977.52-.348 1.8.382.778.874 2.053 1.093 2.832.488 1.745 1.571 1.869 1.571.18 0-.68.567-1.541 1.26-1.912 2.105-1.127 1.485-2.322-1.406-2.71-.988-.133-1.694-.207-2.17-.19zm-245.826.382c-.367 0-.492.283-.278.63.214.346.514.629.667.629.152 0 .278-.283.278-.63 0-.346-.3-.63-.667-.63zm-60.604.172c-.098-.013-.252.204-.494.62-.354.609-.47 1.388-.258 1.731.65 1.054.942.704.922-1.107-.01-.835-.044-1.229-.17-1.244zm-36.927 1.717c-.85 0-1.44 1.147-.975 1.899.217.352.659.477.981.278.766-.473.76-2.177-.006-2.177zm256.482 1.02c-.27.008-.582.092-.913.27-.681.364-1.072.931-.87 1.26.486.786 2.007.767 2.5-.031.539-.872.096-1.526-.717-1.5zm231.558.869c-1.308 0-1.7.661-.88 1.482.584.584 1.635.186 1.942-.735.14-.417-.33-.747-1.062-.747zm-148.574.956c-.488.037-.74.77-.34 1.814.391 1.02 2.14 1.421 2.14.492 0-.28-.383-1.031-.85-1.67-.3-.41-.599-.607-.85-.634a.616.616 0 0 0-.1-.003zm144.706 2.192c-.713 0-1.122.283-.908.63.214.346.798.63 1.297.63.499 0 .907-.284.907-.63 0-.347-.583-.63-1.296-.63zm48.134.112c-2.146.103-3.222.277-3.073.518.12.196 1.26.358 3.073.47zm-189.132.518c-.923 0-.808 1.728.137 2.065.433.155.894.19 1.023.08.444-.38-.51-2.145-1.16-2.145zm53.814.63c-1.03 0-1.573 1.417-1.155 3.016.18.687 0 1.451-.4 1.698-.516.32-.413.793.358 1.645 1.51 1.668 1.932 1.509 2.319-.872.443-2.735-.119-5.487-1.122-5.487zm-292.493 2.519a.631.631 0 0 0-.63.63c0 .346.283.63.63.63.346 0 .63-.284.63-.63a.632.632 0 0 0-.63-.63zm364 3.277a.493.493 0 0 0-.186.028c-.917.305-1.362 2.036-.86 3.343.658 1.715 1.647.906 1.647-1.349 0-1.334-.196-1.996-.6-2.022zm-125.933.308c-.024 0-.048 0-.072.005-.3.048-.666.44-1.019 1.186-.626 1.327-.564 1.52.483 1.52.768 0 1.2-.44 1.2-1.221 0-.977-.244-1.481-.592-1.49zm145.388.192c-.367 0-.492.284-.278.63.214.347.515.63.667.63.153 0 .278-.283.278-.63 0-.346-.3-.63-.667-.63zm-383.455 2.52c-.347 0-.63.425-.63.944 0 .52.283.945.63.945.346 0 .63-.425.63-.945s-.284-.944-.63-.944zm152.036.098c-.94-.022-1.285 1.203-.474 2.014.66.66 1.772.097 1.772-.897 0-.486-.496-.979-1.102-1.096a1.207 1.207 0 0 0-.196-.021zm140.728.184c-.445.013-1.024.157-1.767.416-2.189.763-2.618 1.82-.739 1.82.673 0 1.398.283 1.612.63.762 1.234 2.204.641 2.204-.907 0-1.39-.33-1.99-1.31-1.96zm-136.56.347c-.794 0-1.362.983-.859 1.486.71.71 1.452.432 1.452-.541 0-.52-.267-.945-.593-.945zm193.284 0c-.347 0-.63.425-.63.945s.283.944.63.944c.346 0 .63-.425.63-.944 0-.52-.284-.945-.63-.945zm43.36 23.44c-1.046.905 1.059-.42 1.527-.706l-.034.009c-.532.114.192-.267.996-.661.034-.025.08-.051.137-.08a4.26 4.26 0 0 1-.017-.405c0-.795-.284-1.445-.63-1.445-.347 0-.63.566-.63 1.26 0 .839-.42 1.258-1.259 1.258-1.208 0-1.671-1.543-1.293-4.308.155-1.137-1.836-2.573-3.6-2.598-1.5-.021-1.87.594-3.35 5.553-.796 2.672-.87 2.73-3.027 2.38-1.546-.251-2.547-.055-3.327.65-3.272 2.962-10.614-.74-7.7-3.882l1.676-1.81-1.345-1.088c-.739-.599-1.517-1.953-1.728-3.01-.288-1.439-.698-1.886-1.637-1.784-1.237.135-1.935-.634-2.653-2.925-.3-.955-.54-1.03-1.297-.402-.549.456-1.606.601-2.585.355-1.155-.29-2.034-.074-2.902.712-1.203 1.087-1.286 1.077-2.404-.304-1.544-1.906-6.336-.942-7.448 1.497-.93 2.04-2.499 1.927-2.949-.213-.66-3.137-1.215-3.614-4.304-3.697a15.05 15.05 0 0 0-.597-.004c-1.367.016-2.519.215-2.685.485a.671.671 0 0 1-.924.204c-.318-.197-1.602-.075-2.853.27-1.639.453-2.62.418-3.507-.125-1.024-.626-1.342-.56-1.884.396-.36.632-1.864 1.668-3.344 2.302-2.942 1.261-3.957 3.466-2.537 5.51.426.612.972 2.019 1.212 3.124.303 1.391.716 1.905 1.34 1.665.496-.19.902-.033.902.35 0 .384-.283.697-.629.697-.805 0-.787 1.054-.204 1.84 1.354.168 2.707.343 4.065.46.523.046 1.05.027 1.573.061 1.024.067 2.047.162 3.07.243 2.602.039 5.185.393 7.783.502.923.039 1.85-.002 2.775-.04a1.946 1.946 0 0 1-.486-.547c-.214-.346-.089-.63.278-.63s.667.284.667.63c0 .225-.053.422-.132.533l.542-.021c4.559-.11 9.12-.03 13.68-.022 1.504-.008 3.01-.009 4.514-.007h4.574m11.404-17.408a1.731 1.731 0 0 0-.696.122c-.502.2-.353.35.38.38.664.027 1.036-.122.827-.33-.104-.105-.293-.163-.511-.172zm-485.768 1.496c-.635 0-1.273.354-1.417.787-.166.499.353.787 1.417.787 1.063 0 1.583-.288 1.417-.787-.144-.433-.782-.787-1.417-.787zm43.432.945c-1.016 0-1.409.28-1.19.85.199.52.926.737 1.862.558 1.898-.362 1.4-1.408-.672-1.408zm304.76 0c.54 0 .98.283.98.63 0 .346-.265.63-.591.63-.326 0-.768-.284-.982-.63-.214-.347.053-.63.593-.63zm-242.2.677c-.219-.006-.485.047-.793.166-.553.212-.803.78-.59 1.337.478 1.244 1.431 1.243 1.909-.004.356-.928.13-1.48-.526-1.499zm56.946 1.212c-.722.019-1.418.386-1.418 1.012 0 .664.342.88.996.63.548-.21 1.273-.383 1.611-.383.339 0 .44-.283.227-.63-.278-.449-.855-.644-1.416-.63zm349.344 6.492l-.054.038.055-.029v-.009zm-115.813 1.696c-.412.002-.507.384-.274 1.106.591.003 1.183.003 1.775.005h.82c-.27-.11-.628-.315-1.11-.616-.535-.334-.94-.496-1.21-.495zm30.872.784a.756.756 0 0 0-.134.003c-.241.022-.497.136-.732.37-.623.624-.594.899.14 1.353.596.368 1.087.305 1.386-.179.49-.791 0-1.514-.66-1.547zm-144.13-.237c.433-.044 10.989-.14 23.457-.214 25.31-.152 44.437-1.091 52.338-2.572 6.328-1.186 22.312-.848 26.46.559.738.25 2.689.154 4.334-.215 3.275-.734 5.342.259 5.342 2.567 0 .146.017.292.046.43.927 0 1.855.005 2.782.007l2.87-.002c1.24.077 2.482.132 3.72.233 1.401.114 2.796.282 4.195.412 6.523.604 4.261.37 6.355.543 1.143-.953 2.544-1.67 3.73-1.67 3.126 0 3.748-1.383 1.49-3.316-.821-.703-1.276-1.902-1.308-3.446-.026-1.302-.178-9.766-.337-18.808l-.288-16.44 3.643-.312a49.4 49.4 0 0 1 3.41-.187c.338-.005.663-.005.975 0 3.741.063 5.588.878 5.873 2.524.319 1.838.418 1.886 3.663 1.777 3.876-.13 4.343 1.245.532 1.567-3.392.286-5.904 5.786-2.644 5.786 1.387 0 1.187.958-.42 2.026l-1.386.92 1.362 1.166c.808.692 1.15 1.439.842 1.834-1.566 2.004-1.4 6.18.232 5.869 1.416-.27 1.594-.096 1.594 1.563 0 2.464-3.378 6.773-5.308 6.773-2.993 0-4.523 3.958-2.544 6.575 1.305 1.725 1.202 4.059-.177 4.024-4.22-.107-7.319 1.249-7.191 2.292 3.834.363 1.565.218 5.67.45 3.018.12 5.998.664 9.003.923.523.046 1.05.027 1.573.06 1.024.068 2.047.163 3.07.244 2.602.039 5.185.393 7.783.502 1.211.05 2.434-.034 3.644-.075 4.559-.11 9.12-.03 13.68-.022 1.504-.008 3.01-.01 4.514-.007h4.574c.26 2.203 25-2.668 24.59-2.23-1.046.904 1.059-.42 1.527-.707l-.034.01c-.532.114.192-.268.996-.662.074-.054.19-.111.386-.19l.411-.196a5.315 5.315 0 0 1-.281-.98c-.447-2.236-1.752-2.174-2.307.112l-.37 1.527-.808-1.484c-.583-1.074-.616-1.675-.119-2.172 1.329-1.329.836-4.729-.728-5.03-1.071-.206-.938-.294.545-.359 1.12-.049 2.648.455 3.562 1.174.99.778 2.555 1.26 4.101 1.26 3.016 0 4.105 1.004 3.7 3.512l.838-.187c.633-.153 1.282-.254 1.897-.467.211-.074.422-.151.63-.231-.384-.418-.633-.874-.633-1.294 0-.626.489-.895 1.229-.904.75-.009 1.762.254 2.784.68a14.611 14.611 0 0 1 1.79-.783c3.112-1.09 4.79-.983 7.55-.982 2.72 0 5.441.004 8.161 0 .562 2.166 2.293-5.065 1.117-8.76l.012.11c-.17-.52-.429-1.019-.51-1.56-.292-1.936-.736-3.89-.604-5.843.014-.212.035-.42.058-.627-.138-.202-.177-.52-.177-.968 0-1.975-1.165-3.737-2.473-3.737-.982 0-2.345-1.7-1.791-2.236.051-.05 1.848-.125 4.504-.2v-2.817c-5.586-.29-5.266-.825-4.346-3.063.296-.721-.094-1.609-1.19-2.704-1.636-1.636-2.157-2.603-1.027-1.905.333.206 1.176.017 1.874-.42.435-.27.828-.401 1.174-.4 1.036.003 1.634 1.192 1.574 3.331-.046 1.621.244 2.28 1.129 2.56.306.098.574.156.812.178v-2.286-13.261c-.02-.439-.021-.879-.016-1.319-5.325-.9-5.361-1.05-4.929-3.355.282-1.501.114-2.327-.593-2.913-.542-.45-.817-1.09-.612-1.422.205-.332.337-5.202.293-10.822-.08-10.144.468-13.328 2.508-14.589 1.38-.852.283-1.567-4.773-3.11-19.432-5.926-26.686-7.77-29.158-7.406-1.095.16-3.193-.19-4.662-.777-1.47-.588-6.502-2.04-11.183-3.226-4.682-1.186-11.487-3.105-15.123-4.263-11.822-3.767-17.192-5.372-24.56-7.343-3.982-1.065-9.65-2.6-12.593-3.41-2.944-.81-10.737-2.946-17.317-4.747-6.58-1.801-15.082-4.209-18.891-5.35-3.81-1.142-8.344-2.407-10.076-2.813-2.9-.679-19.236-5.694-23.06-7.08-.907-.328-1.948-1.25-2.312-2.05-.432-.948-1.422-1.595-2.852-1.863-3.04-.57-3.793-1.693-3.309-4.93.221-1.48.563-3.883.759-5.342.312-2.319.704-2.856 3.128-4.276 3.9-2.286 4.635-1.876-15.969-8.908-7.434-2.537-14.373-4.915-20.79-7.113-2.68-.26-5.32-.951-7.756-2.113a2.532 2.532 0 0 1-.028-.014c-.249-.094-.49-.185-.65-.237-35.251-12.06-37.73-12.944-57.281-19.637-.328-.112.586.383.91.504 2.514.83 1.737.838.625.47-.103-.018-.207-.034-.31-.053-.232-.044-.892-.316-.664-.253.23.063.598.183.974.307 1.693.448-3.01-1.353-3.575-1.571a.305.305 0 0 0-.07.12c.256.127.538.264.824.402.792.327 2.025.858-.7-.194l-.107-.035a4.17 4.17 0 0 0-.034-.009c.023.272.236.657.545 1.129 1.188 1.814.816 4.857-.766 6.251-.566.5-8.255 3.08-17.087 5.737-8.832 2.656-21.3 6.55-27.707 8.655a71740.33 71740.33 0 0 0-20.15 6.623c-4.676 1.538-11.902 4.093-16.058 5.678-4.156 1.586-9.965 3.645-12.91 4.576-5.7 1.803-7.415 4.065-4.754 6.273.537.446.976 1.343.976 1.993 0 1.597.13 1.577 10.297-1.616 34.672-10.889 51.11-15.907 64.009-19.54 8.139-2.293 16.422-4.754 18.406-5.47 4.477-1.615 3.69-3.042 4.223.39 94.439 28.212 85.812 25.916 94.439 28.212m7.365 49.412c-.661.661-10.756-1.778-11.973-2.893-11.814-10.825-50.43-18.755-67.436-13.85-3.177.917-7.907.776-15.002-.446-6.171-1.063-8.923-.79-6.924.686 1.967 1.452.214 2.195-8.99 3.81-10.414 1.825-10.479 1.828-10.213.427.135-.708 1.22-1.365 3.037-1.838l2.829-.737-2.384-.05c-1.31-.028-3.117-.532-4.013-1.119-2.717-1.78-20.961-1.942-31.102-.276-16.37 2.69-36.719 11.571-36.787 16.057-.018 1.196-.63 1.448-5.56 2.289-3.047.52-5.597 1.228-5.667 1.575-.191.943 8.294 1.164 9.401.245 1.403-1.164 2.118.047 2.286 3.872l.15 3.409-2.52.454c-1.385.25-3.862.607-5.505.793-5.012.566-7.403 1.869-7.403 4.033 0 2.703 2.043 5.06 3.405 3.928 2.292-1.902 13.849.536 12.544 2.646-.56.907-.738 3.254-1.08 14.308-.145 4.676-.45 10.485-.677 12.91-1.23 13.092-1.319 17.956-.349 18.933 1.046 1.052 1.11 13.705.077 15.031-.287.368-.393 1.691-.236 2.94l.286 2.27 6.396.39c3.518.214 16.88.834 29.695 1.378 29.4 1.248 29.912 1.297 29.912 2.883 0 .733-.637 1.472-1.575 1.829M188.804 59.332c-.586.034-4.98 1.413-24.798 7.752-2.855.913-5.075 1.775-4.934 1.916.363.363 9.08-1.431 16.019-3.298 3.242-.872 6.194-1.585 6.56-1.585.973 0 .186.624-1.192.946-2.571.6-5.826 1.515-10.948 3.079-16.532 5.047-22.025 6.106-20.185 3.887 1.09-1.313-1.582-1.936-4.083-.951-1.619.637-1.71.792-.689 1.171.783.291-2.162 1.324-8.815 3.092-5.496 1.46-14.101 3.796-19.123 5.19-12.392 3.44-32.131 8.774-32.47 8.774-.151 0-.275-.402-.275-.892s-.752-1.44-1.67-2.109c-1.979-1.44-1.6-2.417 1.432-3.684 2.432-1.016 2.8-2.126.71-2.14-1.56-.011-3.041-.767-3.202-1.636-.057-.307-.387-.45-.733-.319-.347.132-2.189.61-4.094 1.062-1.905.452-4.455 1.111-5.667 1.465-5.852 1.709-12.47 3.206-14.186 3.21-1.048.003-2.465.396-3.148.873-.683.477-2.518 1.316-4.076 1.863-1.559.548-5.384 1.971-8.5 3.164l-5.668 2.167-.218 3.364c-.12 1.85-.473 3.841-.785 4.425-.312.583-.404 1.486-.204 2.006.295.77-.281.945-3.109.945-1.909 0-4.127.373-4.93.829-.803.456-1.743.85-2.089.875-6.373.468-21.852 4.736-21.292 5.871.276.559.566 5.831.646 11.717.128 9.425.279 10.798 1.265 11.519 1.268.927 1.513 13.666.708 36.847-.306 8.815-.225 11.777.315 11.597.456-.152.742-1.981.769-4.912.024-2.569.255-6.654.515-9.078.26-2.425.568-7.1.684-10.391.244-6.92.84-10.01 1.678-8.718.43.66.21 23.729-.304 32.017l-.097 1.575 11.02.41c12.934.481 11.854 1.06 12.663-6.765.355-3.432 1.03-7.09 1.499-8.128 1.17-2.591 1.547-4.405 1.832-8.816.134-2.078.422-4.77.64-5.983.539-3.009-.385-4.383-2.193-3.262-1.795 1.113-1.996.75-1.302-2.338.323-1.44.43-3.22.238-3.956-.444-1.7 1.193-2.967 3.31-2.562 1.87.357 1.7-.233 1.96 6.766.262 7.018.265 6.318-.038 10.075-.14 1.732-.409 7.116-.598 11.964-.19 4.85-.522 9.703-.74 10.787-.46 2.292.342 3.052 2.622 2.48 1.506-.379 1.55-.538 1.255-4.578-.168-2.303-.126-4.478.094-4.834.22-.356.445-3.635.5-7.288.165-10.853.99-19.45 1.945-20.241 1.405-1.167 1.69.77.957 6.5-.367 2.865-.856 9.035-1.086 13.711-.23 4.676-.641 8.917-.914 9.426-.284.532-.102 1.684.428 2.708.507.98.746 2.335.532 3.01-.477 1.504 1.653 2.473 5.57 2.537 9.62.155 24.555-.043 24.84-.329.408-.407.615-3.328.704-9.928.053-3.872.306-5.084 1.248-5.982 2.853-2.721 4.79-22.852 2.199-22.852-.496 0-1.064.423-1.262.94-1.065 2.775-1.438-.848-1.089-10.577.425-11.846.516-12.151 3.758-12.53 3.03-.353 3.235.275 3.11 9.573-.06 4.33.113 8.499.382 9.266.268.767.232 1.553-.08 1.746-1.417.875-.326 5.04 1.372 5.24 1.947.228 3.134-2.95 1.732-4.64-.619-.745-.572-1.152.235-2.044.608-.671.863-1.667.643-2.507-.265-1.014-.087-1.394.654-1.394.56 0 1.018.51 1.018 1.134 0 .623.277 1.41.616 1.75.864.864 1.27 7.898.535 9.278-.402.755-.382 1.416.06 1.947.367.443.54.932.386 1.087-.155.154-.406 6.61-.559 14.347-.203 10.323-.487 14.196-1.064 14.553-3.64 2.25 2.967 2.946 31.197 3.287l13.223.16.475-4.093c.695-5.999.946-13.904 1.08-34.004.162-24.177.362-26.448 2.331-26.448 1.507 0 1.516.04 1.1 4.637-.264 2.91-.183 4.784.216 5.03 1.337.827 2.032-1.49 2.223-7.405.212-6.565-.119-7.3-3.29-7.3-2.605 0-1.313-1.76 1.848-2.519 4.358-1.045 4.111-2.175-.36-1.65-3.372.397-4.256-.535-2.486-2.615.081-.095 2.03-.349 4.33-.564l4.183-.39.108 3.082c.164 4.694.256 5.521.734 6.558.465 1.01.214 5.7-.357 6.663-.185.311-.388 3.966-.452 8.123-.344 22.373-.64 33.353-.922 34.087-.173.452-.04.992.297 1.2.337.208.44.659.227 1.001-.514.833-.807 7.627-.361 8.41.697 1.226.556 3.18-.3 4.159-.854.978-.585 4.983.335 4.983 2.192 0 4.261-4.314 2.57-5.36-.352-.217-.47-.669-.263-1.004.207-.336.471-4.59.587-9.455.116-4.865.305-8.94.42-9.055.18-.18.167-10.53-.026-19.835-.144-6.98.562-9.15 2.836-8.711 1.224.235 2.398 4.65 1.563 5.877-.236.346-.388 5.872-.339 12.28.05 6.406-.147 12.115-.437 12.685-.342.673-.212 1.296.37 1.78.673.557.745 1.147.289 2.348-.335.881-.436 2.528-.224 3.657.228 1.218.104 2.228-.303 2.48-.452.279-.486.803-.099 1.525.798 1.492.404 6.45-.646 8.132-1.442 2.308-.236 2.538 16.433 3.137 8.831.318 17.103.622 18.381.678 1.279.055 2.464-.126 2.635-.401.492-.797 1.058-21.416 1.162-42.32l.095-19.205-2.164-.172c-5.45-.433-34.531 3.988-36.133 5.493-2.904 2.728-3.386 1.622-3.193-7.323.423-19.577 1.08-34.03 1.625-35.717.325-1.004.59-3.165.59-4.803 0-4.335-.501-4.111 21.725-9.713 7.62-1.92 14.956-3.8 16.303-4.175l2.45-.682-.405-4.777c-.222-2.627-.474-4.847-.56-4.932-.009-.009-.03-.012-.07-.01zM441.86 87.416c1.212 0 2.204.283 2.204.63 0 .346-.992.63-2.204.63-1.212 0-2.204-.284-2.204-.63 0-.347.992-.63 2.204-.63zm9.708.078c.22.009.408.066.512.171.21.21-.163.358-.827.33-.733-.03-.882-.178-.38-.38a1.73 1.73 0 0 1 .695-.121zm-168.08.551c.693 0 1.26.284 1.26.63 0 .347-.567.63-1.26.63-.692 0-1.26-.283-1.26-.63 0-.346.568-.63 1.26-.63zm3.74.407c1.188.032 2.045 1.267 1.815 3.054-.216 1.677.577 2.86 1.644 2.451.473-.181 1.048-.027 1.276.343.241.39-.106.672-.827.672-1.391 0-2.464 7.077-1.81 11.946.178 1.331.04 2.706-.309 3.054-.784.784-.102 2.003 1.12 2.003 1.214 0 1.146.631-.169 1.593-1.104.807-1.085.907.925 4.781.112.216-.411.553-1.163.75-.951.248-1.247.671-.97 1.39.217.569.396 1.559.396 2.2 0 .803.54 1.23 1.732 1.37l1.732.202-1.89.95c-1.702.856-1.88 1.23-1.805 3.775.193 6.466.062 6.116 2.452 6.565 2.737.513 2.27 1.612-.684 1.612-2.573 0-3.321 2.964-.907 3.595 1.636.428 1.608 1.205-.06 1.64-1.368.358-1.28 3.46.148 5.24.37.46.233.843-.387 1.081-1.594.612-1.144 2.297.613 2.297.866 0 1.575.284 1.575.63 0 .347-.55.63-1.222.63-2.269 0-2.182 1.411.224 3.616 2.13 1.951 2.213 2.142.887 2.033-2.891-.239-3.14-.057-2.95 2.152.1 1.173-.193 2.587-.653 3.141-.705.85-.675 1.07.192 1.402.567.218.978.998.917 1.739-.25 3.038.12 4.305 1.346 4.626 1.809.473 1.55 1.324-.473 1.557-1.17.135-1.655.506-1.494 1.144.13.52.244 1.37.252 1.889.02 1.274 1.19 1.957 2.082 1.216.48-.4 1.004-.265 1.555.398.991 1.195-.057 2.139-2.395 2.155-1.798.012-1.784.47.065 2.183 1.108 1.027 2.048 1.307 3.723 1.112 1.772-.207 2.384.007 2.928 1.022.886 1.656.5 1.813-4.02 1.64-4.708-.18-7.109.59-6 1.926 1.212 1.46.267 3.035-1.549 2.58-.968-.243-1.722-.073-2.04.461-.898 1.502-2.862 2.22-4.437 1.621-1.054-.4-1.911-.279-2.98.42-1.667 1.094-3.115-.36-2.718-2.73.122-.728-.291-1.163-1.233-1.296-1.505-.214-1.858-1.026-.746-1.713.448-.278.361-.76-.262-1.455-1.306-1.457-.817-10.836.608-11.633.849-.476.808-.666-.308-1.448-.763-.535-1.135-1.295-.915-1.869.204-.532.405-2.721.446-4.863.07-3.66.16-3.883 1.491-3.698.78.108 1.417-.085 1.417-.429s-.625-.716-1.39-.826c-1.115-.162-1.418-.665-1.537-2.549-.154-2.446.77-3.808 1.425-2.1.418 1.09 2.132 1.36 2.132.335 0-.358-.425-.813-.945-1.013-.52-.2-.944-.773-.944-1.276s-.254-.758-.564-.567c-.756.468-1.325-1.159-1.325-3.788 0-1.623.27-2.158 1.102-2.172 1.038-.018 1.039-.056.017-.652-1.036-.603-1.596-18.7-1.071-34.592.327-9.9 1.208-9.068-8.392-7.92-5.001.6-5.298.082-1.376-2.396 2.5-1.58 3.278-1.767 6.011-1.443 3.789.448 4.287-.308 3.702-5.623-.452-4.105.237-4.991 3.414-4.395 1.256.235 2.33.133 2.563-.244.534-.863 4.105-.837 4.105.03 0 .883 3.57.158 5.615-1.14.442-.28.876-.403 1.272-.392zm167.541 2.113c1.04 0 1.89.283 1.89.63 0 .345-.85.629-1.89.629-1.039 0-1.889-.284-1.889-.63 0-.346.85-.63 1.89-.63zm9.394.077c.218.01.406.068.511.172.21.209-.163.358-.827.33-.733-.03-.882-.18-.38-.38a1.73 1.73 0 0 1 .696-.122zm-162.376 2.441c.367 0 .492.283.278.63-.214.346-.514.63-.667.63-.152 0-.278-.284-.278-.63 0-.347.3-.63.667-.63zm4.133.245a.448.448 0 0 1 .249.076c.352.218.476.66.277.982-.54.874-.918.71-.918-.395 0-.405.162-.655.392-.663zm-28.151.463a1.731 1.731 0 0 0-.696.122c-.502.2-.353.35.381.38.664.027 1.036-.121.826-.33-.104-.105-.293-.163-.511-.172zm125.192 2.802c.452 0 1.033.119 1.747.284 1.385.322 4.644.61 7.241.643 2.614.032 7.247.692 10.373 1.478 6.174 1.552 6.432 1.82 6.566 6.806.039 1.438.452 2.548 1.08 2.899.764.428.863.863.4 1.762-.34.657-.498 1.523-.354 1.924.145.401-.035.914-.4 1.14-1.769 1.092.557 8.074 2.583 7.752 1.57-.25 1.712.816.218 1.645-2.408 1.335-2.585 3.532-.285 3.532 1.95 0 2.02 1.18.164 2.812-1.744 1.534-2.809 1.92-3.471 1.257-.357-.356-15.103-2.333-26.32-3.529-7.072-.754-8.384-1.265-6.9-2.69.788-.756 1.544-.713 5.326.303 2.425.651 4.762 1.192 5.195 1.2 1.389.03.876-3.938-2.115-16.37-2.546-10.582-3.008-12.845-1.048-12.848zm-97.835.359c.077.003.159.013.245.03.606.116 1.046.491.978.833-.219 1.094-2.08 1.086-2.08-.009 0-.567.316-.875.857-.854zm-11.358.126c.423.009.934.054 1.528.14 2.982.433 3.75.7 3.253 1.13-.791.681-3.6.826-4.828.248-1.95-.92-1.783-1.558.047-1.518zm-40.395 2.066c3.45-.017 6.187.288 6.187 1.037 0 1.514-5.216 3.8-7.915 3.468-1.362-.168-5.734.22-9.717.862-3.983.642-7.95 1.156-8.816 1.144l-1.575-.023 1.732-1.418c.953-.78 1.732-1.663 1.732-1.964 0-.3-.496-.1-1.102.446-2.338 2.106-7.631 4.186-13.066 5.136-11.053 1.93-10.203.545 2.125-3.466 8.582-2.792 13.501-3.674 14.2-2.545.678 1.098 2.07.835 2.408-.456.332-1.267 8.059-2.192 13.807-2.221zm27.274.237a4.114 4.114 0 0 0-.59.084c-.652.127-1.305.584-1.449 1.017-.374 1.124.793.974 1.792-.23.548-.66.66-.884.247-.871zm14.237 1.412c.272.01.62.072 1.041.188.953.262 2.7.505 3.882.54 1.183.035 2.269.418 2.414.85.246.736-2.253 1.039-3.934.478-.346-.115-1.41-.382-2.362-.592-.952-.21-1.731-.69-1.731-1.068 0-.277.238-.41.69-.396zm10.644 1.106c.347 0 .63.283.63.63 0 .346-.283.63-.63.63a.632.632 0 0 1-.63-.63c0-.347.284-.63.63-.63zm72.028 1.574l.437 2.834c.24 1.559.217 3.071-.05 3.36-.905.983-1.363-.874-.873-3.54zm-77.203 1.23c2.36.03 5.805.737 5.805 1.506 0 .586-5.347.545-6.988-.054-.704-.257-1.126-.715-.938-1.02.2-.322 1.048-.447 2.12-.433zm-5.845 1.623c.347 0 1.055.275 1.575.61.52.336.66.611.315.611-.347 0-1.055-.275-1.574-.61-.52-.336-.662-.61-.316-.61zm91.271 1.24c1.233 0 2.24.284 2.24.63 0 .346-.832.63-1.85.63-1.02 0-2.028-.284-2.242-.63-.231-.375.518-.63 1.852-.63zm-110.677 1.15c-.357-.023-.827.076-1.37.327-1.825.847-2.002 2.05-.536 3.67 1.415 1.563 2.331 1.45 1.891-.233-.199-.762-.066-1.741.296-2.177.744-.896.505-1.536-.28-1.587zm2.756.11c-.367 0-.666.283-.666.63 0 .346.124.63.277.63.153 0 .453-.284.667-.63.214-.347.089-.63-.278-.63zm28.022 0c.153 0 .278.283.278.63 0 .346-.3.63-.667.63-.367 0-.491-.284-.277-.63.214-.347.513-.63.666-.63zm-7.53 1.105c1.732-.002 2.59.738 1.32 1.545-.836.531-.972.536-2.328.084-2.643-.881-2.681-1.066-.314-1.5a7.415 7.415 0 0 1 1.322-.129zm4.44 1.414c.699 0 .746.275.22 1.26-.371.692-.921 1.258-1.223 1.258-.302 0-.4-.566-.22-1.259.182-.693.732-1.26 1.223-1.26zm2.845 3.25c.134.005.246.041.315.11.692.693-.122 1.628-.961 1.106-.634-.393-.663-.649-.115-.987.254-.157.538-.237.761-.229zm-25.48.131c-.181-.018-.377.077-.587.287-.346.347-.424.963-.172 1.37.304.493.666.53 1.086.11.347-.347.424-.963.173-1.37-.152-.247-.32-.379-.5-.397zm14.001 1.027c.713 0 1.297.111 1.297.247 0 .598-1.885.898-2.221.355-.205-.331.211-.602.924-.602zm6.778.63c2.302 0 2.743 1.131 1.086 2.788-.84.84-2.603 1.35-2.87.832-.963-1.867-.1-3.62 1.784-3.62zm4.824.847c.057.009.125.105.2.294.183.454.16.998-.05 1.207-.209.21-.357-.163-.33-.827.019-.458.084-.688.18-.674zm-225.616 1.996c1.743-.037 2.385 1.093 1.204 2.517-1.015 1.223-5.661 1.28-5.661.07 0-1.206 1.212-2.036 3.645-2.497.292-.055.563-.085.812-.09zm225.364.377c.211.006.465.119.717.371.453.452.463.805.033 1.07-.352.218-.83.09-1.062-.285-.411-.666-.153-1.169.312-1.156zm81.558.345c.753.006 1.24.22 1.397.628.178.464.718.844 1.2.844.483 0 .878.284.878.63 0 1.196-4.682.714-5.48-.564-.662-1.06-.532-1.224 1.166-1.474.308-.045.588-.066.84-.064zm-179.334.213c.583 0 .839.506.71 1.41-.217 1.516-2.013 2.253-2.716 1.116-.534-.865.785-2.526 2.006-2.526zm169.577.213c.178-.003.352.025.514.088.471.18 1.4.328 2.064.328.665 0 1.208.314 1.208.697 0 .384-.427.534-.95.333-.557-.214-1.27.149-1.726.877-.942 1.51-2.883 1.626-3.428.206-.408-1.063 1.073-2.516 2.318-2.53zm-82.771.661c.225.01.442.126.57.331.202.328.1.763-.229.966a.704.704 0 0 1-.965-.228.704.704 0 0 1 .624-1.069zm-17.585.385c-.52 0-1.12.284-1.334.63-.214.346.036.63.555.63.52 0 1.12-.284 1.334-.63.214-.346-.036-.63-.555-.63zm224.416.63c.347 0 .626.213.62.472-.028 1.38-1.23 2.296-1.24.945-.005-.78.274-1.417.62-1.417zm-203.747.212c.1-.01.222.022.352.103.346.214.63.514.63.666 0 .153-.284.278-.63.278-.347 0-.63-.3-.63-.667 0-.229.11-.363.278-.38zm84.017 1.677h1.956c1.758 0 1.938.175 1.775 1.732-.16 1.53.05 1.754 1.818 1.925 1.1.107 2.336.599 2.747 1.094.982 1.183.281 2.917-1.121 2.773-2.487-.253-3.31.068-3.31 1.292 0 1.02.419 1.26 2.203 1.26 2.03 0 2.204.15 2.204 1.888 0 1.04-.283 1.89-.63 1.89-.346 0-.63-.392-.63-.871 0-.919-1.849-1.625-4.291-1.64-1.222-.007-1.427.273-1.26 1.723.14 1.222.514 1.68 1.268 1.555 1.58-.263 2.484 1.992 2.27 5.657-.312 5.314-2.064 4.585-3.331-1.387-.257-1.212-.68-2.487-.94-2.833-1.043-1.391-1.196-5.983-.2-5.983.612 0 .815-.358.567-1.002-.253-.66.027-1.11.815-1.317 1.231-.322 2.194-3.126 1.27-3.697-.284-.175-1.116-1.16-1.848-2.189zm8.272.63c.347 0 .63.283.63.63 0 .346-.283.63-.63.63a.631.631 0 0 1-.63-.63c0-.347.284-.63.63-.63zm-95.191.174c.878-.041 1.994.68 1.994 1.468 0 1.168-2.287 1.128-2.739-.048-.195-.508-.109-1.076.191-1.261.16-.1.35-.15.554-.16zm9.259.185c1.408-.012 2.81.517 2.81 1.599 0 .655-.353 1.145-.786 1.09-.433-.056-1.708-.216-2.834-.355-1.125-.14-2.042-.449-2.037-.687.024-1.082 1.439-1.635 2.847-1.647zm75.82.9c.366 0 .667.284.667.63 0 .346-.126.63-.278.63-.153 0-.453-.284-.667-.63-.214-.346-.09-.63.278-.63zm153.309.808c.639-.006 1.569.198 3.018.625 3.268.963 3.29.986 1.031 1.035-1.27.028-2.687.19-3.149.36-1.369.503-2.866-.737-1.97-1.633.252-.251.573-.383 1.07-.387zm-250.877.451a.632.632 0 0 0-.63.63c0 .347.284.63.63.63.346 0 .63-.283.63-.63a.632.632 0 0 0-.63-.63zm-245.966.042c.376-.009.696.065.88.25.244.243-.107.843-.779 1.334-1.582 1.157-2.87 1.14-2.87-.039 0-.749 1.639-1.518 2.769-1.545zm242.664.484c-1.59.052-3.625 1.796-3.625 3.912 0 .844 1.49.747 2.393-.156.588-.587.924-.587 1.511 0 1.557 1.557 2.386-.038 1.382-2.656-.307-.799-.938-1.124-1.661-1.1zm155.758 2.6c.064-.014.12 0 .163.042.163.164-.105.847-.596 1.519-.491.672-.888.954-.883.629.012-.762.87-2.1 1.316-2.19zm98.473.023c1.44 0 2.319 1.777 2.319 4.688 0 1.573.244 3.01.542 3.194.298.184.419 1.932.269 3.884-.15 1.953.015 3.896.366 4.32.455.548.318.894-.479 1.204-1.018.396-.985.544.369 1.648 1.127.92 1.241 1.213.472 1.213-1.15 0-1.381 1.032-.313 1.388 1.862.62.126 2.067-2.276 1.896-4.07-.29-4.243-.46-2.895-2.858 1.161-2.069 1.385-12.615.365-17.22-.384-1.736.225-3.357 1.261-3.357zm-326.265.218c.058.008.126.105.201.294.182.454.16.998-.05 1.207-.209.21-.358-.163-.33-.827.019-.458.084-.689.18-.674zm91.46.002c.867.01 1.508 2.593 1.508 6.751 0 5.053-.866 7.025-2.408 5.483-.955-.955-.977-9.576-.028-11.348.324-.606.638-.889.927-.886zm6.23.41c.98 0 1.575.358 1.575.945 0 .588-.595.945-1.574.945-.98 0-1.574-.357-1.574-.945 0-.587.594-.944 1.574-.944zm200.913 1.275c.483.004.91.188.91.548 0 .695-1.635 1.372-2.126.88-.198-.197-.208-.603-.024-.9.22-.358.758-.533 1.24-.528zm-299.387 1.244c.346 0 .454.283.24.63-.214.346-.672.63-1.019.63-.346 0-.454-.284-.24-.63.214-.347.672-.63 1.019-.63zm69.544.22c-.154-.01-.374.023-.665.114-.52.162-1.388.435-1.93.606-.541.17-.814.585-.607.92.239.387.947.351 1.93-.096 1.359-.62 1.937-1.497 1.272-1.544zm226.344.43l2.552 1.33c1.928 1.004 2.506 1.655 2.362 2.66-.259 1.804-2.395 2.2-2.395.443 0-1.413-1.583-1.803-2.102-.518-.174.433-.34-.271-.367-1.564zM303 134.14c.053 0 .11.011.168.03.433.145.787.64.787 1.103 0 .461-.354.958-.787 1.102-.468.156-.787-.29-.787-1.102 0-.71.244-1.141.619-1.133zm127.83 0c.054 0 .11.011.169.03.433.145.787.64.787 1.103 0 .461-.354.958-.787 1.102-.469.156-.787-.29-.787-1.102 0-.71.244-1.141.619-1.133zm-125.07 1.513c.476-.073 1.009 1.075 1.02 2.611.01 1.519-.896 1.769-2.668.736-1.359-.791-1.437-1.838-.137-1.838.53 0 1.137-.449 1.347-.997.125-.327.278-.487.437-.512zm-10.935.25c.346 0 .629.283.629.629 0 .346-.283.63-.63.63a.632.632 0 0 1-.63-.63c0-.346.284-.63.63-.63zm-100.578.188a1.308 1.308 0 0 0-.179.003c-1.057.075-2.516 1.21-2.516 2.192 0 .78.524 1.08 1.889 1.08 1.916 0 2.805-2.193 1.273-3.14a.972.972 0 0 0-.467-.134zm-109.467.023c.1-.01.221.023.351.103.347.214.63.515.63.667 0 .153-.283.278-.63.278-.346 0-.63-.3-.63-.667 0-.229.111-.364.279-.38zm348.521.629c1.045.064 2.62 1.101 2.244 1.71-.596.964-3.444.708-3.444-.31 0-.498.277-1.078.616-1.288a.842.842 0 0 1 .383-.112c.065-.004.132-.004.201 0zm130.057.63c.101-.01.222.023.352.104.346.214.63.514.63.667 0 .152-.284.277-.63.277-.346 0-.63-.3-.63-.666 0-.23.11-.365.278-.381zm-132.722.559c.156.023.206.3.206.867 0 .693.327 1.588.728 1.988.552.553.533.965-.077 1.7-.619.747-.635 1.178-.069 1.86.54.65.548 1.006.035 1.323-.387.24-.51.903-.274 1.474.685 1.654.762 9.146.102 10.011-.389.51-.347 1.092.118 1.652.394.476.54 1.326.324 1.89-.286.746-.032 1.024.934 1.024 1.5 0 1.695.639.547 1.787-.924.924-1.036 2.761-.205 3.36.353.254.288.786-.16 1.326-1.302 1.57-.197 4.898 1.866 5.617 2.306.804 2.505 2.707.223 2.134-1.863-.468-2.005.274-.494 2.58 1.042 1.591 1.031 1.68-.315 2.574-1.607 1.067-1.823 2.536-.45 3.063.52.2.945.616.945.925 0 .309-1.29.562-2.868.562h-2.867l.19-23.267c.145-17.563.385-23.462.979-24.055.275-.276.46-.413.582-.395zm-157.044 1.455c-.535-.038-1.18.363-1.328 1.138-.162.842.094 1.098.935.936.638-.123 1.16-.644 1.16-1.16 0-.59-.35-.884-.767-.914zm116.05.513c.18.003.299.212.46.63.466 1.215-1.137 2.688-1.784 1.64-.245-.397-.026-1.14.487-1.654.412-.412.656-.618.837-.616zm114.006.597c.184-.016.24.194.24.644 0 1.176-1.027 1.944-1.524 1.14-.194-.313.07-.919.586-1.347.333-.277.555-.425.698-.437zm-67.474 1.073c.563 0 .783.37.562.945-.2.519-.615.944-.924.944-.31 0-.563-.425-.563-.944 0-.52.416-.945.925-.945zm-297.97.098c-.56.05-1.16.505-1.318 1.326-.146.756.194 1.095 1.095 1.095s1.305-.405 1.305-1.306c0-.807-.52-1.164-1.081-1.115zm139.638.801c-1.032.018-1.98.266-2.176.777-.178.463-.757.843-1.287.843a.957.957 0 0 0-.965.944c0 1.147.999 1.24 1.681.158.328-.52.623-.147.87 1.102.48 2.43.239 2.834-1.696 2.834-1 0-1.486.291-1.31.787.153.432.912.715 1.685.626.958-.109 1.51.242 1.736 1.102.642 2.458 3.961 1.696 3.961-.91 0-1.398.385-2.388 1.081-2.777.896-.502.957-.858.36-2.078-.395-.81-.83-1.887-.967-2.394-.182-.677-1.647-1.037-2.973-1.014zm27.724.36c.326 0 .593.425.593.945 0 .974-.743 1.25-1.452.541-.504-.503.065-1.486.86-1.486zm83.4 1.26c.519 0 .944.266.944.592 0 .794-.983 1.363-1.486.86-.71-.71-.432-1.452.542-1.452zm114.292.63c.346 0 .63.266.63.592 0 .326-.284.768-.63.982-.347.213-.63-.053-.63-.593 0-.54.283-.981.63-.981zm3.186.629c.326 0 .592.425.592.945 0 .973-.743 1.25-1.452.542-.503-.503.066-1.487.86-1.487zm-201.23.63c.686 0 .97.776 1.04 2.833.051 1.559.122 3.165.157 3.57.035.403-.289.851-.719.994-.581.194-.684-.458-.398-2.54.244-1.78.127-2.96-.32-3.237-1.014-.627-.866-1.62.24-1.62zm162.054.125c3.227.003 6.27.353 10.172 1.117 5.332 1.043 24.938 2.109 26.165 1.422 1.375-.77 4.06.242 4.06 1.53 0 .935-1.725.97-9.445.19-19.87-2.004-26.393-2.495-33.177-2.495-8.912 0-10.292-.9-2.39-1.557a54.718 54.718 0 0 1 4.615-.207zm102.297.58c1.252-.005 1.389.615.316 1.688-1.157 1.157-2.937.933-2.753-.347.096-.67.814-1.18 1.833-1.3.224-.028.426-.041.604-.042zm-124.894.107c3.153-.023 6.34.223 6.477.762.096.38-2.393.7-6.296.81-5.25.145-6.454.011-6.454-.718 0-.54 3.12-.832 6.273-.854zm-55.39.447c.346 0 .63.425.63.945s-.284.945-.63.945c-.347 0-.63-.426-.63-.945 0-.52.283-.945.63-.945zm150.108.245c.23.008.392.258.392.663 0 1.105-.378 1.268-.918.395-.199-.322-.074-.764.278-.981a.449.449 0 0 1 .248-.077zm-105.4.448c.232 0 .463.147.757.44.587.588.42.757-.756.757s-1.344-.169-.756-.756c.294-.294.525-.441.756-.441zm-242.414.23c-.799.022-.79.357-.172 1.109.364.44.861 2.148 1.106 3.793.518 3.479 1.486 3.789 2.83.907 1.346-2.884.44-5.26-2.157-5.656-.714-.109-1.244-.164-1.607-.153zm103.212.337c.367 0 .667.283.667.63 0 .346-.125.629-.278.629-.152 0-.453-.283-.667-.63-.214-.346-.088-.63.278-.63zm94.836 1.504a.701.701 0 1 1-.054 1.402.701.701 0 0 1 .054-1.402zm54.268.873c.606-.007 1.272.003 2 .029 6.016.212 7.256 1.02 4.629 3.014-1.05.797-1.05.838 0 .857a1.16 1.16 0 0 1 1.13 1.122c.016.606.184 6.557.374 13.224.281 9.918.19 12.106-.502 12.036-2.465-.25-4.093-.748-4.952-1.515-.64-.57-1.269-.659-1.89-.266-2.157 1.364-5.02.727-5.055-1.125-.325-17.732-.492-23.88-.661-24.4-.668-2.062.681-2.93 4.927-2.976zm71.609.141c1.192 0 2.342.284 2.556.63.235.38-.623.63-2.167.63-1.406 0-2.556-.283-2.556-.63 0-.346.975-.63 2.167-.63zm10.353.63c.346 0 .805.283 1.019.63.214.346.105.63-.241.63s-.804-.284-1.019-.63c-.214-.347-.106-.63.24-.63zm-4.386.078c.219.009.407.067.512.171.209.21-.163.358-.827.331-.734-.03-.883-.18-.38-.38a1.73 1.73 0 0 1 .695-.122zm-438.892.343c-.443.037-.628.469-.318 1.274.198.516.168 1.247-.066 1.625-.233.379-.5 4.603-.59 9.389-.091 4.786.046 8.701.304 8.701 1.579 0 3.226-2.746 3.226-5.377 0-2.877-.433-3.383-1.763-2.053-.588.587-.755.586-.755-.016 0-.424.663-1.023 1.473-1.331 1.844-.701 1.64-4.173-.282-4.783-.655-.208-1.191-.803-1.191-1.323 0-.638.384-.823 1.186-.568 1.935.614 2.398-2.58.644-4.447-.724-.771-1.425-1.128-1.868-1.091zm55.095.209c-1.544 0-2.134 1.442-.903 2.204.347.214.63 1.385.63 2.602 0 3.169 2.172 2.78 2.276-.407.112-3.46-.316-4.4-2.003-4.4zm371.75.847c.329.009.674.053.993.132.85.214 2.758.435 4.24.492 2.478.095 2.736.267 3.224 2.15.396 1.53.882 2.05 1.929 2.056 1.74.012 3.415 1.018 2.768 1.664-.265.266-1.032.14-1.704-.28-2.181-1.362-4.021.236-2.45 2.128.436.527.533 1.824.256 3.459-.243 1.439-.198 2.504.1 2.367.296-.137 1.603-.79 2.903-1.452 2.322-1.183 2.378-1.185 3.239-.006.901 1.232.306 1.633-4.816 3.245-.704.222-1.141 1.059-1.211 2.32-.06 1.085-.16 2.965-.22 4.177-.06 1.212.265 2.82.723 3.574.647 1.063.66 1.433.062 1.65-.588.213-.6.57-.05 1.504.473.806.515 1.592.122 2.293-.74 1.324.38 1.858 3.3 1.571 2.487-.244 2.993-1.247 1.058-2.098-2.14-.941-2.238-2.827-.147-2.827.926 0 2.662-.464 3.859-1.032 1.807-.857 2.427-.898 3.656-.24.893.477 1.816.574 2.327.245.466-.301 1.556-.547 2.422-.547 1.249 0 1.615-.357 1.773-1.731.11-.953.42-1.732.69-1.732.972 0 2.668 2.436 2.481 3.567-.104.636.034 1.512.307 1.948.833 1.328-2.232 2.16-3.25.882-.456-.575-1.165-.93-1.574-.789-.408.141-2.372.195-4.363.119-3.813-.145-4.155.126-2.656 2.107 1.306 1.727 1.15 3.56-.335 3.948-1.513.395-1.556.7-.297 2.091.74.818.816 1.448.33 2.726-.714 1.88-2.578 2.204-3.85.671-.731-.88-.916-.81-1.671.63-1.016 1.94-5.242 2.289-7.612.63l-1.416-.993 1.59-1.89c1.945-2.31 1.962-2.653.194-3.827-1.088-.723-1.375-1.478-1.297-3.42.091-2.29-.064-2.542-1.9-3.086-1.106-.327-2.339-1.28-2.758-2.132-1.123-2.28-5.69-2.484-6.524-.29-.558 1.47-2.497 2.158-2.497.886 0-1.575-7.758-.023-8.75 1.751-.912 1.628-1.517.494-1.589-2.972-.074-3.552-2.31-6.576-5.303-7.172-4.209-.838-4.183-.847-4.39 1.309-.149 1.536-.502 2.047-1.417 2.047-1.5 0-1.568-1.091-.164-2.642 1.59-1.757.2-2.836-1.889-1.467-1.49.977-1.706.976-3.21-.01-1.659-1.087-1.68-2.402-.03-1.769 1.78.683 3.324-.356 1.989-1.339-.644-.474-.871-1.005-.523-1.22.34-.21 1.164.314 1.833 1.164 1.415 1.8 3.603 1.61 5.26-.456 1.13-1.41 3.276-1.088 2.703.407-.197.512.27 1.335 1.075 1.899 1.635 1.146 2.35.858 1.228-.495-.568-.685-.586-1.25-.068-2.219.477-.89.496-1.673.061-2.485-.847-1.582-2.517-2.171-2.951-1.04-.415 1.08-4.602 4.368-5.024 3.945-.448-.448 1.178-3.822 2.237-4.642.779-.603.793-.882.088-1.732-1.142-1.375-1.946-1.273-1.946.247 0 .923-.42 1.26-1.574 1.26-1.862 0-2.057-1.258-.423-2.737 1.495-1.352 6.3-1.421 6.807-.097.2.52.748.944 1.22.944.504 0 .708-.39.495-.944-.2-.52-.082-.945.261-.945s.78.597.97 1.326c.433 1.653 1.935 1.252 2.206-.588.11-.752.613-1.367 1.116-1.367.767 0 .746-.26-.128-1.595-.575-.876-.844-1.795-.598-2.04.246-.247.703.008 1.015.565.382.682 1.107.909 2.226.695 1.463-.28 1.61-.158 1.233 1.028-.508 1.601-.391 1.626 1.947.406.992-.517 2.566-.943 3.498-.945 1.79-.003 3.17 1.314 1.84 1.757-.43.143-1.046.956-1.37 1.807-.324.852-.89 1.36-1.26 1.13-.444-.274-.323-.8.355-1.549 1.44-1.59.166-2.17-2.145-.975-1.027.532-2.044 1.251-2.26 1.6-.216.35-.967.634-1.67.634-1.337 0-3.629 2.265-3.665 3.621-.032 1.227 1.11.925 1.532-.404.373-1.177 2.452-2.15 3.134-1.469.797.797.268 2.03-.871 2.03-.672 0-1.397.284-1.611.63-.214.347.2.63.919.63 1.081 0 1.24.273.913 1.574-.415 1.655.07 1.946 1.615.969.576-.364 1.067-.36 1.296.01.215.348.877.221 1.59-.304 1.2-.884 1.196-.926-.226-2.259-1.54-1.442-.877-3.562.9-2.88.453.174 1.01.013 1.24-.357.229-.37 1.689-1.237 3.244-1.925 1.555-.688 2.964-1.773 3.132-2.413.212-.81.998-1.22 2.6-1.354 3.27-.273 3.113-1.979-.221-2.395-1.52-.19-2.218-.51-1.76-.807.26-.169.762-.25 1.31-.236zm-27.65.43c.376.02.68.437.89 1.242.181.693.107 1.26-.164 1.26-.781 0-1.94-1.647-1.482-2.106.276-.276.529-.407.755-.395zm-188.182.009c.62.004 1.424.125 2.331.368.775.208 1.255.63 1.065.936-.585.947-4.679.294-4.679-.747 0-.374.488-.562 1.283-.557zm192.616.68c.218.01.406.067.51.172.21.21-.162.358-.826.331-.733-.03-.882-.18-.38-.38a1.73 1.73 0 0 1 .696-.122zm-206.43.044c-.755-.025-1.952.794-1.952 1.52 0 .483.249.878.553.878.731 0 2.233-1.832 1.83-2.234a.62.62 0 0 0-.43-.164zm208.56.545c.281-.002.439.245.436.75-.003.434-.712 1.116-1.575 1.516-1.854.86-1.943.668-.485-1.036.694-.81 1.262-1.226 1.624-1.23zm-206.679.593c-1.238 0-2.322 2.656-1.577 3.863.483.78 1.025.209 2.02-2.131.651-1.534.6-1.732-.443-1.732zm24.29.223c.093-.047.118.433.151 1.509.06 1.974-.217 2.561-.745 1.574-.14-.26-.042-1.18.215-2.046.191-.644.305-1 .378-1.037zm128.045 1.666c.346 0 .63.284.63.63 0 .346-.284.63-.63.63a.632.632 0 0 1-.63-.63c0-.346.283-.63.63-.63zm41.5.63c1.12 0 1.25.923.279 1.996-1.157 1.278-1.853 1.445-2.391.574-.368-.595 1.255-2.57 2.112-2.57zm49.77 0c.367 0 .667.284.667.63 0 .346-.125.63-.277.63-.153 0-.453-.284-.667-.63-.215-.346-.09-.63.278-.63zm12.632 1.26c.346 0 .63.283.63.63 0 .346-.284.63-.63.63a.632.632 0 0 1-.63-.63c0-.347.284-.63.63-.63zm-147.982 1.26c.347 0 .63.282.63.629 0 .346-.283.63-.63.63a.632.632 0 0 1-.63-.63c0-.347.284-.63.63-.63zm141.781.044c.61-.028 1.292.226 2.026.762 1.006.736.874.958-1.48 2.5-2.921 1.912-4.053 1.11-2.509-1.775.51-.954 1.178-1.453 1.963-1.487zm-25.463 1.11c-.091.003-.187.018-.29.046-2.528.676-3.845 3.461-2.394 5.064 1.154 1.276 1.145 1.291-.818 1.291-2.414 0-2.55.746-.35 1.924 1.45.775 1.73.751 2.432-.21 1.087-1.486 1.373-1.378 2.134.806 1.02 2.924 2.976 2.55 3.49-.669.493-3.08.06-3.953-1.738-3.502-1.627.408-3.587-.626-2.54-1.34 1.493-1.016 1.433-3.468.074-3.41zm-43.938.105c-.367 0-.492.283-.278.629.214.346.514.63.667.63.153 0 .277-.284.277-.63 0-.346-.3-.63-.666-.63zm57.924.154c.418-.018.942.33 1.161.987.137.41-.2.748-.748.748a1 1 0 0 1-.997-.998c0-.486.26-.723.584-.737zm-43.682.475c.153 0 .278.284.278.63 0 .346-.3.63-.667.63-.367 0-.491-.284-.277-.63.214-.346.514-.63.666-.63zm62.341.63c.153 0 .278.283.278.63 0 .346-.3.63-.667.63-.367 0-.492-.284-.277-.63.214-.347.513-.63.666-.63zm-265.793.18c-1.03-.012-1.297.46-.277 1.104 1.138.72 1.338.724 2.403.05.621-.395.392-.652-.862-.967a5.624 5.624 0 0 0-1.264-.186zm24.96.565c2.185.037 4.34.701 4.34 1.82 0 .375-1.918.586-4.742.521-4.47-.104-4.685-.173-3.747-1.21.733-.81 2.45-1.16 4.15-1.131zM527.5 164.87c.52 0 .945.283.945.63 0 .346-.425.63-.945.63s-.944-.284-.944-.63c0-.347.425-.63.944-.63zm12.132 1.67c.53.006.778.496.778 1.478 0 1.577-.625 1.862-2.518 1.149l-1.572-.593 1.555-1.173c.765-.578 1.346-.865 1.757-.86zm-349.377.219c-.367 0-.492.284-.278.63.214.346.514.63.667.63.153 0 .277-.284.277-.63 0-.346-.3-.63-.666-.63zm344.135 0c.54 0 .982.284.982.63 0 .346-.267.63-.593.63-.325 0-.767-.284-.981-.63-.214-.346.052-.63.592-.63zm-258.945.035c-.072.01-.083.362-.103 1.067-.033 1.166-.397 1.417-2.055 1.417-2.555 0-1.408 1.493 1.236 1.609.99.043 1.746.452 1.783.965a14 14 0 0 0 .16 1.362c.213 1.049 1.28.38 1.469-.919.125-.866.796-1.544 1.775-1.796 1.444-.372 1.375-.445-.836-.892-1.583-.32-2.597-.948-2.952-1.825-.268-.666-.404-.998-.477-.988zm26.715.927c.608.006 1.035.063 1.159.187.165.166-.447.69-1.361 1.163-1.621.842-7.62.93-8.129.12-.353-.563 5.695-1.495 8.331-1.47zm3.368.297c.347 0 .63.992.63 2.204 0 2.273-.33 2.574-1.799 1.644-.595-.378-.643-.672-.157-.972.383-.237.697-.98.697-1.653 0-.672.283-1.223.63-1.223zm225.57.47c.858.015 1.182 2.083.189 3.076-.475.475-1.025.862-1.223.862-.74 0-.326-3.021.508-3.714.19-.158.368-.226.526-.223zm-8.518.79c1.172 0 1.644 1.227.622 1.62-.512.195-.784.85-.619 1.482.27 1.031-1.17 2.25-1.851 1.57-.536-.537 1.1-4.672 1.848-4.672zm-28.913.023l-1.782 1.406c-2.36 1.86-2.3 2.844.195 3.153 1.125.14 2.343.3 2.707.355.364.055.939-.177 1.278-.516.404-.404 1.45-.388 3.017.045 2.516.694 4.175.429 4.175-.668 0-.357-.835-.65-1.856-.65-1.02 0-3.179-.702-4.795-1.562zm40.35 1.314c.248-.029.554.294 1.018.913.8 1.068.785 1.307-.127 2-1.638 1.245-2.227.929-1.757-.943.33-1.315.55-1.933.867-1.97zm6 .167c.23.008.393.258.393.663 0 1.106-.378 1.269-.918.395-.2-.322-.074-.764.278-.982a.446.446 0 0 1 .248-.076zm-13.702 2.06c.27.025.723.236 1.482.615 2.16 1.077 1.746 2.514-1.114 3.864-2.147 1.014-3.582.977-4.487-.114-.598-.72-.319-1.023 1.498-1.622 1.484-.49 2.232-1.127 2.232-1.9 0-.607.043-.877.39-.844zm-442.386.62c-.179-.027-.366.203-.546.742-.136.408-.617.742-1.07.742-.453 0-.972.92-1.153 2.046-.182 1.126-.537 3.27-.788 4.766l-.457 2.72 2.45-.201 2.45-.2.068-4.9c.045-3.254-.417-5.637-.954-5.716zm399.551.192c.34-.045.555.272.483 1.014-.103 1.07 1.119 1.198 2.098.22.498-.498 1.056-.493 2.015.021 1.612.863 1.724 2.268.227 2.843-2.512.964-10.904.972-11.273.01-.748-1.95.417-3.291 1.488-1.715 1.32 1.942 2.308 1.777 3.373-.561.509-1.118 1.152-1.774 1.59-1.832zm-185.685.041c1.554.014 2.935.983 2.471 1.734-.55.891-2.644 1.337-3.575.762-1.087-.672-.275-2.507 1.104-2.496zm5.05.05c.67-.007.94.456.505 1.159-.523.845-1.407.863-1.918.037-.215-.349.064-.809.62-1.022.301-.116.57-.17.793-.173zm203.092.87a.097.097 0 0 0-.07.029c-.15.149.087.703.525 1.23 1.124 1.354 1.429 1.194.515-.27-.37-.592-.775-.997-.97-.99zm-33.291.571a.433.433 0 0 0-.245.074c-.347.214-.63.656-.63.982 0 .326.283.592.63.592.346 0 .63-.441.63-.981 0-.405-.16-.657-.385-.667zm61.284.035c.117.01.182.093.182.256 0 .4-.292.728-.65.728-.357 0-.853.545-1.102 1.21-.402 1.079-.586 1.113-1.674.315-1.168-.856-1.17-.896-.05-.896.645 0 1.692-.468 2.325-1.042.43-.39.773-.585.969-.57zm-228.442 1.694c.665.023.67.555.67 2.241 0 2.399-.06 2.464-2.215 2.464-1.283 0-2.11-.278-1.967-.66.135-.365.595-.581 1.021-.482.877.203 2.531-.994 2.531-1.831 0-.923-2.94-.618-3.778.391-1.18 1.422-5.826 1.29-5.547-.157.162-.835.896-1.126 3.037-1.2 1.554-.053 3.746-.298 4.871-.543.637-.14 1.075-.234 1.377-.223zm-30.926.024c-.89.06-3.033 2.209-2.566 2.677.676.675 1.338.379 2.336-1.046.544-.778.72-1.504.39-1.614a.414.414 0 0 0-.16-.017zm158.167.525a.631.631 0 0 0-.63.63c0 .346.284.63.63.63.347 0 .63-.284.63-.63a.632.632 0 0 0-.63-.63zm61.11.077a2.05 2.05 0 0 0-.493.042c-.602.116-1.194.727-1.315 1.358-.19.982-.033 1.046 1.094.443 1.394-.746 1.684-1.79.714-1.843zm-210.387 1.183c-.367 0-.492.283-.278.63.214.346.514.629.667.629.152 0 .277-.283.277-.63 0-.346-.3-.63-.666-.63zm22.539 3.982c.15-.011.298.128.474.413.256.414.182 1.035-.165 1.382-.82.82-1.473-.235-.809-1.31.194-.313.349-.473.5-.485zm-4.176 1.202c.372-.014.565.232.565.73 0 1.131-2.81 1.442-3.464.383-.214-.346.03-.63.541-.63.512 0 1.379-.172 1.927-.382.163-.063.307-.097.431-.101zm-25.306 1.82a1.73 1.73 0 0 0-.695.122c-.502.2-.353.35.38.38.664.027 1.036-.121.827-.33-.105-.105-.293-.163-.512-.172zm243.645 2.19c-.404-.035-.853.29-.997.723-.19.573.784.787 3.568.787 4.402 0 5.293-1.21.997-1.353-1.558-.052-3.164-.123-3.568-.158zm22.995 1.01c-.424-.041-.85.635-.85 1.985 0 .572-.041 1.05-.11 1.437a24.437 24.437 0 0 1 1.839-.721c-.022-.334-.04-.57-.06-.885-.074-1.184-.445-1.78-.82-1.816zm-249.99.037c.353 0 .73.018 1.127.06 2.129.222 5.651.403 7.827.403 3.625 0 3.975.12 4.159 1.417.159 1.119.665 1.455 2.405 1.594 1.212.097 2.816.486 3.564.863 1.059.535 1.68.46 2.816-.334 1.485-1.04 4.341-1.404 4.305-.548-.06 1.406-1.725 2.529-3.303 2.227-17.464 1.195-6.416 1.125-15.861 1.079-4.005 0-6.634-1.221-6.634-3.08 0-.31-.709-.74-1.574-.957-3.443-.864-2.24-2.715 1.17-2.724zm258.751.735c-.186.126-.389.277-.835.591.31-.162.617-.333.922-.506l-.087-.085zm-83.639 4.349c.1-.01.222.022.352.103.346.214.63.514.63.666 0 .153-.284.278-.63.278-.347 0-.63-.3-.63-.667 0-.23.11-.364.278-.38zm-117.41.692c-6.737 4.249 8.125.344.475.01a15.4 15.4 0 0 0-.476-.01zm-25.94 1.265c-2.537-.621-.788-3.328 1.764-3.248.17.005.343.023.52.055 1.065.19 6.115.428 11.222.528 8.801.17 9.284.245 9.29 1.44-.146 5.505 11.905.307 5.04-1.02-1.354-.239.164-.421 3.935-.472l7.883.221m0 0c1.742.304 2.311-.81 3.452-.824 8.685-.114 30.664-1.627 31.643-2.178 1.702-.96 17.398-1.423 19.006-.562.682.365 4.123.862 7.647 1.105 5.33.367 6.406.614 6.406 1.47 0 .154.045.338.12.533 1.322-.005 2.645 0 3.968.005l2.87-.002c1.24.077 2.482.132 3.72.233 1.401.114 2.796.282 4.195.412 8.796.815 1.557.099 10.67.925 6.418.581 2.471.324 7.098.585 3.018.12 5.998.664 9.003.924.523.045 1.05.026 1.573.06 1.024.067 2.047.162 3.07.243 2.602.039 5.185.393 7.783.502 1.211.051 2.434-.034 3.644-.075 4.559-.11 9.12-.03 13.68-.022 1.504-.008 3.01-.01 4.514-.007h4.574m24.59-2.23c-1.046.904 1.059-.42 1.527-.707l-.034.01c-.532.114.192-.268.996-.662.074-.053.19-.111.386-.19.354-.17.687-.328.904-.431a25.003 25.003 0 0 1 3.424-1.317 9.44 9.44 0 0 1-.03-.902c.036-2.383.245-2.869 1.239-2.869 1.017 0 1.167.4 1.002 2.67-.013.178-.033.338-.052.5.25-.062.5-.123.752-.183.434-.103.87-.194 1.305-.29.633-.154 1.282-.254 1.897-.468.79-.274 1.56-.607 2.349-.885.186-.065-.363.158-.54.248-1.038.53-.843.45-1.851 1.16 1.947-1.018 3.768-2.328 5.842-3.055 3.112-1.09 4.79-.983 7.55-.981 2.72 0 5.441.003 8.161 0 0 0 2.293-5.066 1.117-8.76l.012.109c-.17-.52-.429-1.019-.51-1.56-.292-1.936-.736-3.89-.604-5.843.025-.377.068-.748.118-1.112 0-.153 0-.3.003-.454.008-1.481.002-2.963 0-4.444v-4.596-4.688-13.261c-.074-1.694.103-3.403 0-5.095-.004-.06-.094-.088-.103-.148-.089-.593-.125-1.193-.188-1.79-.053-.895-.13-1.79-.16-2.686a57.913 57.913 0 0 1 .008-4.174c-.32-.304-.427-.63-.427-1.046 0-.737-.545-2.033-1.212-2.88-1.208-1.537-.632-2.602 1.683-3.194-.004-3.028.016-6.056.024-9.085-.36-1.187-.35-1.215-.751-2.987-.27-1.691-.531-3.376-.693-5.074-.53-.14-1.225-.346-2.2-.64-2.664-.805-9.683-2.759-22.039-6.134-5.29-1.445-8.762-1.672-12.114-.791-1.307.343-1.82.2-2.124-.591-.553-1.44-.397-1.524 4.84-2.616 2.55-.532 4.987-1.258 5.415-1.613.298-.247.633-.348.941-.336.678.026 1.223.595.94 1.335-.694 1.806.657 2.592 2.861 1.666 2.617-1.1 14.803 2.498 17.694 2.956m-73.593-17.374c-1.605 1.398-2.049 1.426-1.936.118-7.422-2.086-11.958-1.399-18.174-3.039-27.121-7.284-27.592-7.463-50.692-14.447-2.597-.937-6.806-1.97-9.353-2.299-6.738-.867-13.403-2.983-14.89-4.727-.693-.812-2.492-1.795-3.998-2.184-2.712-.7-2.735-.731-2.376-3.029.199-1.276.539-3.513.755-4.971.344-2.316.785-2.902 3.478-4.631 4.061-2.606 4.027-3.869-.16-5.991-3.147-1.594-10.773-4.557-18.736-7.416-1.093-.06-1.992-.236-2.991-.497-4.979.663-9.552-2.918-13.87-2.902-3.343-.065-6.68-.784-9.704-2.227a2.532 2.532 0 0 1-.028-.014c-.25-.094-.491-.184-.651-.237-36.287-12.74-31.756-10.736-55.746-18.663-.103-.019-.207-.035-.31-.055-.232-.044-.892-.315-.663-.252.229.063.597.183.973.307 1.764.565-2.945-1.52-4.32-1.806.072.04.145.08.216.124.3.16.807.404 1.284.633.791.326 2.024.858-.7-.194-.03-.011-.073-.024-.108-.035-.222-.055-.525-.14-.68-.17-.572-.135-1.138-.266-1.702-.4-.884.465-1.832.91-2.971 1.429-.864.393-1.767.693-2.65 1.04-2.49.671-4.884 1.63-7.387 2.254-1.082.27-2.27.516-3.422.752-13.62 4.85-35.438 12.47-67.798 23.684-23.22 8.046-21.33 6.996-17.947 9.966 2.302 2.02 2.64 3.133 1.56 5.15-.525.98-.46 1.133.347.823 1.234-.474 4.076 2.083 4.076 3.667 0 1.585.959 1.468 8.353-1.013 3.545-1.189 10.695-3.423 15.89-4.964 5.195-1.542 16.247-4.94 24.56-7.55 8.311-2.612 20.921-6.344 28.021-8.295 7.1-1.95 14.52-4.125 16.49-4.832 1.97-.708 3.882-1.1 4.25-.873.81.501.956 58.022.149 58.52-1.977 1.222-16.091 3.085-17.943 2.37-14.128-5.467-47.704.27-65.543 11.198-4.048 2.48-10.145 4.405-14.048 4.435-2.467.02-3.799 5.24-1.767 6.927.677.562.763 1.088.315 1.925-.339.634-.616 1.99-.616 3.014 0 1.462-.34 1.947-1.574 2.258-2.527.634-2.296 5.597.372 7.979 3.69 3.294 2.185 4.495-6.67 5.32-2.424.226-10.075 1.208-17.002 2.182s-13.062 1.96-13.633 2.19c-.57.23-1.218.125-1.44-.232-.905-1.465 1.306-47.905 2.33-48.93.482-.481 10.435-3.225 24.576-6.773 16.736-4.2 15.56-3.329 15.56-11.524 0-8.33 1.031-8.12-15.563-3.165-24.251 7.241-27.047 7.985-30.042 7.985-1.952 0-12.539 2.86-31.408 8.486-31.956 9.527-33.297 9.875-32.007 8.307.475-.578 1.325-1.056 1.889-1.062.564-.006 2.271-.857 3.796-1.89 1.524-1.032 3.153-1.877 3.62-1.877 1.751 0 .764-1.059-1.511-1.62-1.449-.359-2.592-1.108-2.957-1.94-.587-1.336-4.531-3.08-6.57-2.905-.902.077-46.021 15.092-48.658 16.193-1.218.508-1.921-.318-1.227-1.442.267-.431 7.97-3.333 17.118-6.447 9.148-3.115 20.292-6.956 24.765-8.535l8.132-2.873 7.047 1.385c8.976 1.764 9.058 1.814 7.68 4.705-1.314 2.755-1.319 2.85-.133 2.85 1.711 0 43.102-12.867 45.73-14.216 1.23-.631 2.116-.682 3.463-.198 1.445.518 2.703.353 6.22-.813l4.407-1.46M21.73 100.702c8.85-3.005 12.074-3.494 11.397-1.728-.344.895-2.875 1.707-20.965 6.723-11.75 3.258-12.742 3.726-11.377 5.37m27.673 72.885l4.723-.101c3.272-.073 8.708.314 11.633.828 1.55.273 12.743.57 24.874.66.526.004 1.123.011 1.672.017l-.033-.03c-.191-.167-.77-.24-.851-.254-.081-.014.336.033 2.138.108 1.068.044 2.126.133 3.184.224 11.64.146 26.232.463 35.151.778 10.564.374 25.724.844 33.69 1.047 20.348.517 42.443 1.452 43.042 1.822.277.172 6.575.48 13.995.683 7.42.204 15.899.64 18.842.97 2.944.33 8.133.601 11.53.604 3.956.004 6.037.232 5.788.635-.38.613.62.94 1.889.619.346-.088 5.497-.27 11.446-.404 10.576-.239 13.105.161 10.348 1.637M290.959 1.217c-.328-.112.586.383.91.504 4.621 1.505 1.355.272-.91-.504zm81.497 25.008l.037.01c.14.013.246.023.407.04.08.008.321.024.241.016-.272-.028-.447-.042-.685-.065zM189.808 52.168a6.71 6.71 0 0 0-.756.08c-.822.12-1.612.572-1.755 1.005-.373 1.133 1.429.97 2.415-.218.546-.658.636-.879.096-.867zm328.556 37.767c.84 0 4.414 1.797 4.414 2.22 0 .164-.071.273-.158.242-.086-.032-1.064-.32-2.173-.64-2-.578-3.422-1.822-2.083-1.822zm-230.745.63c.153 0 .277.283.277.63 0 .345-.3.629-.666.629-.367 0-.492-.284-.278-.63.214-.346.514-.63.667-.63zm239.256.282c.278.009.735.22 1.301.648 1.066.806 1.084.921.149.939-.586.01-1.252-.282-1.48-.652-.386-.624-.326-.946.03-.935zm-243.423.347c.713 0 1.296.112 1.296.248 0 .597-1.885.898-2.22.354-.206-.331.21-.602.924-.602zm-4.424.708c.219.009.407.066.512.171.209.21-.163.358-.827.33-.733-.03-.882-.178-.38-.38.227-.09.476-.13.695-.121zm8.306 1.81c.383 0 .548.392.364.869-.183.477-.003 1.197.4 1.6.557.557.507.875-.207 1.327-.517.327-1.135.598-1.374.603-.784.018-1.175-1.153-.52-1.558.352-.218.64-.945.64-1.618 0-.672.314-1.222.697-1.222zm-5.855.675c1.513.04 1.56.102.435.585-1.75.752-2.983.752-2.518 0 .214-.346 1.151-.61 2.083-.585zm-6.454.585c.845 0 1.537.284 1.537.63 0 .346-.867.63-1.926.63-1.124 0-1.765-.263-1.538-.63.214-.346 1.081-.63 1.927-.63zm290.134 1.75c.903.56 2.149 1.54 3.332 2.658.82.776 1.629 1.479 2.316 2.029-.005-.128-.012-.256-.015-.385a15.673 15.673 0 0 1-.31-2.346l-.07-.281c-1.77-.478-3.508-1.092-5.253-1.674zm4.369.261c.189.166.39.317.585.477-.023-.032-.048-.062-.072-.094l-.513-.383zm-291.38.787c.222-.005.416.044.539.167.198.198.208.604.024.902-.442.715-2.15.698-2.15-.021 0-.521.92-1.032 1.587-1.048zm-5.29.98c.346 0 .454.284.24.63-.214.346-.672.63-1.018.63-.347 0-.455-.284-.241-.63.214-.346.673-.63 1.019-.63zm14.131.63c.5 0 .907.284.907.63 0 .346-.583.63-1.296.63-.713 0-1.122-.284-.908-.63.214-.346.798-.63 1.297-.63zm-30.57.846c.733-.016 1.252.105 1.252.323 0 .29-3.367.708-7.48.93-4.115.22-7.94.578-8.502.793-.68.26-1.02.054-1.02-.62 0-.861.963-1.019 6.454-1.055 3.55-.023 7.375-.163 8.5-.31.282-.036.551-.056.796-.061zm17.624 2.384c.285 0 .57.044.787.132.433.174.079.317-.787.317s-1.22-.143-.787-.317a2.19 2.19 0 0 1 .787-.132zm-43.45.579c1.91.041-2.972 2.113-7.556 3.207-6.854 1.636-6.781 1.392.314-1.056 3.464-1.194 6.722-2.163 7.242-2.151zm6.416.054c.101-.011.182.007.235.06.211.21-.278.723-1.087 1.138-1.406.72-1.423.704-.384-.384.449-.47.933-.778 1.236-.814zm47.776 5.583c.367 0 .492.283.278.63-.214.346-.515.63-.667.63-.153 0-.278-.284-.278-.63 0-.347.3-.63.667-.63zm-4.76 1.26c.52 0 .945.283.945.63 0 .346-.426.629-.945.629-.52 0-.944-.283-.944-.63 0-.346.424-.63.944-.63zm3.982 2.261c.634.008 1.37.266 1.37.64 0 .136-.583.247-1.296.247-.713 0-1.13-.271-.924-.602.126-.204.47-.29.85-.285zm-4.432.326c.491 0 .765.187.765.561 0 .346-.921.61-2.047.586-1.715-.037-1.842-.132-.787-.586.87-.374 1.578-.56 2.07-.56zm-4.325 3.787c.219.01.407.067.512.172.209.21-.163.358-.827.33-.734-.03-.883-.179-.38-.38a1.73 1.73 0 0 1 .695-.122zm293.244 5.131c.18.017.252.327.252.962 0 1.52-.327 1.756-.978.702-.233-.377-.108-1 .278-1.386.193-.192.34-.288.448-.278zm-280.842 1.96a.431.431 0 0 1 .244.073c.347.214.63.656.63.982 0 .326-.283.592-.63.592-.346 0-.63-.441-.63-.981 0-.405.16-.657.386-.667zm-6.997 1.736h1.26l-1.26.541c-.693.298-1.826.541-2.519.541h-1.26l1.26-.54c.693-.299 1.826-.542 2.519-.542zm-138.53 3.28c.211-.02.418.077.573.328.194.313-.07.919-.586 1.347-.762.633-.938.594-.938-.206 0-.809.486-1.425.95-1.47zm136.274 3.693c.503-.017.682 1.217.682 4.535 0 3.886-.182 4.775-.973 4.775-1.259 0-1.082-8.871.185-9.29a.37.37 0 0 1 .106-.02zm20.15 0c.503-.018.683 1.209.683 4.499 0 4.395-.81 6.719-1.612 4.628-.643-1.676.005-8.836.824-9.107a.368.368 0 0 1 .105-.02zm-161.123.568c.872-.022 2.49.678 2.49 1.228 0 .811-2.35.742-2.86-.084-.229-.37-.267-.82-.085-1.002.092-.093.254-.137.455-.142zm148.53.004c.218.01.406.067.51.172.21.209-.162.358-.826.33-.733-.03-.883-.18-.38-.38.227-.091.477-.13.695-.122zm-143.8.552c.153 0 .278.283.278.63 0 .346-.3.63-.667.63-.367 0-.492-.284-.278-.63.214-.347.515-.63.667-.63zm7.205 4.408c.346 0 .63.284.63.63 0 .346-.284.63-.63.63a.631.631 0 0 1-.63-.63c0-.346.283-.63.63-.63zm235.663 2.365c.41 0 .856 1.322.981 3.61.113 2.086-.07 3.47-.46 3.47-.867 0-1.444-2.473-1.192-5.107.13-1.353.391-1.973.671-1.973zm-191.584.154c.346 0 .63 1.559.63 3.463 0 1.905-.284 3.464-.63 3.464-.346 0-.63-1.559-.63-3.464 0-1.904.284-3.463.63-3.463zm93.234 3.78c.326 0 .593.282.593.628 0 .347-.442.63-.982.63s-.807-.283-.593-.63c.214-.346.656-.629.982-.629zm-149.14 1.54c.304.05.492.98.492 2.515 0 1.578-.283 2.87-.63 2.87-.346 0-.63-1.116-.63-2.481 0-1.365.284-2.657.63-2.87a.198.198 0 0 1 .138-.034zm-50.285 7.493c.057.008.125.105.2.293.183.455.16.998-.049 1.207-.21.21-.358-.163-.33-.826.018-.459.084-.689.18-.674zm374.284 1.067c1.104 0 2.052.202 2.052.604 0 .346-1.346.625-2.991.62-2.164-.007-2.73-.179-2.047-.62.623-.402 1.882-.604 2.986-.604zm-264.666.186c.1-.01.222.022.352.103.346.214.629.514.629.667 0 .152-.283.277-.63.277-.346 0-.63-.3-.63-.666 0-.23.112-.365.28-.381zm272.423 7.345c.713 0 1.121.283.907.629-.214.346-.798.63-1.297.63-.499 0-.907-.284-.907-.63 0-.346.584-.63 1.297-.63zM79.463 163.61c.346 0 .63.408.63.907 0 .499-.284 1.083-.63 1.297-.346.214-.63-.194-.63-.908 0-.713.284-1.296.63-1.296zm385.974 0c.326 0 .768.283.982.63.214.346-.053.63-.593.63-.54 0-.981-.284-.981-.63 0-.347.266-.63.592-.63zm3.778 3.148c.714 0 1.297.284 1.297.63 0 .346-.408.63-.907.63-.5 0-1.083-.284-1.297-.63-.214-.346.194-.63.907-.63zM139.34 168.19c.221.004.444.061.643.185.486.3.438.595-.157.972-1.124.712-1.8.7-1.8-.032 0-.658.652-1.135 1.314-1.125zm290.471 3.195c.057.009.126.105.201.294.182.454.16.997-.05 1.207-.209.209-.358-.163-.33-.827.019-.458.084-.688.18-.674zm-142.827.085c.441-.002.913.263.913.679 0 .153-.441.277-.981.277s-.804-.287-.587-.64c.135-.218.39-.315.655-.316zm-3.547.404c.219.01.407.067.512.172.209.21-.163.358-.827.33-.733-.03-.883-.179-.38-.38a1.73 1.73 0 0 1 .695-.122zm186.446 3.072c.346 0 .63.283.63.629 0 .346-.284.63-.63.63a.632.632 0 0 1-.63-.63c0-.346.284-.63.63-.63zm-383.234.174c.116-.005.277.108.498.329.587.588.587.924 0 1.511-.588.588-.756.42-.756-.755 0-.735.065-1.076.258-1.085zm200.567 2.422c.218.009.406.067.51.171.21.21-.162.358-.826.331-.733-.03-.882-.18-.38-.38a1.73 1.73 0 0 1 .696-.122zm182.982 1.182c.56 0 .844.283.63.63-.214.346-.497.629-.63.629-.132 0-.416-.283-.63-.63-.214-.346.07-.63.63-.63zm-392.308.63c.52 0 .945.283.945.629 0 .346-.426.63-.945.63-.52 0-.945-.284-.945-.63 0-.346.425-.63.945-.63zm208.145.836c.828.039 1.862.57 1.862 1.12 0 .31-.708.562-1.574.562-1.556 0-2.111-.853-1.001-1.54.184-.113.437-.155.713-.142zm-144.662.103c.717.011 1.17.632.625 1.177-.57.569-1.318.499-1.726-.162-.192-.31.066-.722.572-.917.185-.07.364-.1.53-.098zm289.03 1.76c.101-.014.264.22.523.667.484.833.478 1.36-.02 1.858-.506.506-.69.192-.675-1.163.01-.916.04-1.344.171-1.362zm-153.447.778c.486.012.922.209 1.024.615.086.347-.512.725-1.33.84-1.02.145-1.399-.053-1.207-.63.183-.548.89-.84 1.513-.825zm-4.801.3c.346 0 .63.284.63.63 0 .347-.284.63-.63.63a.631.631 0 0 1-.63-.63c0-.346.283-.63.63-.63zm6.99 5a7.638 7.638 0 0 1 1.616.15c.876.172.899.313.15.918-.637.514-1.327.527-2.46.048-1.308-.554-.701-1.083.694-1.116zm184.9 1.998c.665.018 1.338.168 1.886.475.999.558.928.697-.654 1.3-2.717 1.032-4.338.863-4.093-.429.152-.804 1.316-1.309 2.575-1.346.095-.003.19-.003.285 0zm56.906.16c.11.004.211.018.303.04 1.912.48 2.285 4.132.423 4.146-.606.005-1.67.145-2.362.313-1.286.31-3.463-.629-3.463-1.494 0-1.104 3.453-3.069 5.099-3.005zm5.656.03c1.075.052 2.554.965 2.134 1.644-.503.815-2.641.757-3.163-.087-.232-.376-.138-.97.21-1.317.147-.147.362-.22.61-.238.068-.004.138-.005.21-.002zm-209.391 2.258c.54 0 .807.284.593.63-.214.346-.656.63-.982.63-.326 0-.592-.284-.592-.63 0-.346.44-.63.98-.63zm-15.267.128c4.02.023 9.218.652 9.817 1.373-10.08.618-2.96 3.525-5.108 1.805-.518-.433-2.756-.967-4.971-1.187-5.354-.53-6.56-1.217-3.15-1.793.863-.146 2.072-.206 3.412-.198zm-230.623-7.377c-.19-.167-.77-.241-.85-.255-.081-.013.336.034 2.138.108 1.96.082 3.887.314 5.84.427.466.089.933.175 1.399.261.138-.085.452.051.649.043.373-.016.745-.027 1.118-.041 3.212-.078 6.45-.067 9.615.58.478.098.952.21 1.427.323.182.02.558.075.84.151 113.425-8.949 230.101 14.507 329.824 6.089a19.17 19.17 0 0 1 1.836-.088c1.835-.008 3.668.18 5.505.145 2.05-.036 4.1-.022 6.15-.016.957 0 1.914-.003 2.87-.003 1.241.078 2.483.133 3.721.234 1.4.114 2.796.282 4.195.412 8.796.815 1.556.099 10.67.924 6.418.582 2.47.324 7.097.586 3.02.12 5.998.664 9.004.923.523.045 1.05.027 1.573.06 1.024.068 2.047.163 3.07.244 2.602.039 5.184.393 7.783.502 1.211.05 2.434-.034 3.643-.075 4.56-.11 9.12-.03 13.68-.022 1.505-.008 3.01-.009 4.515-.006h4.573m24.59-2.23c-1.045.905 1.06-.42 1.528-.706l-.034.01c-.532.114.192-.268.995-.662.075-.053.19-.111.387-.19l.903-.431c2.038-.975 4.15-1.583 6.336-2.101.434-.103.87-.194 1.305-.29.633-.154 1.282-.255 1.897-.468.79-.274 1.56-.607 2.348-.885.187-.065-.362.158-.539.248-1.038.53-.843.45-1.851 1.16 1.947-1.018 3.768-2.328 5.842-3.055 3.112-1.09 4.79-.983 7.55-.982 6.883 1.032 8.161 0 9.29-8.65-.17-.52-.429-1.019-.51-1.56-.292-1.936-.736-3.89-.604-5.843.025-.377.068-.748.118-1.112 0-.153 0-.3.003-.454.007-1.481.002-2.963 0-4.444v-4.596-4.688-13.261c-.074-1.694.103-3.403 0-5.095-.004-.06-.094-.089-.103-.148-.089-.593-.125-1.193-.188-1.79-.054-.895-.13-1.79-.161-2.686a58.272 58.272 0 0 1 .096-5.892c-.084-4.827-.032-9.658-.02-14.487-.36-1.187-.35-1.215-.75-2.987-.399-2.506-.787-4.998-.846-7.538a15.673 15.673 0 0 1-.31-2.346l-.07-.281c-2.468-.666-4.87-1.598-7.321-2.338m-186.207-69.31c-1.805.055-2.997-.149-4.388-.512l.404.04c.08.009.321.024.241.016-.272-.028-.447-.042-.684-.065l.033.008c-6.872-2.232-18.006-2.63-23.572-5.128l-.027-.014c-.25-.094-.492-.185-.652-.238-38.03-13.125-33.01-11.328-57.28-19.635-.328-.113.586.382.91.503 2.53.837 1.726.836.625.472-.103-.019-.207-.035-.31-.055-.232-.044-.892-.315-.664-.252.23.063.598.183.974.307 1.764.565-2.945-1.52-4.32-1.806.072.04.145.08.216.124.3.16.807.404 1.283.633.792.326 2.025.858-.7-.194-.029-.011-.072-.023-.107-.035-.222-.055-.525-.14-.68-.17l-1.701-.4c-.884.465-1.832.91-2.972 1.43-.864.392-1.767.693-2.65 1.04-2.49.67-4.884 1.629-7.386 2.253-1.39.348-2.982.663-4.403.955m300.453 90.961c.19.166.392.317.586.477-.023-.032-.049-.062-.072-.094l-.514-.383zM92.557 186.77c-.012 0 .004.005.06.015.08.014.16.025.239.039l-.195-.046a1.005 1.005 0 0 0-.104-.008zm.299.054c.31.074.622.148.933.22-.048-.04-.158-.079-.288-.114l-.645-.106z" stroke-width=".6297003999999999" stroke="#000" fill="none"/></svg>