<?xml-stylesheet type="text/css" href="../css/main.css"?>
<svg class="animation-element fhlogo" xmlns="http://www.w3.org/2000/svg" viewBox="0 0 51.428 51.376"><path d="M11.431 51.338c-.008-.022-.011-5.804-.007-12.85l.009-12.807 5.658-.008 5.66-.008v-5.601l-5.66-.009-5.658-.008V14.25l5.675-.008 5.675-.008V8.632H5.815v14.23c0 11.343-.009 14.235-.041 14.262-.029.023-.18.02-.484-.011-.52-.053-.736-.092-1.113-.202a74.32 74.32 0 0 0-.344-.099.388.388 0 0 1-.099-.042.902.902 0 0 0-.163-.065c-.125-.04-.624-.287-.868-.43-.54-.318-1.217-.95-1.612-1.506-.397-.558-.778-1.405-.911-2.027l-.068-.312C0 31.918 0 31.947 0 15.822V0h39.932l.008 10.012.008 10.012-.074.02c-.094.025-5.422.026-5.516 0a.196.196 0 0 1-.106-.099c-.027-.058-.037-1.616-.037-5.697V8.632h-5.601V37h5.568l.008-5.659.008-5.659 2.891-.008 2.891-.008v11.368h5.634l.008-14.275.008-14.274.295.005c.398.006.88.092 1.54.272.11.031.51.182.598.227.031.016.116.057.188.09.072.034.209.11.304.168.094.058.182.106.193.106.066 0 .698.517.979.802.345.35.525.57.774.951.49.746.727 1.359.885 2.277.034.198.042 3.851.042 19.114v18.868l-19.991.008c-15.976.007-19.995 0-20.007-.032z" fill="#5d7537"/></svg>