<?xml-stylesheet type="text/css" href="../css/main.css"?>
<svg class="animation-element residential" xmlns="http://www.w3.org/2000/svg" viewBox="0 0 101.017 73.158"><path d="M9.281.073v.002c-.19-.01-.301.092-.494.455-.274.52-1.334 2.757-2.513 5.305-.172.372-.51 1.098-.753 1.612-.242.515-.581 1.24-.754 1.613-.172.372-.558 1.19-.858 1.82-.3.63-.738 1.565-.975 2.08-.237.515-.569 1.23-.738 1.588-.17.359-.455.967-.634 1.352-.179.385-.461.967-.627 1.292-.167.324-.302.662-.302.75 0 .088-.142.321-.316.52-.304.346-.311.376-.196.835l.12.476h3.804l.065.598c.035.33.11 3.243.166 6.475.055 3.233.17 8.007.252 10.61.18 5.625.199 6.326.207 7.958l.007 1.21.01.042v-.007l.006.023.001.01.03.075c.015.056 0-.003.012.074.001.009-.006-.035-.002-.027.006.01.005.025.008.036.003.012.008.023.012.035l.005.027a.505.505 0 0 1 .014.025c.005.015.01.03.017.045.007.053.007.052.004.083.02.059.01.12.01.182 0-.002.002-.007.003-.005.004.012.005.025.007.037.008.05.004.099.003.15-.004.06.007.12-.007.18-.01.043-.025.072-.04.106.053.823.062 2.028.012 2.625 0-.003 0-.007.002-.006.003.005.01.053.01.058.001.013.005.026.003.038v.004a.245.245 0 0 1 .006.048c.003.008.006.01.008.015.006.014.012.029.016.044.005.02.006.041.008.062l-.003.014c.003.018.01.036.009.062a1.051 1.051 0 0 0-.001.097V51.637c.124.191.555.472 1.895 1.401.355.247.904.649 1.218.893.315.244.947.694 1.405 1 .457.306.878.61.936.676.057.065.442.349.854.63.413.283.91.63 1.106.773.196.143.705.502 1.13.797.427.295 1.086.763 1.464 1.04.378.277.923.667 1.21.868.289.2.526.39.527.423 0 .016-.137.047-.321.081.132.062.179.092-.012.03-.017-.005-.033-.012-.05-.018h-.007c.118.047.235.093.352.141l.02.014c.143-.02.277-.037.418-.059 2.566-.383 2.419-.394 3.39.247.452.3.898.591.99.648 1.498.934 1.496 1.276-.044 1.517.107.083.208.167.305.252.414-.046.754-.077.915-.071.152.005.179-.082.167-.533l-.015-.54-1.524-1.01-1.524-1.01-.747.062-.746.063-.549-.417a44.482 44.482 0 0 0-1.522-1.08c-.536-.366-1.355-.932-1.82-1.258a119.24 119.24 0 0 0-1.731-1.183c-.486-.325-.908-.625-.937-.666-.028-.041-.45-.343-.935-.67-.487-.326-1.446-.986-2.133-1.465-.686-.48-1.622-1.13-2.08-1.444-1.129-.776-1.196-.837-1.196-1.073 0-.112-.031-.235-.068-.272-.037-.038-.063-.733-.058-1.546.005-.813-.011-1.51-.035-1.55-.052-.084-.177-6.103-.175-8.443.001-1.162-.033-1.639-.117-1.64-.068 0-.055-.042.03-.096.117-.074.128-.171.05-.44-.167-.574-.078-.845.251-.769.365.084 2.218.658 2.878.891.286.101 1.082.358 1.768.57 1.684.52 3.046.954 4.11 1.309.486.162 1.038.324 1.227.36.466.092.373.274-.246.481-.283.095-.528.241-.545.326-.026.127-.096.136-.39.045-.478-.146-.546-.044-.28.422.265.468.549.637 1.754 1.047.508.172 1.321.461 1.808.642 1.815.674 2.87 1.052 3.172 1.137.172.048.476.155.676.24.682.284.78.321 1.196.45.23.071.932.322 1.561.558 1.433.537 2.784 1.024 3.338 1.202.235.075.656.23.936.342.28.113.71.266.953.339l.442.133v1.786c0 .983.031 4.049.07 6.813l.068 5.025-.285-.072c-.158-.039-.466-.19-.686-.336-.685-.453-1.206-.176-.958.51.151.418.182 6.316.033 6.316-.093 0-2.095-1.33-2.195-1.458-.028-.037-.403-.292-.832-.567-.43-.275-.88-.59-1-.7-.192-.172-.23-.177-.283-.038-.045.116.187.322.844.749.499.323.954.64 1.011.703.116.128 1.816 1.287 2.199 1.498.134.075.273.25.308.39.035.14.099.255.142.255.042 0 .192.105.333.234.77.701 1.812 1.26 2.075 1.114.086-.049.529-.136.983-.194.454-.058.977-.136 1.163-.174.223-.046.338-.03.338.047 0 .064-.018.117-.04.117-.023 0-.503.092-1.067.204-.563.111-1.165.22-1.337.242-.225.028-.322.102-.346.264-.03.209-.226.332-.226.143 0-.046-.383-.339-.85-.65-.468-.312-.921-.637-1.007-.722a1.955 1.955 0 0 0-.338-.26c-.341-.196-1.808-1.224-2.07-1.45-.143-.124-.564-.43-.936-.679-.372-.25-.782-.549-.912-.664-.16-.144-.269-.177-.34-.105-.094.093.745.752 1.583 1.245.108.063.3.209.427.323.126.114.581.449 1.01.743 1.475 1.012 2.965 2.07 3.139 2.231.096.088.54.406.988.707.448.301.884.612.97.691.273.25 1.77 1.275 1.902 1.301.07.014.188.108.264.21.075.1.562.475 1.08.831l.065.045c.125 0 .25 0 .375.002-.449-.329-.372-.373.137-.437a32.058 32.058 0 0 0 1.69-.31 28.74 28.74 0 0 1 1.744-.311c.301-.036 1.002-.18 1.558-.32.556-.142 1.15-.257 1.32-.257.17 0 1.002-.14 1.848-.312l3.078-.625c.846-.171 1.628-.312 1.737-.312.11 0 .857-.135 1.66-.301.804-.166 2.164-.43 3.022-.587.858-.156 2.005-.374 2.548-.484a64.98 64.98 0 0 1 1.612-.306c.344-.058 1.303-.24 2.132-.404.83-.165 1.766-.341 2.081-.392.315-.051 1.11-.199 1.768-.328 4.96-.977 4.918-.981 5.541-.713.02-.013.036-.028.056-.04.066-.036.134-.066.202-.097l-.495-.242.005-2.36c.004-1.743.038-2.373.13-2.408.07-.026.477-.104.906-.173.496-.08 2.176-.366 3.616-.61L73.1 60.6l-.044-.006c-.008-.001-.016-.003-.024-.002-.036 0 .023.002.018.004-.028.01-.105.005-.14.005l-1.233.205c-.292.05-.484.077-.697.11-.124.06-.156.082-.297.089-.026 0-.048-.002-.072-.003a.983.983 0 0 1-.135.037l-.075.03c-.17.031-.081.01.048-.028a.766.766 0 0 1-.113.01c-.055 0-.108.002-.163 0-.008 0-.017 0-.024-.002a2.525 2.525 0 0 1-.421.073l-.093.005c-.25.032-.57.079-.742.11l-.34.06.033-3.106c.033-2.984-.015-3.555-.275-3.295-.087.087-.389-.18-.323-.286.03-.048.055-1.225.056-2.616 0-.503.002-.898.005-1.233a.756.756 0 0 1-.03-.224c-.001-.14.024-.154.008-.112a2.695 2.695 0 0 1-.001-.18c.018-.092.028-.152.04-.203.01-.252.028-.421.054-.543v-.047c-.027-.12-.02-.092-.03-.25.007-.123.005-.085.009-.117v-.002c0 .005.006.01-.002.01v-.015a.57.57 0 0 1 0-.344c-.005-.121.029-.242.058-.359l.008-.019.003-.012c-.01 0-.005-.016.005-.038v-.006.005l.003-.007.006-.031c-.003-.017-.008-.033-.01-.05-.005-.038-.005-.061-.006-.087l-.007-.025c-.025-.139-.018-.149-.013-.273.006-.072.002-.023 0-.113v-.184c0-.027.004-.053.005-.079-.004-.11-.003-.276-.001-.45l-.01-.018c-.005.037-.01.073-.013.11-.002.02-.013-.042-.019-.063a1.879 1.879 0 0 1-.024-.11c-.005-.026-.017-.053-.01-.078.008-.028.019-.056.028-.084.015-.117.03-.24.045-.17.002.008 0 .016.003.023l.013-.037c.042-.655.177-.897.29-.628a1.62 1.62 0 0 0 .013-.037c.018-.054.167-.142.198-.154.022-.009.047-.01.07-.015a.022.022 0 0 0 .006-.002c.1-.026.006-.053-.209-.06-.255-.008-.39-.061-.39-.154 0-.17.332-.231 2.08-.382.716-.061 2.434-.23 3.82-.374 1.385-.145 2.562-.236 2.615-.203.053.033.124-.01.156-.096.089-.23-.787-.206-3.678.099-3.92.412-4.587.452-4.552.267.023-.122.346-.185 1.485-.29.8-.072 2.662-.254 4.138-.402 1.476-.149 2.7-.253 2.722-.231.124.124-.09 8.932-.217 8.932-.078 0-.112.066-.077.155.034.089-.013.183-.11.22-.115.045-.137.104-.07.186.056.066.119.377.14.69l.04.57.019-.58.019-.579 1.222-.184a29.329 29.329 0 0 0 1.404-.234c.206-.056.25 1.584.114 4.255l-.068 1.326h-.389c-.213 0-.75.074-1.19.165-.44.092-.89.143-1 .114-.108-.028-.202.003-.21.068-.006.066-.048-.02-.091-.191-.057-.224-.083-.068-.092.553-.011.778.006.86.17.811.1-.029.416-.082.702-.118.286-.037.906-.139 1.378-.228l.858-.163v-.405c0-.27.054-.426.162-.467.14-.054.152-.217.09-1.157-.06-.89-.049-1.078.062-1.01.111.069.127-.26.084-1.778-.028-1.025-.021-1.583.017-1.24l.07.625.018-.754c.012-.524.058-.755.148-.756.098-.001.094-.023-.008-.09-.102-.064-.129-.33-.104-1.028.019-.518-.002-.92-.044-.893-.043.027-.078.42-.078.874 0 .481-.044.826-.104.826s-.104-.337-.104-.806c0-.532.047-2.172.1-3.765a.213.213 0 0 1 .003-.118l.005-.155V47.417c0-.047.004-.09.011-.131.054-1.593.111-3.023.13-3.041.018-.018.987-.128 2.154-.244 1.167-.116 3.48-.351 5.139-.521 1.659-.17 3.26-.31 3.556-.307.296.002.666-.045.82-.104.4-.152.386-.351.25 3.609-.114 3.326-.275 5.276-.3 3.632-.005-.339-.034-.591-.064-.562-.102.103-.06 2.745.049 3.002.082.195.095.069.055-.53l-.053-.787 1.016-.164c.559-.09 1.04-.134 1.069-.098.194.242-.139 5.115-.351 5.153-1.184.215-1.773.266-1.839.16-.04-.067-.094.003-.125.164-.052.272-.04.28.324.226 1.499-.225 1.366-.23 1.366.063 0 .266-.576.479-1.43.528-.128.007-.234.048-.234.091 0 .113.53.096 1.142-.035.252-.054.461-.069.684-.05l.02-.014h-.002c-.03.016.003-.013.031-.032l.052-.046c-.04-.003.18-.091.099-.059.04-.016.081-.031.121-.048.003 0 .005-.003.008-.005l.017-.01.057-.018c-.412-.246-.5-.553-.053-.695.27-.086.297-.286.368-2.811.034-1.201.09-2.43.122-2.73.056-.506.045-.547-.159-.547-.268 0-.263.388-.063-4.516.087-2.122.169-4.488.183-5.26l.024-1.404.52-.076c.286-.041 1.41-.125 2.497-.186 3.138-.176 3.401-.245 3.647-.97.093-.273.05-.29-.962-.376-.504-.044-1.104-.16-1.333-.26a14.719 14.719 0 0 0-.989-.368c-1.059-.35-2.44-.855-2.86-1.044l-.416-.188.227-5.496c.124-3.023.23-6.414.234-7.535.004-1.121.038-2.397.075-2.834l.067-.796h5.586v-.26c0-.18.057-.26.187-.26.192 0 .58-.686.479-.849-.03-.047-.211-.087-.404-.087-.192 0-.552-.088-.8-.195-.51-.221-2.837-1.314-3.779-1.774a92.414 92.414 0 0 0-1.456-.69 235.895 235.895 0 0 1-3.64-1.715 322.461 322.461 0 0 0-4.11-1.942 331.259 331.259 0 0 1-3.484-1.641c-.286-.139-.988-.47-1.56-.735a237.33 237.33 0 0 1-3.64-1.715 231.63 231.63 0 0 0-4.057-1.913c-.543-.242-.328-.22-9.75-.984L61.9 4.195l-.632-.377c-.348-.207-.657-.377-.687-.377-.03 0-.248-.133-.487-.296-.604-.412-1.32-.87-1.629-1.039-.349-.192-.485-.167-5.563 1.02l-1.35.315-3.59-.308c-1.965-.162-5.393-.45-7.595-.625l-7.906-.627c-2.145-.17-5.445-.429-7.333-.574-1.888-.146-5.165-.403-7.282-.571C13.652.402 9.67.094 9.281.073zm83.932 57.353l-.014.012.019-.015c-.002 0-.003.002-.005.003zm.005-.003l.013-.01.014-.013-.027.023zm.027-.022l.025-.021h-.005l-.02.02zM9.183.347c.043.015 2.25 2.192 4.905 4.838 2.655 2.645 4.869 4.81 4.918 4.81.05 0 1.348 1.257 2.883 2.794 2.899 2.9 2.919 2.928 2.136 2.928-.575 0-.27 1.254.324 1.335.143.02.35.113.46.208.12.104.166.116.116.031-.098-.168.163-.372.265-.207.046.075.353.073.991-.005 1.74-.213 3.265-.114 3.265.213 0 .172-.09.194-.832.194-.486 0-.833.043-.833.103 0 .058-.234.104-.52.104-.286 0-.52-.037-.52-.083 0-.046-.819-.077-1.82-.069l-1.82.015-.022-.79a97.5 97.5 0 0 1-.026-1.15C23.048 15.191 9.172.868 9.023 1.133c-.022.04-.032.178-.02.307.011.129-.019.234-.066.234-.048 0-.081.035-.075.078.03.19-.018.367-.083.301-.07-.07-.808 1.368-.779 1.516.008.04-.148.353-.347.693-.2.34-.363.649-.363.684 0 .036-.238.567-.528 1.179l-.874 1.842a1937.054 1937.054 0 0 1-3.117 6.553c-.961 1.99-1.514 3.18-1.514 3.263 0 .052-.07.123-.156.155a.256.256 0 0 0-.156.22c0 .207.375.207.455 0 .051-.134.269-.155 1.337-.13l1.277.029v1.56l-1.735.016c-.954.01-1.761-.01-1.794-.043-.146-.146-.037-.833.215-1.368l.737-1.57c.255-.543.617-1.316.806-1.716a516.785 516.785 0 0 0 1.678-3.589c.251-.543.602-1.292.78-1.664.177-.372.431-.91.564-1.196l.606-1.3c.2-.43.583-1.249.852-1.82l1.003-2.133C8.91.712 9.108.322 9.183.348zm.779.022c.74 0 4.079.25 13.399.996 2.116.17 5.65.45 7.853.624 9.921.784 12.037.954 15.603 1.258 2.088.177 3.807.332 3.821.344.023.021-.331.103-3.25.749-6.746 1.493-7.506 1.713-8.06 2.331-.03.032-.287.192-.573.355-.286.163-.824.492-1.196.732-.372.239-1.12.716-1.664 1.06-.878.555-1.33.846-1.706 1.1-.063.042-.419.263-.79.49-2.331 1.426-3.332 2.062-3.762 2.392-.152.117-.308.212-.345.212-.038 0-.273.14-.522.312-.25.172-.496.312-.546.312-.05 0-.182.083-.293.184-.111.101-.53.377-.93.614-.4.236-.978.598-1.284.804-.306.206-.595.375-.64.375-.134 0-15.35-15.163-15.283-15.23.01-.01.062-.014.168-.014zm-.66 1.29L10.4 2.757l1.097 1.098-.452.86c-.434.824-.707 1.349-2.396 4.605-1.157 2.23-2.407 4.627-3.283 6.293-.436.83-.872 1.683-.969 1.897l-.176.389-1.326.001c-.73 0-1.326-.025-1.326-.056 0-.032.09-.231.2-.443.11-.211.443-.899.74-1.528.69-1.465 1.076-2.28 1.874-3.953 1.022-2.14 1.84-3.857 2.452-5.149.633-1.338 1.11-2.327 1.918-3.986zm48.58.578c.225-.02.392.06.636.225.229.156.627.4.884.544.258.143.492.29.52.329.03.037.38.249.78.47.401.22.874.51 1.05.643.177.134.357.243.4.243.041 0 .318.155.614.345 1.19.763 1.42.903 1.487.903.039 0 .224.117.412.26.187.143.37.26.405.26.035 0 .32.164.633.364.313.2.6.364.636.364.038 0 .142.066.232.146.09.08.399.274.685.432.286.157.543.319.572.36.028.04.24.175.468.298.658.352 1.016.567 1.369.819.18.128.36.234.4.234.04 0 .273.134.517.299.244.165.766.477 1.16.693.393.216.8.467.906.558.105.09.395.281.644.425.248.144.841.485 1.317.758.475.274.981.584 1.124.689.143.105.845.536 1.56.958.715.423 1.348.806 1.405.851.164.13 2.979 1.823 3.354 2.017.186.097.338.214.338.26 0 .183-1.418.092-1.676-.107-.136-.105-.575-.37-.976-.59-.4-.22-.869-.5-1.04-.621a7.02 7.02 0 0 0-.702-.421c-.215-.11-.39-.236-.39-.28 0-.044-.042-.08-.093-.08-.084 0-1.292-.675-1.676-.936a48.017 48.017 0 0 0-2.132-1.297c-.837-.483-3.61-2.148-3.9-2.343-.422-.281-2.412-1.458-2.467-1.458-.034 0-.208-.11-.385-.244a6.777 6.777 0 0 0-.738-.47 20.44 20.44 0 0 1-1.48-.875c-.242-.156-.471-.283-.51-.283-.038 0-.224-.117-.411-.26-.187-.143-.367-.26-.398-.26-.058 0-.84-.456-1.517-.884a67.414 67.414 0 0 0-1.552-.936c-1.559-.92-2.097-1.28-2.147-1.43-.053-.163-.077-.166-.216-.027a1.102 1.102 0 0 1-.434.226c-.152.038-.544.202-.87.364-.327.162-.658.295-.735.295a.415.415 0 0 0-.24.089c-.055.048-.474.241-.931.428-.458.186-.88.374-.937.417-.057.043-.29.138-.52.21a4.77 4.77 0 0 0-.675.271c-.143.077-.527.255-.853.394l-.592.255-.525-.278c-.6-.318-.642-.403-.241-.496a2.05 2.05 0 0 0 .494-.193c.114-.069.582-.28 1.04-.467.458-.188.88-.377.937-.42.057-.044.29-.139.52-.212a5.7 5.7 0 0 0 .778-.326c.2-.106.402-.193.451-.193.05 0 .393-.14.764-.311.37-.172.709-.312.752-.312.043 0 .373-.143.733-.318.474-.23.756-.348.982-.368zm-1.576.286c.047 0 .08.03.08.077a.116.116 0 0 1-.117.115c-.107 0-.53.177-2.483 1.036-1.112.49-1.947.836-2.011.836-.06 0-.902.374-2.126.945-.359.167-.722.304-.808.304-.086 0-.2.115-.254.256a.562.562 0 0 1-.388.327c-.16.038-.337.105-.394.147-.058.043-.479.232-.937.419-.457.187-.923.403-1.036.48-.113.076-.266.139-.339.139-.073 0-.424.135-.782.3-.358.164-1.072.472-1.587.685-.515.214-1.1.47-1.3.57-.2.1-.551.242-.78.317a3.68 3.68 0 0 0-.624.264c-.114.071-.395.187-.624.258-.229.071-.463.166-.52.211-.058.045-.358.182-.668.304-.31.122-.801.331-1.092.465a95.69 95.69 0 0 1-2.61 1.122c-.285.12-.894.378-1.351.576-1.772.764-2.011.866-3.12 1.33a148.116 148.116 0 0 0-2.497 1.07 4.108 4.108 0 0 1-1.488.36l-.76.046.84-.533a395.78 395.78 0 0 1 1.836-1.156 52.561 52.561 0 0 0 1.325-.85c.18-.125.631-.401 1.003-.613.372-.212.77-.465.884-.561.115-.097.56-.38.988-.628.43-.248.804-.484.833-.524.028-.04.317-.222.641-.404.324-.182.646-.399.715-.482.07-.083.17-.15.224-.15.054 0 .303-.141.552-.313.25-.172.495-.312.545-.312.05 0 .183-.082.294-.182.11-.1.505-.364.877-.586.372-.222.91-.556 1.196-.742 1.836-1.192 2.373-1.506 2.574-1.506.124 0 .79-.136 1.479-.302.689-.165 1.884-.442 2.656-.615l2.81-.631a437.09 437.09 0 0 1 2.652-.587c.686-.15 1.832-.404 2.547-.567.716-.163 1.675-.377 2.133-.476.457-.098.89-.202.962-.228a.137.137 0 0 1 .05-.01zm1.646 1.046c.182-.003.325.089.58.273.223.162.453.315.509.338.12.05 1.298.74 2.026 1.187.28.172.827.498 1.216.727.39.228.784.462.878.52.093.058.398.24.676.405.279.164.623.378.766.475.143.098.588.357.989.576.4.22.798.457.884.528.086.07.39.257.676.415.286.157.543.317.572.356.028.038.426.275.884.525s.88.496.936.546c.058.049.356.239.664.42.309.183.636.379.729.436.092.057.449.265.792.462.343.196.74.435.883.53.478.318 2.397 1.452 2.457 1.452.032 0 .253.134.491.296.58.397 2.553 1.577 2.636 1.577.036 0 .22.117.407.26.187.143.366.26.397.26.031 0 .202.088.38.196.464.282.25.323-.474.09-.92-.297-2.573-.724-2.784-.719-.101.002-.475-.165-.832-.37a238.19 238.19 0 0 1-3.094-1.805 66.02 66.02 0 0 0-1.351-.784 17.439 17.439 0 0 1-1.11-.678c-.238-.164-.458-.299-.49-.299-.03 0-.593-.324-1.25-.721a78.834 78.834 0 0 0-1.793-1.055 8.001 8.001 0 0 1-.707-.427c-.11-.093-1.219-.74-2.348-1.37a8.466 8.466 0 0 1-.676-.405c-.086-.071-1.25-.76-2.618-1.549-.162-.093-.85-.503-1.528-.91-.678-.407-1.263-.741-1.3-.742-.037-.001-.181-.091-.322-.199l-.255-.196.681-.322c.417-.197.64-.295.823-.299zm-46.193.581c.023 0 .044.011.064.028.057.047.08.09.075.144l.024.01a.392.392 0 0 1 .096.077c.031.032.064.062.094.095l.025.027c0 .003-.006-.003-.01-.004a.168.168 0 0 1-.013-.006c.018.01.025.017.029.019.03.013.075.05.127.096.046.026.036.026.075.054.017.013.036.025.053.04a.543.543 0 0 1 .037.043l-.006-.004-.003-.001.042.033c.025.024.049.05.073.076l-.006-.003.019.011a.52.52 0 0 1 .07.057c.008.006.014.006.044.028l.016.014c.02.016.042.03.06.047l.097.096c.03.032.063.06.094.09a.352.352 0 0 1 .044.07c-.002-.003-.011-.011-.01-.007a.06.06 0 0 0 .012.011v.001a.062.062 0 0 1 .012.011c.025.026.05.052.077.075.017.016.035.033.05.051l.025.037c.02.016.03.025.05.048.01.011.028.039.036.054v.005l.03.04c.007.01.012.022.018.033a.29.29 0 0 1 .067.083l.003.007.024.025c.006 0 .017.016.025.024a.27.27 0 0 1 .052.073c.003.006.013.02.008.017.016.015.027.034.04.05.055.03.124.079.215.149.077.059.09.11.054.18l.03.03.092.092.084.084c.033.033.066.064.097.099.017.019.036.032.055.047.14.034.253.134.43.32.387.411.365.53-.116.625-.185.037-.758.199-1.273.359-.515.16-1.357.418-1.872.572a71.027 71.027 0 0 0-2.055.649c-.264.084-.264.086.714-1.815.92-1.786 1.343-2.593 1.573-2.935-.037-.129.027-.217.12-.217.019 0 .037.003.056.01a.116.116 0 0 1 .056-.023zm44.314.139c.035 0 .063.02.087.057.038.06.304.234.59.386s.863.485 1.283.741c.42.256.79.466.824.466.034 0 .135.064.226.143.09.078.374.259.632.401.257.143.631.363.832.49.2.126.855.514 1.456.861.6.347 1.256.735 1.456.862.2.127.856.514 1.456.86 1.23.709 1.377.796 2.944 1.74.618.371 1.16.676 1.204.676.044 0 .264.14.489.31.224.17.442.31.483.311.04.002.498.26 1.017.575.52.314.97.572 1.002.572.032 0 .203.105.38.234.32.233.592.393 2.313 1.364.623.353.878.552.838.656-.044.115.015.106.258-.037.275-.163.327-.167.413-.032.054.086.1.105.1.042.002-.113 1.752.296 2.693.629.25.088.566.161.702.161s.247.044.247.098c0 .06-1.157.09-2.965.078-1.63-.011-2.964-.029-2.964-.04 0-.01.187-.124.416-.253.533-.3.526-.308-1.055-1.16a13.7 13.7 0 0 1-.685-.416c-.242-.156-.47-.284-.505-.284-.036 0-.273-.14-.528-.312-.254-.171-.484-.312-.512-.312-.027 0-.473-.257-.989-.572-.516-.315-.972-.572-1.013-.572-.04 0-.26-.127-.488-.282-.227-.155-.627-.4-.887-.546-.75-.42-1.938-1.11-3.064-1.781a42.99 42.99 0 0 0-1.56-.892c-.286-.149-.543-.304-.572-.343-.029-.04-.216-.162-.416-.272a351.263 351.263 0 0 1-4.577-2.666c-2.472-1.456-1.935-1.42-4.473-.303-1.258.554-1.404.595-1.507.429-.035-.057.114-.18.332-.274a62.29 62.29 0 0 0 1.043-.47c.356-.163.688-.297.736-.297.048 0 .365-.132.704-.294.34-.161.78-.356.98-.433.2-.077.427-.188.503-.246.047-.036.087-.054.121-.053zm-44.175.035c-.002.014-.004.028-.01.045.018.015.035.03.051.047l.012.024c.032-.01.035-.036-.024-.095l-.016-.016-.013-.005zm50.746.182c.366-.006 2.002.119 6.744.51l4.005.33 1.144.545c.63.3 1.565.743 2.08.983 1.716.802 3.114 1.461 3.745 1.766.343.166.998.475 1.456.687 1.448.67 2.995 1.398 3.64 1.715.583.286 1.578.756 4.525 2.137.658.309 1.478.696 1.821.86.733.352 1.744.83 3.329 1.57.629.295 1.425.673 1.768.84.343.166.96.456 1.372.643.411.188.751.376.754.419.007.099-1.5.078-6.131-.084-2.03-.07-4.606-.135-5.721-.143-3.57-.025-4.201-.146-5.409-1.038-.143-.105-.845-.536-1.56-.956-.715-.42-1.347-.802-1.404-.849-.169-.138-4.02-2.442-4.525-2.706a17.336 17.336 0 0 1-.78-.49 35.508 35.508 0 0 0-1.3-.801c-.852-.495-.778-.451-2.341-1.41-.722-.444-1.337-.807-1.367-.807-.03 0-.25-.133-.488-.297a41.03 41.03 0 0 0-2.514-1.528c-.286-.158-.543-.317-.572-.354-.047-.06-.76-.489-1.3-.78-.4-.217-1.096-.712-1.056-.752.006-.006.032-.008.084-.01zm-7.313.838c.248.006.536.16 1.103.518.525.332 1.593.955 2.084 1.217.172.091.499.293.727.45.228.155.444.282.48.282.037 0 .496.258 1.02.572.525.315.979.572 1.01.572.03 0 .259.14.508.312.25.172.485.313.523.313.038 0 .193.088.345.195.283.201.773.487 1.544.9.24.129.574.333.744.453.17.121.35.22.399.22.049 0 .276.127.503.283.228.156.555.359.727.45.775.417 1.043.571 1.092.63.028.035.263.177.52.316.258.139.666.38.908.535.242.155.462.282.49.282.027 0 .513.28 1.082.624.568.343 1.07.624 1.114.624.045 0 .156.067.246.148.151.135.37.265 1.491.888.48.266.486.344.045.504-.38.137-2.43.148-3.447.018-.341-.043-.675-.057-.743-.03-.128.048-1.314-.57-1.376-.717-.02-.046-.122-.082-.228-.082-.107 0-.221-.044-.254-.098-.055-.088-.352-.264-1.71-1.013-.252-.139-.65-.36-.884-.493-.235-.133-.59-.33-.79-.437-.2-.108-.388-.223-.416-.256-.029-.033-.357-.227-.729-.43a89.258 89.258 0 0 1-1.404-.787c-.4-.23-1.056-.594-1.456-.807-.4-.214-.845-.47-.988-.57a9.728 9.728 0 0 0-.78-.454c-.287-.15-.59-.32-.677-.375a229.881 229.881 0 0 0-3.38-1.925 47.904 47.904 0 0 1-1.04-.6 24.069 24.069 0 0 0-1.067-.597c-.461-.236-.573-.416-.257-.416a.846.846 0 0 0 .39-.139c.113-.076.557-.284.986-.46.429-.177.92-.395 1.092-.485.17-.09.305-.138.453-.135zm-5.4.179c.06 0 .11.047.11.104 0 .057-.02.104-.046.104-.025 0-.075-.047-.11-.104-.035-.057-.015-.104.046-.104zm.083.398c.232.006.456.086.703.243.82.519 2.5 1.477 3.64 2.075.344.18.648.362.677.404.028.043.31.207.624.365.315.158.596.316.624.351.029.036.403.247.832.47.43.223.85.462.936.53.086.069.437.277.78.463.694.376.948.519 2.6 1.46.63.357 1.332.755 1.561.883.23.128.72.408 1.092.624.944.548 1.32.763 1.867 1.064.26.143.778.44 1.15.66.371.22.875.501 1.118.625.243.124.442.267.442.318 0 .16-1.594.11-1.832-.056a9.61 9.61 0 0 0-.673-.402c-.252-.139-1.197-.669-2.099-1.177a319.147 319.147 0 0 0-2.132-1.194c-.453-.248-.97-.54-2.99-1.688-.4-.227-.868-.49-1.04-.585-.171-.095-.677-.38-1.122-.635a163.78 163.78 0 0 0-1.249-.706c-.411-.228-1.034-.576-1.997-1.114-.229-.128-.744-.422-1.145-.654-.4-.232-1.008-.571-1.35-.754-.343-.182-.675-.402-.739-.488-.117-.16-.463-.032-2.61.973-.298.138-.603.252-.68.252-.077 0-.232.062-.345.137a6.453 6.453 0 0 1-.777.377c-.314.132-.759.323-.988.425-.229.101-.767.334-1.196.517-1.293.551-2.095.901-2.84 1.24-.388.176-.733.32-.766.32-.06 0-1.242.517-2.29 1-.297.137-.604.249-.682.249a.395.395 0 0 0-.24.096c-.055.053-.353.196-.663.317-.31.122-.802.33-1.092.461-.68.31-1.694.753-3.13 1.37-.629.27-1.198.533-1.264.584-.145.113-.573.136-1.957.106-1.137-.025-1.17-.121-.158-.471a9.63 9.63 0 0 0 .904-.377c.24-.118.5-.215.578-.215a.399.399 0 0 0 .239-.094c.054-.052.403-.22.775-.375.371-.154.915-.392 1.206-.53.292-.137.58-.249.64-.249.06 0 .392-.14.738-.312.346-.171.692-.312.77-.312.077 0 .185-.04.24-.089.054-.049.45-.233.879-.409.429-.175.92-.392 1.092-.482.171-.09.349-.163.394-.163.045 0 .383-.142.75-.313.367-.172.73-.312.807-.312a.397.397 0 0 0 .238-.094c.054-.052.403-.221.775-.375.372-.155.915-.393 1.206-.53.292-.137.568-.25.613-.25.046 0 .275-.091.51-.203a96.629 96.629 0 0 1 3.444-1.48c.286-.112.763-.317 1.06-.456.297-.139.603-.253.681-.253a.402.402 0 0 0 .24-.094c.055-.052.404-.22.775-.372.372-.153.863-.373 1.09-.489.282-.143.523-.213.756-.207zm.075 1.298l.856.506c.471.278.94.537 1.042.575.102.038.354.179.559.312.205.134.567.348.806.476.455.243 1.62.893 2.93 1.635.43.243 1.014.573 1.3.733 1.416.794 1.676.941 1.82 1.034.135.085.779.444 2.516 1.403.21.116.656.365.989.552l1.387.78c.43.242.875.495.987.562.407.243.083.216-.886-.073a56.525 56.525 0 0 0-1.664-.47c-.823-.211-1.36-.425-1.976-.787-.258-.15-1.124-.639-1.925-1.084-.8-.446-1.643-.917-1.872-1.048-.229-.13-.627-.348-.884-.484a197.711 197.711 0 0 1-3.537-1.953c-.086-.054-.46-.265-.832-.47-.372-.203-.957-.528-1.3-.722a54.408 54.408 0 0 0-1.066-.585c-.566-.298-.56-.327.153-.635zm-35.154.51c.416-.011.66.247 1.343.944l3.728 3.803 2.783 2.838v1.1l-1.275.121c-.7.067-2.49.26-3.978.43a902.39 902.39 0 0 1-5.202.572c-1.373.146-3.526.384-4.784.527-1.259.144-2.368.278-2.465.298-.332.069-.284-.077.515-1.594 1.417-2.688 1.563-2.966 1.867-3.548.165-.314.575-1.087.912-1.716.337-.63.722-1.363.854-1.63.267-.536.008-.417 2.685-1.247.573-.178 1.452-.457 1.953-.621.504-.165.815-.27 1.064-.276zm33.315.327c.247.019.679.24 1.843.889.286.16 1.128.625 1.872 1.035.744.409 1.47.81 1.612.893.835.476 1.672.947 2.08 1.171.258.14.61.336.781.433.172.098.733.41 1.248.693s1.077.594 1.248.69c.172.097.523.29.78.431 1.264.688 1.664.927 1.662.992 0 .038-.236.172-.521.298l-.519.228-.274-.255c-.15-.14-.36-.253-.467-.253-.106 0-.193-.047-.193-.104 0-.057-.034-.1-.077-.092-.201.032-.345-.022-.291-.108.032-.053-.117-.153-.332-.223-.215-.07-.429-.19-.474-.268-.046-.078-.15-.142-.229-.142-.187 0-.912-.42-1.017-.588a.189.189 0 0 0-.218-.079c-.075.029-.196-.02-.27-.108a.477.477 0 0 0-.316-.16c-.1 0-.26-.106-.356-.235-.095-.128-.145-.175-.11-.103.084.174-.004.163-.191-.023a.74.74 0 0 0-.293-.182.645.645 0 0 1-.28-.185c-.075-.086-.107-.097-.07-.024.037.073-.135-.005-.381-.173-.247-.168-.484-.284-.528-.257-.043.027-.08.001-.08-.058 0-.059-.233-.208-.52-.331-.285-.123-.52-.264-.52-.315 0-.05-.034-.086-.077-.079-.218.035-.342-.025-.276-.132.045-.073.028-.092-.044-.048-.132.082-.637-.153-.905-.422a.721.721 0 0 0-.384-.194c-.113-.008-.24-.073-.285-.144-.044-.072-.11-.126-.146-.121-.21.028-.28-.003-.221-.098.036-.058.027-.095-.02-.08-.126.037-.761-.266-.761-.365 0-.046-.04-.06-.09-.03-.048.03-.244-.06-.435-.202-.192-.14-.406-.257-.476-.257-.07 0-.341-.162-.602-.361-.523-.4-.476-.402-1.55.087-.297.135-.868.388-1.268.562-.71.308-2.077.905-2.913 1.274-.229.1-.767.334-1.196.517-1.177.504-2.064.89-2.756 1.2a27.72 27.72 0 0 1-1.04.442c-.23.088-.468.2-.53.247-.062.047-.32.158-.572.246-.252.088-.646.247-.875.354-1.282.599-1.609.72-1.809.667-.42-.11-.382-.132 1.86-1.078a99.897 99.897 0 0 0 2.985-1.303c.297-.139.602-.253.68-.253.076 0 .231-.062.344-.137a6.48 6.48 0 0 1 .777-.377c.315-.132.76-.324.988-.426.229-.102.814-.356 1.3-.565l1.457-.623c.314-.135.89-.39 1.279-.567.388-.177.733-.322.766-.322.06 0 1.536-.637 1.99-.859a.378.378 0 0 1 .206-.04zm-.606.875l.497.31c.272.171.964.561 1.536.867a73.61 73.61 0 0 1 1.456.795c.229.132.545.297.702.365.158.07.286.162.286.207 0 .044.094.08.208.08.115 0 .208.042.208.092 0 .05.153.153.339.228a5.7 5.7 0 0 1 .701.36c.2.123.833.474 1.405.78 1.213.65 1.558.837 2.358 1.282.324.18 1.06.585 1.637.9 1.21.66 1.23.7.502 1.014-.3.13-.662.228-.805.218-.42-.028-4.436-.164-6.969-.235-1.287-.036-2.902-.09-3.588-.118-.687-.028-2.793-.073-4.681-.099-3.805-.053-5.716-.176-6.531-.421-2.363-.71-2.617-.809-2.356-.915.14-.057.675-.287 1.19-.511.515-.224 1.076-.467 1.248-.54.171-.073.475-.207.676-.298 1.209-.546 1.554-.696 1.608-.696.033 0 .352-.133.708-.297.664-.305 1.544-.69 2.833-1.242.4-.171 1.102-.476 1.56-.677 1.387-.61 1.66-.725 1.768-.751.057-.014.42-.177.804-.362zm-38.556.545c.073 0-.401.937-2.134 4.212a270.048 270.048 0 0 0-1.682 3.222c-.28.545-.55.991-.602.991-.05 0 .22-.597.6-1.326l1.294-2.47c.33-.63.95-1.826 1.377-2.658.884-1.72 1.03-1.971 1.147-1.971zm23.946 5.141l.624.186c.343.102 1.045.324 1.56.492l.937.306-1.56-.014A69.736 69.736 0 0 1 32 15.515l-1.033-.058 1.033-.42zm29.033.596l1.346.362c2.059.553 2.875.766 2.94.766.033 0 .016.041-.038.092-.057.053-1.134.058-2.544.008-1.344-.046-2.854-.052-3.354-.012-1.068.086-1.122.036-.312-.293.329-.133.672-.306.762-.383.09-.077.221-.14.29-.14.07 0 .303-.09.518-.2zm-34.982.609c.924.01 3.056.062 5.51.137 3.274.099 6.057.179 6.184.177.23-.003.23.002.06.361l-.174.364-1.463-.021c-.805-.012-1.868-.038-2.364-.057-.495-.019-2.529-.067-4.52-.108l-3.62-.074-.075-.363c-.04-.2-.053-.385-.026-.412.007-.007.18-.007.488-.004zm-1.011.018c.061 0 .1.003.108.012.026.026.074.21.107.41l.059.363-.87.073c-.478.04-.969.097-1.09.126-.232.056-.554-.539-.379-.698.085-.077 1.634-.28 2.065-.285zm14.028.383c3.603.007 17.538.445 17.668.585.065.07.385.082.893.036 1.65-.15 11.876-.011 12.051.164.023.023-.03.18-.117.35l-.16.308-1.175-.042c-1.402-.05-7.89-.253-8.04-.251-.056 0-.618.047-1.248.103-.629.056-1.225.105-1.326.108-.123.004-.181.089-.181.265 0 .253-.019.26-.703.244-.386-.009-2.879-.074-5.539-.145-2.66-.072-6.217-.135-7.905-.141-5.037-.017-8.53-.128-8.53-.271 0-.081.31-.148.895-.193 1.687-.13 2.182-.268 2.32-.65.066-.182.181-.383.256-.445.023-.018.327-.026.841-.025zm-17.838.536c.447 0 .525.083.525.251 0 .522.179.786.543.8.187.006.48.051.652.1.254.07.225.079-.156.04-.257-.027-1.802.067-3.432.208l-6.605.576c-2.003.175-3.875.319-4.16.319-.287 0-1.586.107-2.887.236l-2.367.234v-.282c0-.155-.026-.352-.059-.436-.048-.125.118-.165.91-.219.534-.036 2.163-.202 3.622-.37 1.459-.166 3.94-.446 5.513-.62 1.573-.176 3.89-.436 5.149-.58 1.484-.171 2.304-.256 2.752-.257zm7.741.265c.235-.039.248 1.399.314 11.968.042 6.512.092 11.856.113 11.877.02.021.152-.025.291-.102.14-.076.787-.414 1.439-.75.651-.336 1.699-.88 2.328-1.21 1.713-.896 3.23-1.684 5.253-2.729 1.001-.517 2.336-1.208 2.965-1.536.63-.327 1.975-1.025 2.99-1.55l1.846-.955 1.534.166c3.169.342 5.304.592 5.632.66l.339.069-.554.286c-.304.158-1.115.591-1.802.963l-1.776.96c-.291.158-.806.433-1.145.613-.338.18-.873.467-1.188.638-.314.172-1.04.562-1.611.866-.572.305-1.322.707-1.665.895-1.482.808-1.799.976-2.34 1.241-.315.154-.596.315-.625.357-.028.042-.309.2-.623.351-.315.151-.853.43-1.197.621-.343.191-.858.468-1.144.615-.286.147-1.011.536-1.612.863a273.205 273.205 0 0 1-2.809 1.519c-.314.167-.853.458-1.196.646-.343.188-.922.49-1.286.669-.817.403-.343.493-4.07-.78a251.139 251.139 0 0 0-3.485-1.175 33.87 33.87 0 0 1-1.144-.379c-.458-.159-1.137-.39-1.509-.513-.372-.123-1.05-.354-1.508-.513a17.887 17.887 0 0 0-1.219-.382 7.295 7.295 0 0 1-.975-.353c-.324-.143-.649-.26-.722-.26-.074 0-.501-.135-.95-.3a20.646 20.646 0 0 0-1.257-.42c-.652-.178-.595-.23 1.252-1.138l1.694-.833.61.201c.336.111.675.202.754.202.078 0 .569.14 1.09.312.52.172 1.02.311 1.109.311.089 0 .54.116 1 .256.461.14 1.377.402 2.035.582.658.18 1.64.458 2.184.619.544.16 1.234.348 1.534.416.3.069.547.17.547.225 0 .055.039.075.087.045.049-.03.122-2.83.163-6.221.041-3.392.114-6.18.162-6.198.048-.017.083-1.094.08-2.392-.004-1.3-.025-2.069-.047-1.711-.022.357-.083.65-.137.65-.058 0-.11 1.354-.126 3.354l-.03 3.355-.024-4.037c-.013-2.267.015-4.013.066-3.981.05.03.111-1.47.137-3.373.026-1.886.076-3.459.113-3.495.044-.044.082-.08.115-.085zm.45.02l2.276.078c2.304.078 2.748.161 2.748.516 0 .192 1.717.255 9.985.368 3.976.055 8.599.131 10.272.17 2.674.062 3.043.051 3.043-.087 0-.168 1.296-.292 3.048-.292h.833l-.068 1.69c-.037.93-.099 4.957-.137 8.95-.039 3.993-.1 7.278-.137 7.3-.037.023-.298-.071-.58-.21a372.574 372.574 0 0 0-5.114-2.377c-.922-.422-1.085-.447-7.114-1.113l-2.039-.225-.457.26c-.252.143-1.207.647-2.122 1.121-1.784.924-3.776 1.962-5.617 2.93-.63.33-1.659.863-2.288 1.185-.63.322-1.706.876-2.392 1.232l-2.56 1.33-1.311.684-.068-7.192c-.037-3.955-.097-9.245-.134-11.755zm41.585.072c.264.01.469.057.469.147 0 .153.112.164 1.014.1.913-.067 10.74.01 10.74.082 0 .017-.057.155-.126.307l-.126.276-3.54-.09c-3.664-.092-5.18-.087-6.74.02-.884.06-.914.055-1.007-.18-.087-.218-.094-.208-.077.097.013.25.067.338.206.338.103 0 .16.047.124.104-.04.064-.694.095-1.697.08l-3.79-.054c-1.187-.016-2.158-.069-2.158-.116 0-.108 1.547-.222 3.018-.222.612 0 1.366-.047 1.674-.105.528-.1.615-.155.872-.561.099-.156.704-.24 1.144-.223zm13.54.516c.192 0 .412 0 .664.002 1.212.013 3.166.072 6.314.165 4.39.13 8 .249 8.019.265.02.016.005.127-.032.245-.047.144-.145.208-.296.193a71.813 71.813 0 0 0-2.256-.046c-7.941-.085-13.73-.277-13.73-.455 0-.247-.03-.359 1.316-.369zm-56.03.061c.066 0 .103.833.103 2.29 0 1.455-.037 2.287-.104 2.287-.066 0-.103-.832-.103-2.288s.037-2.289.103-2.289zm-.351.033c.02.024.25 20.333.248 21.888-.001.644-.037 1.164-.08 1.156a30.178 30.178 0 0 0-.337-.057c-.144-.024-.682-.175-1.197-.335a50.276 50.276 0 0 0-3.016-.833c-.4-.1-1.056-.28-1.456-.4-2.128-.638-2.64-.784-3.038-.864-.241-.049-.726-.184-1.077-.299-.495-.162-.688-.184-.853-.096-.16.086-.365.071-.847-.065l-1.571-.438c-.515-.143-1.404-.394-1.976-.559a1201.1 1201.1 0 0 0-2.184-.625c-.63-.18-1.45-.419-1.821-.532a76.572 76.572 0 0 0-1.612-.463c-2.573-.708-3.48-.97-3.49-1.004-.026-.09-.403-12.433-.407-13.287l-.004-1.097 3.719-.331c3.883-.346 9.097-.787 14.484-1.225 1.745-.142 3.922-.325 4.836-.405.914-.081 1.669-.139 1.678-.129zm34.609.046c.443.025 1.21.228 1.232.376.03.207.11.225 1.28.286 2.154.114 6.839.115 6.909 0 .035-.058.654-.137 1.375-.177 1.665-.093 1.963.003 1.959.631-.001.23-.07 2.85-.154 5.826-.083 2.975-.152 6.743-.154 8.373-.005 5.254.008 5.2-1.245 5.203-.317 0-1.677.094-3.021.207-3.313.28-3.191.288-4.421-.299a200.67 200.67 0 0 0-2.6-1.207c-.859-.39-1.604-.748-1.656-.795-.082-.074.117-18.286.201-18.38.036-.04.147-.052.295-.044zm-.737.025c.108.005.098 1.577-.096 13.86-.063 3.947-.104 4.548-.292 4.245-.178-.29.203-18.095.388-18.105zm-38.215.012c.094 0 .184.007.248.02.128.024 0 .044-.287.043-.286 0-.39-.02-.233-.045.08-.012.177-.018.272-.018zM4.6 18.006a.036.036 0 0 1 .03.01c.03.031-.012.147-.096.257-.083.11-.152.154-.152.097-.002-.135.139-.355.218-.364zm72.797.18l1.173.045c.645.025 1.235.083 1.31.13.075.046 2.039.101 4.365.122 2.326.022 5.46.069 6.963.104l2.733.065-.059 2.667c-.074 3.375-.469 14.274-.524 14.447-.028.09-.319.13-.975.13-.513 0-2.797.136-5.074.304-2.277.168-4.444.306-4.816.307-.371.001-1.612.074-2.756.162-1.144.089-2.233.161-2.419.162h-.339l.028-2.21.026-2.21 1.975-.082c1.087-.045 2.011-.118 2.056-.163.045-.044.111-2.325.147-5.067.062-4.764.113-5.547.347-5.402.137.084.132 1.816-.013 6.53-.065 2.105-.09 3.856-.053 3.892.09.09 6.474-.19 6.64-.293.14-.087.373-5.111.388-8.38.007-1.498.083-1.89.313-1.63.07.078-.039 3.812-.247 8.54l-.065 1.483h1.751c1.245 0 1.8-.038 1.917-.13.14-.111.703-10.96.574-11.06-.013-.01-.9-.049-1.973-.088l-1.95-.072v.474c0 .269-.049.474-.113.474-.067 0-.099-.176-.08-.442l.033-.442-.466-.024c-.257-.013-1.836-.037-3.51-.052l-3.042-.028v.384c0 .544-.19.594-.228.06l-.032-.444-2.066-.028-2.065-.029.062-.231c.034-.128.062-.624.063-1.103zm-.4.027c.088 0 .1.446.048 1.69-.039.93-.114 4.597-.168 8.149-.053 3.552-.13 7.285-.169 8.295-.039 1.01-.111 1.837-.16 1.837-.048 0-.09-.035-.093-.078-.04-.507.052-5.488.217-11.676.111-4.205.203-7.774.204-7.932 0-.156.055-.285.12-.285zm22.491.43v.001c.454.002.585.034.56.112-.032.096-.377.142-1.216.163-.918.023-1.162 0-1.128-.104.032-.095.377-.142 1.216-.163.23-.006.417-.008.568-.008zm-4.117.045c.214 0 .486.006.827.02 1.508.058 1.895.234.52.235-.473 0-1.098.03-1.39.064-.366.044-.557.025-.61-.062-.115-.184.01-.255.653-.257zm-1.03.22c.01-.004.019 0 .028.009.053.052.003 2.233-.115 5.128-.113 2.77-.264 6.57-.335 8.443-.07 1.874-.17 3.407-.22 3.407-.05 0-.067-.082-.04-.182.029-.1.102-1.937.165-4.082.311-10.719.384-12.647.517-12.722zm-59.696.92v.001c-.702-.004-1.148 0-1.17.014-.154.092-.088 1.474.075 1.565.128.072.156.67.18 3.828.015 2.058.042 4.456.06 5.329l.034 1.586.8-.011c.441-.006 2.018-.064 3.506-.13l2.705-.12.026-5.189c.024-4.539.048-5.205.188-5.308.122-.09.153-.276.13-.79l-.032-.674-3.797-.067a227.71 227.71 0 0 0-2.705-.034zm7.75.115l-.03.747c-.026.618-.004.747.129.747.142 0 .16.582.16 5.201v5.201l1.223-.002c.672 0 2.767-.07 4.655-.154 1.888-.083 3.514-.153 3.615-.154.17-.002.181-.31.181-4.995 0-4.369.02-4.993.156-4.993.124 0 .157-.148.157-.713v-.715l-1.275-.065c-.7-.035-3.006-.074-5.122-.085zm-8.686.11l1.265.068c.695.037 2.31.068 3.588.068h2.324v.936H39.951v2.861c0 1.838-.037 2.86-.104 2.86s-.104-.988-.104-2.756v-2.757l-1.482.023-1.482.023 1.43.031 1.43.032v4.686c0 1.342.01 2.312.002 3.038l.005.025-.005.041v.014l.001.075v.636l-.032.109v.008c-.033.426-.094.684-.203.84.044.077.03.065-.01.012-.229.31-.667.19-1.501.155-.865-.036-1.358-.022-1.267.035.171.108 2.168.129 2.985.03l.545-.065V26.26c0-4.753.003-4.823.209-4.823.205 0 .207.07.207 5.15v5.148h-1.95a80.77 80.77 0 0 0-3.277.069l-1.326.067v-5.216c0-4.302.025-5.218.14-5.218.196 0 .275 1.799.276 6.262 0 3.389.047 3.99.28 3.58.046-.083.225-.17.397-.195l.311-.046-.334-.015-.333-.016-.019-4.655c-.01-2.56-.013-4.783-.008-4.94.01-.275-.01-.287-.506-.287h-.516v-.536zm20.044.032l.068 1.108c.037.61.068 3.168.068 5.684v4.576l2.106-.069c1.158-.038 2.532-.098 3.052-.132l.946-.063.064-4.733c.055-4.052.087-4.76.224-4.91.104-.115.16-.38.16-.752v-.574l-1.108-.067c-.61-.038-2.114-.068-3.344-.068zm14.318.112c-.156 0-.272.003-.335.008l-.454.036-.042 5.335-.042 5.335 1.9-.07c1.046-.038 2.089-.1 2.318-.137l.416-.067.088-4.47c.05-2.459.132-4.486.183-4.505.051-.019.092-.33.092-.69v-.657l-2.002-.073a60.767 60.767 0 0 0-2.122-.045zm-25.416.044l3.666.025c2.017.013 4.193.053 4.837.088l1.17.063v.406c0 .404-.002.406-.416.406-.228 0-.416.047-.416.104 0 .198-7.75.136-7.914-.063-.1-.12-.25-.152-.533-.114l-.394.053v-.484zm-25.01.076c-.016-.016-.469.007-1.006.052l-.977.08.04 1.602c.02.881.068 3.105.103 4.941l.065 3.339.624.119c.344.065.766.124.938.13l.315.01-.036-5.12c-.02-2.818-.05-5.136-.066-5.153zm36.335.08h6.149v.936h-.416c-.265 0-.414.047-.411.13.038 1.214-.116 7.458-.204 8.698a.362.362 0 0 1 .05.341l.025.01c.371.096.384-.04.416-4.446.03-3.948.09-4.901.283-4.4.034.089.024 2.214-.023 4.725l-.083 4.564-.52.068c-.286.039-1.538.074-2.782.079l-2.263.009v-4.785c0-4.184.02-4.785.156-4.785.137 0 .156.578.156 4.577 0 3.916.022 4.577.15 4.577.109 0 .177-.041.221-.17a.37.37 0 0 1 .063-.448c.008-.162.01-.362.011-.616l.002-1.003.078.833c.042.458.057-1.08.033-3.416l-.045-4.247.236-.062c.278-.073-.029-.196-.802-.321-.391-.064-.417-.09-.448-.458zm14.41.113c.464-.002 1.213.015 1.913.045l1.696.073-.031.378c-.03.353-.06.383-.426.431-.216.029-.388.088-.382.131.006.043-.014.371-.045.728-.185 2.127-.177 7.55.008 7.598.204.053-.724.049-2.182-.005l-.915-.034.057-.334c.031-.184.069-2.02.082-4.079.016-2.346.064-3.773.13-3.821.057-.042.525-.087 1.04-.1.831-.02.779-.028-.468-.079l-1.404-.057v-.832l.572-.035c.078-.005.2-.007.355-.008zm-51.243.134c.403.003.46.113.422.442l-.034.3-.859.03-.858.03v-.706l.801-.068c.221-.019.394-.03.528-.028zm-6.344.036l-1.312.073c-.722.04-1.327.086-1.343.102-.016.016.02.938.078 2.048.059 1.11.141 3.002.183 4.203l.076 2.185.779.078c.428.042.826.097.884.121.058.025.262.048.454.053l.348.008-.066-3.407c-.036-1.873-.09-3.6-.119-3.839-.03-.238-.016-.456.03-.484.045-.028.066-.296.045-.596zm66.49.03h3.848v.363c0 .319-.032.364-.26.364-.162 0-.26.059-.26.156 0 .086-.035.156-.078.156s-.08.831-.082 1.847a232.022 232.022 0 0 1-.09 4.836l-.086 2.99h-.352c-.194 0-.352.047-.352.105 0 .057-.234.104-.52.104-.3 0-.52-.047-.52-.111 0-.066-.175-.098-.432-.078-.277.021-.448-.014-.477-.097-.034-.098.199-.13.946-.13.545 0 1.012-.035 1.039-.078.026-.043-.392-.062-.93-.042l-.979.036v-.505c0-.615.207-7.931.241-8.513.021-.36.054-.412.247-.385.122.017.25-.014.283-.068.035-.055-.211-.13-.563-.171l-.624-.072v-.354zm4.717.01c.045.002.105.013.184.029.18.035 1.63.065 3.225.065h2.9v.312c0 .24-.048.312-.203.312-.11 0-.23.047-.266.104-.093.15-4 .09-5.85-.092-.078-.008-.13-.164-.13-.39 0-.275.004-.348.14-.341zm7.037.062l1.013.067c.558.037 1.354.068 1.769.068l.754.001v.298c0 .276-.036.303-.483.364-1.617.222-3.053-.009-3.053-.49zm-79.08.142c.512-.015.6.065.63.316.03.264.016.27-.77.337-1.368.116-1.394.111-1.394-.235v-.303l.867-.071c.278-.024.496-.039.667-.044zm33.208.513c.206 0 .208.07.208 4.837 0 4.387.05 5.333.247 4.603.034-.13.063-2.282.064-4.785v-4.55h7.698v4.111c.004.026.01.055.011.076.007.04-.005.093-.004.127.002.024.001.048.001.073v.122c0 .022-.006.038-.008.059v4.377l-.234.007c-.129.004-.328.05-.442.103-.152.07-.061.089.338.07.3-.013.566.023.59.08.024.057.047-1.99.052-4.55.007-4.065.028-4.655.164-4.655.137 0 .156.606.156 4.827v4.828l-.858.06c-.472.034-2.239.109-3.926.166-1.688.058-3.338.128-3.667.156l-.598.05v-5.095c0-5.026.003-5.096.208-5.096zm35.574.104a.104.104 0 0 0 0 .207.105.105 0 0 0 .104-.103.105.105 0 0 0-.104-.104zm.41 0c-.06 0-.081.046-.046.104.035.057.085.103.11.103.025 0 .046-.046.046-.103 0-.058-.05-.104-.11-.104zm-62.04.017c.046.002.107.01.092.006-.025-.006-.064-.003-.09-.003h-.044c0 .004.008.01.044.02l.02-.01c.237.138.237.058.237.168v.091c0 .013 0 .016-.002.024v.004l.002.02V22.27a.37.37 0 0 1-.005.133 1.489 1.489 0 0 0-.01.07c-.012.09-.007.077-.016.168 0 .012-.004.024-.005.036V26.297c.042.025.06.041.06.115v.162l-.001.024-.001-.006-.002-.015c.004.045.003.013.004.046 0 .01-.001.023-.003.032 0 .002-.004-.007-.004-.005l.003.012c.017.073.03.148.026.223V29.195c0 .052.01.103-.007.154-.01.025 0-.001-.01.052l-.007.028c.114.001.198.004.072.01v.09h-.004a.386.386 0 0 1-.09-.015c0 .003 0 .006-.002.008l-.01.022c.05.012.094.017.102-.014 0 .003.004.004.004.008v.06c0 .097-.193.065-.254.14-.028.033.166.005.115.02-.01.005-.022.009-.034.011-.014.003-.028.004-.043.005-.037-.003-.073-.003-.11-.003h-.509c-.037 0-.047-.005-.08-.02.024.007.04.007.065.004l-.034-.011h-.006l-.028.004h-.003l.004.003c-.002 0-.004 0-.007-.002l-.001-.001c-.011 0-.029.003-.034 0l-.007-.004c.006.014-.052-.013-.086-.03a.13.13 0 0 1-.04-.008l-.052-.022-.009-.003-.022-.015c-.014-.006-.038-.017-.03-.01a.236.236 0 0 1-.094-.06l-.004-.002c-.01-.005-.016-.016-.022-.024l-.003-.004c-.004-.007-.013-.017-.028-.035.008.011.017.023.01.02-.016-.005-.018-.028-.03-.04-.01-.027-.026-.052-.032-.08-.002-.01 0-.021 0-.032a.26.26 0 0 1-.013-.076c0-.018.003-.038.004-.056v-.096-.17-.096-.746c0-.057-.006-.116.014-.17.008-.023.022-.042.033-.062l.006-.01.018-.023V25.77v-.29a.355.355 0 0 1-.017-.09c-.004-.088-.024-.182.003-.269-.003.014-.005.028-.01.042v-.013-.023-.096c-.01.007-.003.004-.008-.022a.423.423 0 0 1-.003-.123l-.001-.05v-.178-.155-.083V23.756c.007-.089.004-.078.02-.166l.011-.065c0-.015 0-.03-.002-.045l-.005-.076.002-.075c0-.037-.003-.049-.007-.09l-.004-.052-.026-.144c-.018-.085-.045-.169-.037-.257v-.751c0-.08.02-.14.05-.181a.18.18 0 0 1 .126-.157l.011-.009c.026-.014.051-.031.08-.04.013-.005.029-.005.044-.005.016 0 .031.003.046.004l.083-.001h.274c.022.004.043.005.064.01l.008.003.04-.003c.007-.009.013-.012.02-.012l.012-.008.001-.002.004-.002-.001.002-.005.008.018-.017c.012-.006.025-.007.037-.01a.097.097 0 0 0-.038.01c.072-.048.082-.063.138-.062h.022c.001-.004.017-.005.042-.004zm-.214.074l-.004.002c0 .001 0 .003-.003.005l.007-.007zm-.007.007l-.003.003h.001l.002-.003zm-.003.003h-.006l-.008.013.007-.001.006-.009c-.01.01-.003.001.001-.003zm-.348 8.105h.004l-.016-.007.012.007zm.92-.219h.002c0-.003.003-.003.003-.007 0-.042-.038-.046-.085-.04l-.008.031c.044-.01.08-.012.088.016zm-.47-7.926c-.014 0-.027.008-.04.011.02 0 .057-.004.077 0 .006-.002.007 0 .013-.004.016-.006-.034-.01-.05-.008zm.037.011a.372.372 0 0 1-.136.03 1.23 1.23 0 0 1-.009.011l.138-.01c.006-.006.013-.01.018-.017.007-.008 0-.012-.011-.014zm50.714.032c.103 0 .124.912.101 4.29l-.029 4.292 1.434-.028c.788-.016 1.585-.053 1.771-.083l.338-.055v-2.03c0-1.327-.036-2.007-.104-1.965-.061.038-.104-.086-.104-.306 0-.26.047-.37.156-.37.133 0 .156-.278.156-1.873 0-1.316.035-1.872.117-1.872.128 0 .028 8.627-.1 8.75-.038.036-.958.092-2.045.127l-1.976.062.065-3.195c.036-1.758.07-3.77.077-4.47.01-.943.047-1.274.144-1.274zm-51.39.042l-.015.004c.003 0 .004.002.007.003l.018-.002-.01-.005zm73.331.032l1.095.062c.603.034 1.107.076 1.122.093.048.056-.312 9.012-.365 9.062-.238.23-2.06.137-2.155-.11-.067-.175.145-7.605.244-8.546zm-1.55.007a.019.019 0 0 1 .02.003c.112.093.097 1.484-.024 5.02l-.17 4.844-2.658.124c-1.462.068-2.855.123-3.095.123l-.438-.001.051-4.291c.055-4.584.11-5.8.261-5.8.118 0 .11.884-.05 5.826-.069 2.145-.1 3.93-.068 3.968.072.083 5.718-.18 5.81-.272.037-.037.103-2.135.149-4.664.045-2.528.106-4.663.136-4.744.03-.08.055-.127.077-.136zm-7.22.012c.154-.053.162.84.056 4.12-.07 2.174-.132 4.427-.137 5.008l-.01 1.057-1.221.063c-.672.034-1.488.081-1.813.103-.326.023-.606.026-.625.008-.018-.018.022-2.014.089-4.436.066-2.421.125-4.743.13-5.157.006-.488.05-.755.127-.755.085 0 .1.355.053 1.275-.035.7-.074 2.959-.086 5.018l-.023 3.745 1.295-.031c.712-.018 1.424-.056 1.581-.086l.286-.055v-1.682c0-2.042.198-8.104.267-8.172a.088.088 0 0 1 .032-.023zm-64.73.004a.1.1 0 0 0-.034.057v.003c.006-.003.012-.003.018-.005a.304.304 0 0 0 .015-.056zm66.304.007h2.594c1.444 0 2.62.042 2.653.094.068.11-.248 9.087-.322 9.162-.041.041-1.022.101-3.293.2-.103.006-.159.056-.124.114.04.063-.121.103-.415.103-.336 0-.458-.036-.407-.119.054-.087-.072-.1-.47-.047-.492.065-.54.054-.49-.115.03-.102.083-1.31.12-2.683.036-1.373.084-2.941.106-3.485.022-.543.042-1.491.044-2.106zm6.771 0c.043 0 .053.526.024 1.17-.154 3.381-.3 8.25-.249 8.297.033.03.696.036 1.474.018l1.414-.035.069-1.37c.038-.755.1-2.857.136-4.673.038-1.817.107-3.303.155-3.303.114 0-.145 9.546-.26 9.633-.01.007-.737.045-1.618.084l-1.602.073.064-1.177c.035-.646.121-2.873.19-4.947.07-2.073.161-3.77.203-3.77zM9.98 21.85v.002h.297l.005.219c.054.02.108.04.16.065v.824c-.001.047 0 .093.003.14 0 .061-.002.124-.014.185 0 .003 0-.01-.002-.009a1.362 1.362 0 0 1-.023.017c0 .006.002.007.002.016v.537l.002.008c.01.056.016.113.019.17.002.045.005.14.005.182l-.001.065.006.038c-.001-.004 0-.009-.003-.012-.002-.002 0 .006 0 .01.005.017.008.034.012.052.004.03.01.059.011.088.003.033 0 .067 0 .1v2.86l.001.004V27.705c.003.02 0 .034.001.05v.025l.001.005.015.068c.003.016 0 .04 0 .063l.001.007.003.012v-.007l.002.007c.004.02.006.036.004.055.005.01.008.016.008.03V28.125l-.003-.007v.012c0 .008.003.012.004.021l-.004.035c.012.038.02.078.019.117v.126c-.005.134.024.326-.234.328h-.05c-.135.05-.263.028-.324-.047-.008 0-.015-.002-.023-.003-.045 0-.09.002-.134-.007l.04.006c.029.004-.059-.003-.059.005-.063-.005-.07-.003-.123-.021-.048.004-.098.009-.146 0-.018-.003-.035-.01-.053-.016a.349.349 0 0 1-.079-.008c-.074.021-.168.003-.292-.025a.222.222 0 0 1-.098-.05h-.004H8.88a.112.112 0 0 1-.076-.022.526.526 0 0 1-.018-.016v-.002l-.004-.005a.933.933 0 0 0-.016-.025c-.018-.06.003.026-.014-.03-.003-.009-.004-.018-.006-.028v.004l-.004-.018c-.004-.03 0-.059 0-.088v-.04a.14.14 0 0 1-.034-.097V26.48l-.002-.02a.163.163 0 0 1-.007-.048c0-.01.002-.02.003-.029v-.158-.206-.137c-.004-.011-.008-.022-.01-.034-.005-.021.004-.049 0-.07v-.016c-.003-.023-.008-.046-.013-.069-.003-.019-.009-.036-.014-.054a.146.146 0 0 1-.007-.047l.002-.023v-.02l-.001.005-.004-.017-.003-.026c-.001-.028.002-.055.002-.083v-.042-.002c-.002-.001-.003-.006-.004-.01-.006-.022-.004-.047-.004-.07.002-.108.001-.216 0-.324v-.18-.055-.511a.725.725 0 0 1-.006-.105l.003-.031v-.012-.002a.195.195 0 0 1-.01-.02l-.012-.028a.404.404 0 0 1-.01-.123v-.05-.002c-.008-.024-.006-.049-.007-.073a.043.043 0 0 0-.002-.01c0-.008 0-.013-.002-.017-.004-.013-.01-.026-.01-.05v-.051a.29.29 0 0 1-.003-.02l-.018-.06c-.009-.036-.01-.072-.016-.107 0-.014-.004-.027-.005-.041v-.004c0-.011-.003-.024-.005-.034-.011-.073.009.053-.01-.05l-.003-.026v-.005c-.002-.014-.01-.027-.008-.042v-.478-.367-.087-.105-.003-.023l.003-.024v-.031c.005-.017 0 .003.001-.034 0-.027.005-.053.014-.078 0-.005-.003-.011 0-.015.017-.022.072-.055.082-.069 0 0 .002 0 .001.001.004 0 .011 0 .018.002l.004-.004c-.006-.001-.006-.003-.01-.003a.108.108 0 0 0-.015.002c-.011-.002-.012-.004-.002-.005.004 0 .001.002.003.003l.032-.007c.01-.012.006-.003.003 0 .008-.008.013-.015.013-.012.097-.027.023-.005.008-.003-.002 0 .003-.002.005-.003l.008-.004.018-.004c0-.026.003-.034.072-.034h.216l.018.003h.015v-.003l.001.001h.016l.014.002c.007 0 .01 0 .018-.002h.316a.03.03 0 0 0 .003 0 .174.174 0 0 1 .02-.008c.013-.004.025-.005.033.003.006.006.01.014.015.02l.017.001h.257a.464.464 0 0 1 .242-.053zm-1.338.105h.001l.007-.007h-.003l-.006.007zm.006-.006l.002-.002a.028.028 0 0 0-.007.002s-.013.006-.003 0h.01zm-.005.006l-.004.004h.003l.003-.004h-.002zm-.004.004l-.007.006.007-.006zm.032-.022a.034.034 0 0 0-.019.012.29.29 0 0 1 .051-.006c-.01-.005-.021-.01-.032-.006zm-.023.02l-.001.003.018.002c.006 0-.008-.002-.017-.005zm62.185.056c-.055-.058-.085 1.202-.075 3.069l.017 3.167.076-3.069c.044-1.78.036-3.11-.018-3.167zm16.66.047c-.075 0-.137 1.43-.28 6.449-.037 1.287-.044 2.317-.013 2.288.03-.029.107-1.83.173-4.004.066-2.174.138-4.129.16-4.343.02-.215.003-.39-.04-.39zm4.159 0l-.757.02-.756.02.719.037.718.037-.068 1.529c-.038.841-.099 2.733-.137 4.203-.06 2.32-.09 2.68-.234 2.718-.109.03-.088.05.06.057.299.016.323-.281.397-4.955zm-11.387.015c-.04.036-.135 2.035-.212 4.442-.078 2.406-.172 4.424-.209 4.484-.036.06-.02.108.036.108.146 0 .209-.932.273-4.056.031-1.517.085-3.272.12-3.901.034-.63.029-1.114-.008-1.077zm-25.064.303c-.013-.05-.022.277-.022.878 0 .8.016 1.142.036.758.02-.383.02-1.039 0-1.456a1.916 1.916 0 0 0-.013-.18zm3.849.187c-.013-.037-.021.377-.021 1.107 0 .972.016 1.356.035.853.019-.503.019-1.3 0-1.768a1.602 1.602 0 0 0-.014-.192zm-7.488 4.295c.004.025.008.115.013.276.018.647.018 1.677 0 2.288-.019.612-.034.083-.034-1.175 0-.944.01-1.462.02-1.389zm7.383.889c-.013-.038-.022.284-.022.864 0 .772.016 1.088.036.702.02-.386.02-1.018 0-1.404a1.264 1.264 0 0 0-.013-.162zm-48.484.034v.001zm5.666.115c-.007.016-.011.032-.017.049-.027.075-.015.097.017.093v-.07zm54.558.455l-.05.593c-.028.326-.013.555.034.508.046-.046.069-.313.05-.593zm-61.162.31c-.006 0 .014.004.018.005h.002a.12.12 0 0 0-.02-.006zm.024.006l.034.01c-.006-.001-.006-.002-.01-.004l-.02-.005h-.004zm-.8.073c.023 0 .048.002.077.01.1.028.568.107 1.04.176.472.07.858.167.858.218 0 .085-.966.117-1.196.04a5.235 5.235 0 0 0-.494-.101c-.251-.042-.39-.122-.39-.224 0-.075.038-.116.105-.119zm7.481.873c-.006-.004.008.013.015.017a.343.343 0 0 0 .04.021l-.055-.038zm.16.066l.012.014c.014.013.035.017.055.02-.035-.018-.066-.035-.067-.034zm.077.019a.115.115 0 0 0 .019.016l.03.01c-.007-.003-.017-.011-.012-.01a.135.135 0 0 1 .022.014c.012.004.022.009.034.012.01.002.02 0 .03-.002-.04-.014-.081-.029-.123-.04zm-.041.012l.002.001c.01.004.023.004.034.006-.01-.005-.023-.006-.036-.007zm-.243.067c.037.002.08.007.133.018.157.03.508.087.78.124.319.044.493.119.493.212 0 .16-.102.164-.962.015-.41-.07-.598-.15-.598-.255 0-.083.045-.118.154-.114zm52.155.2c.056 0 .109.007.144.021.07.029-.012.05-.184.049-.172-.002-.23-.026-.128-.053a.665.665 0 0 1 .168-.018zm18.28.853l-.044.052c.048-.008.078-.023.055-.046-.003-.003-.008-.004-.01-.006zm-.793.393c.085 0 .17.006.234.019.129.025.023.045-.234.045s-.363-.02-.234-.045c.064-.013.15-.019.234-.019zm-30.28 1.782c.196.017.448.13.922.353.443.208 1.063.493 1.377.633.315.14.655.298.755.35.1.054 2.566 1.194 5.48 2.536a820.13 820.13 0 0 1 5.487 2.538c.103.055 1.253.584 2.554 1.175 2.653 1.205 2.797 1.335 1.477 1.335-.94 0-.868.022-2.699-.825-1-.463-2.389-1.09-3.172-1.433a46.487 46.487 0 0 1-1.092-.498 163.24 163.24 0 0 0-3.901-1.783 60.69 60.69 0 0 1-1.092-.499 98.528 98.528 0 0 0-1.508-.687c-.544-.242-1.363-.616-1.82-.83-1.465-.685-2.033-.934-2.132-.934-.053 0-.185-.095-.294-.211-.195-.21-.685-.152-.85.099-.03.045-.287.198-.573.34-.286.142-.731.376-.988.52-.258.145-.843.464-1.3.71-.72.386-1.485.802-4.63 2.518-.314.172-.806.43-1.092.572-.286.144-.543.29-.572.327-.046.058-.936.535-2.288 1.225-.257.132-.528.29-.602.353-.073.063-.377.232-.675.376-.61.293-1.215.619-1.747.938a51.05 51.05 0 0 1-1.605.868c-.686.359-1.295.686-1.352.727-.057.041-.479.275-.936.52l-1.26.674c-.282.152-.71.254-1.249.3a30.75 30.75 0 0 0-1.262.132c-.59.082-.567-.086.052-.376.272-.128.775-.389 1.118-.58.344-.193.882-.473 1.197-.624.314-.151.595-.313.624-.359.028-.046.309-.205.624-.353a27.56 27.56 0 0 0 1.196-.61l1.56-.854c.515-.282 1.194-.65 1.508-.816a79 79 0 0 0 1.197-.651c.343-.191.872-.467 1.175-.613.304-.146.608-.312.677-.367.068-.056.522-.307 1.008-.558.847-.437 1.272-.664 2.653-1.42.343-.187.928-.503 1.3-.701.372-.198.933-.501 1.248-.673.314-.171.83-.448 1.144-.615.315-.166.853-.455 1.196-.642.343-.187.976-.522 1.405-.746.429-.223.954-.513 1.168-.646.252-.156.393-.233.59-.216zm-.067 1.406c.247-.035.75.203 2.938 1.22.828.384 5.144 2.342 5.773 2.618.315.138.807.36 1.093.494.621.29.911.422 4.25 1.944 2.095.956 2.538 1.193 2.34 1.251-.218.065-4.105.457-5.435.55-.448.03-2.489-.353-2.63-.495-.028-.028.057-.109.19-.18.93-.498.724-.534-1.739-.302-1.197.114-2.692.23-3.322.261-.63.031-2.407.173-3.952.317-1.545.143-3.277.282-3.849.31-.572.026-2.327.164-3.9.306-1.574.141-3.212.278-3.641.305l-1.82.112c-.573.036-1.111.08-1.197.1-.2.047-.728-.142-.728-.26 0-.05.2-.189.442-.308.91-.448 1.537-.793 1.659-.915a.448.448 0 0 1 .265-.126c.077 0 .384-.155.682-.344.297-.19.869-.506 1.269-.703.4-.196.744-.392.763-.435a.144.144 0 0 1 .12-.078c.048 0 .407-.18.798-.4.391-.221 1.18-.65 1.751-.954 1.366-.724 1.448-.77 1.509-.83.028-.03.216-.134.416-.234.2-.1.434-.225.52-.28a6.06 6.06 0 0 1 .468-.247c.172-.082.546-.28.832-.44.286-.16.824-.453 1.196-.65.372-.198.769-.424.882-.503.3-.21.485-.18 1.325.207.417.192.921.422 1.122.51.79.347 1.426.63 1.872.831a86.94 86.94 0 0 1 2.109.955c.56.261 1.043.475 1.073.475.03 0 .299.11.595.247.297.136.938.423 1.424.638.486.214 1.142.513 1.456.662.315.15.596.277.625.282.028.005.234.09.456.19.33.147.422.155.493.042.048-.075.088-.101.089-.057 0 .044.107.015.235-.066.13-.08.417-.205.64-.276.335-.106.375-.146.23-.227-.13-.072-.327-.013-.753.228l-.578.326-1.577-.692c-.867-.38-1.62-.735-1.675-.787a.388.388 0 0 0-.23-.094c-.117 0-.95-.36-2.167-.937a89.945 89.945 0 0 0-1.509-.68 313.113 313.113 0 0 1-2.548-1.132c-2.22-.981-2.223-.984-1.586-1.26.243-.106.567-.278.72-.382.08-.054.133-.096.216-.107zM30 34.5a.414.414 0 0 0-.008.072c-.022.344-.08.575-.137.54-.061-.038-.099 1.1-.099 3.014 0 2.86.013 3.075.182 3.073.134-.001.147-.024.049-.087-.156-.099-.169-2.408-.012-2.408.053 0 .085-1.027.074-2.366-.01-1.14-.03-1.89-.05-1.838zm-25.118.043c.184 0 1.405.326 2.175.581.416.138.82.25.896.25.077 0 .566.141 1.087.313.52.172 1.018.312 1.104.312.086 0 .497.111.913.248.416.136.897.279 1.069.317.171.038.71.185 1.196.327l1.924.56c.572.167 1.333.384 1.69.482.812.224.811.231-.104.7-.414.212-.8.38-.858.374-.298-.035-1.012-.231-1.612-.444-.64-.226-1.371-.461-3.796-1.218-.572-.179-1.368-.433-1.769-.565-.4-.132-1.29-.413-1.976-.625-2.157-.665-1.972-.562-2.009-1.122-.017-.27.014-.49.07-.49zm88.9 1.421l.935.338 1.61.58c1.445.515 1.965.724 1.92.769-.068.068-6.435.627-7.172.629-.343 0-2.38.143-4.525.316-4.804.387-11.468.896-13.626 1.04-2.111.141-2.165.133-3.363-.526-.271-.149 5.477-.735 7.081-.722l.338.003v-.622c0-.562.023-.627.234-.67.324-.065 6.22-.471 7.62-.525.63-.024 2.9-.17 5.046-.327zm6.44 2.226c.06.01.033.048-.046.13-.164.17-1.134.264-8.685.851-5.496.427-10.957.87-14.875 1.204-2.002.171-3.664.307-3.692.3-.173-.033-.52-.249-.52-.323 0-.049.316-.089.702-.09.386 0 2.247-.14 4.135-.31 1.887-.17 3.666-.31 3.952-.309.286.001 2.229-.138 4.317-.31 6.627-.543 11.665-.934 12.846-.995.63-.032 1.331-.086 1.56-.12.094-.013.165-.022.218-.027a.53.53 0 0 1 .089 0zm-7.015 1.11v1.808c-.001 1.663-.277 9.353-.337 9.406-.23.203-.933.145-.875-.07.037-.136.098-2.037.136-4.225l.07-3.979h-.251c-.354-.001-2.342.171-6.024.524l-4.94.47c-.973.093-1.788.187-1.81.209-.022.022-.101 2.036-.175 4.474-.074 2.439-.153 4.452-.175 4.475-.023.022-.29.087-.594.145a6.012 6.012 0 0 1-.856.105h-.304l.084-3.199c.046-1.759.085-3.783.085-4.498v-1.3l-.78.03c-.43.017-1.857.15-3.173.295a95.838 95.838 0 0 1-3.563.334l-1.17.07v-.276c0-.2.064-.29.234-.33.244-.057 5.477-.557 6.85-.654.79-.056.792-.057 1.017-.457.124-.22.28-.419.345-.44.27-.09-.018-.393-.375-.393-.887 0-3.163-.715-3.018-.948.03-.05.44-.092.908-.092.469 0 1.835-.096 3.037-.213 1.201-.117 2.933-.256 3.848-.308.633-.036 1.282-.08 1.817-.118l.039-.003.506-.038c.004 0 .013.002.122-.022.107-.024-.086.015-.072.009.097-.047.147-.052.263-.081-.046-.053-.047-.078-.019-.085.049-.01.181.035.315.092.077-.003.154-.002.232-.001h1.411c.125-.01.251-.018.368-.03l.454-.042a.768.768 0 0 1 .313-.084.579.579 0 0 1 .177.044l.004-.108.832-.073c.458-.04 1.582-.125 2.497-.19a58.304 58.304 0 0 0 2.106-.175zm.4.019c.122-.035.112.797-.032 4.5-.227 5.8-.352 7.54-.297 4.142.049-3.06.242-8.564.303-8.625a.065.065 0 0 1 .026-.017zm-82.429.751c-.174.026-.154.275-.111.845.035.472.096 2.356.134 4.186.08 3.834.051 3.69.843 4.107.33.174.883.475 1.226.668.343.192.656.355.695.362.04.007.07-1.135.066-2.536-.005-1.742-.042-2.548-.119-2.548-.072 0-.067-.045.013-.126.14-.139.17-.667.044-.745-.088-.054-.079-.615.034-2.153l.072-.985-.56-.232c-.309-.128-.615-.232-.68-.232-.065 0-.43-.14-.813-.312-.453-.204-.708-.319-.843-.299zm2.792.248c.024-.017 1.061.34 5.593 1.929 1.188.416 1.405.492 2.132.743.343.119.975.343 1.404.497.43.155 1.003.36 1.275.454.663.23 1.344.468 2.158.755l1.612.564c.515.18 1.327.472 1.803.649 1.056.39 1.254.392 5.219.027 1.573-.144 4.194-.382 5.825-.528 1.63-.146 3.099-.292 3.264-.324.264-.05.356.332.133.554-.026.027-4.17.42-5.738.546-.744.06-2.241.198-3.328.308-3.478.353-4.046.36-4.89.055-.4-.144-1.079-.382-1.508-.528-.429-.147-.828-.306-.888-.353-.06-.048-.293-.133-.52-.19-.227-.056-.927-.294-1.556-.528a227.674 227.674 0 0 0-3.172-1.154 29.63 29.63 0 0 1-.885-.337c-.286-.114-.777-.29-1.092-.39-.315-.1-1.04-.354-1.612-.564-.572-.21-1.368-.496-1.769-.636-.4-.14-.875-.323-1.055-.408-.18-.085-.399-.155-.485-.155-.086 0-.47-.14-.852-.312s-.756-.312-.83-.312c-.117 0-.318-.306-.238-.362zm1.566.026c.136-.02.696.16.987.33.098.057.129.105.067.107-.062.002-.138-.022-.168-.053-.03-.03-.16-.075-.286-.1-.416-.08-.63-.169-.63-.263 0-.011.011-.018.03-.021zm-4.218.045a.323.323 0 0 1 .098.028c.104.043.547.208.984.368 1.242.456 1.437.586 1.44.962.004.493-2.53-.552-2.58-1.064-.022-.222-.016-.298.058-.294zm6.06.5a.104.104 0 0 1 0 .207.105.105 0 0 1-.104-.104c0-.057.047-.104.105-.104zm.255.162c.066.003.189.04.318.096.267.116.277.134.074.124-.261-.013-.513-.136-.436-.212.007-.007.023-.009.044-.008zm.734.256c.057 0 .174.046.26.101.085.055.109.1.052.1a.624.624 0 0 1-.26-.1c-.086-.055-.11-.1-.052-.1zm-6.798.05l.002.001c.079 0 .127.044.176.096h.001c.014.004.029.006.041.013.017.01.03.024.046.036l.016.016c.059-.004.148.039.242.132.076.076.189.121.25.101a.077.077 0 0 1 .09.027c.003-.001.004-.003.009-.003l.045.01c.006.002.016.003.02.006l.018.007c-.005 0-.006 0-.01-.002.045.012.027 0 .069.026l.011.007v-.002a.01.01 0 0 1 .005 0c.01.003.02.005.03.01.028.011.032.015.05.028-.011-.014.005.004.015.014a.02.02 0 0 1 .007.005l.015.005c.02.005.044.01.057.021.025.02.036.03.043.04l.007.003a.28.28 0 0 1 .032.004c.03.004.012.004.024.004.022-.003.046.005.068.009l.046.01v.001l.006.001.006.003c.032.011.021.007.068.037.002.002-.005-.004-.005-.007a.22.22 0 0 1 .062.028c.25.093.292.258.306.823l.08 3.198c.03 1.244.035 2.244.016 2.512v.007c.002.005 0 .006.002.01.009.019.018.035.01.024.017.032.038.07.029.106 0 .001-.002-.016-.002-.005a.31.31 0 0 1 .012.102V48.93c.03.03.05.058.05.079 0 .04-.036.075-.088.091-.066.071-.07.056-.165.022-.007-.008-.016-.014-.022-.023l-.014-.028-.014-.014c0-.003-.002-.005-.003-.008-.018-.01-.034-.018-.053-.03-.043.036-.12.034-.199-.044v.003l-.084-.083-.009-.01-.004-.002c-.037-.02-.035-.017-.064-.046l-.01-.011-.003-.001-.006-.007c-.002-.002 0 .005.004.006-.02-.006-.04-.011-.056-.024l-.01-.009c-.02 0-.04 0-.057-.009l-.033-.02c-.004-.001-.007 0-.01-.003l-.033-.007c-.046-.015-.026-.02-.042-.015-.063-.03-.02-.006-.075-.045a.124.124 0 0 0 .011.01l.001.001.009.003c-.009 0-.017-.004-.025-.006l-.054-.028v.003c-.012-.005-.022-.012-.033-.017l-.01-.005c-.025-.007-.03-.006-.065-.03v-.001c-.019-.001-.032-.005-.079-.028l-.013-.01-.023-.01.003.003c-.071-.013-.045-.005-.101-.03a.75.75 0 0 1-.084-.047.172.172 0 0 1-.095-.031c-.013-.008-.023-.022-.034-.033a.274.274 0 0 1-.015-.019c-.014 0-.03 0-.043-.006-.018-.008-.035-.019-.053-.029-.005-.003-.01-.006-.013-.01-.001 0 .015.007-.031-.02-.003-.003.011.008.008.007-.008-.002-.015-.007-.022-.011-.026-.017-.024-.018-.047-.039-.016-.021-.034-.039-.053-.057-.022-.022-.045-.041-.062-.067-.008-.012-.013-.026-.02-.039l-.005-.012c-.004-.014-.006-.028-.009-.043.001.004.004.01.002.012-.003.002-.002-.007-.003-.01l-.005-.027v-.008a.253.253 0 0 1-.027-.104c0-.014.003-.027.005-.04l-.001-.001c-.003-.001-.003-.003-.005-.005-.008-.012-.017-.024-.023-.037a.198.198 0 0 1-.021-.074s.019.07-.003.003l-.006-.012c-.031-.05-.023-.03-.035-.064l-.009-.048v-.273-.074-.092-.082-.079l.003-.061c-.008-.014-.018-.03-.02-.037-.003-.018-.001-.037-.002-.055v-.001l-.005-.017-.003-.024c-.003.006-.005-.011-.007-.017a.215.215 0 0 1-.01-.036c-.003-.02 0-.032.003-.043-.001-.001-.002 0-.004-.007a.206.206 0 0 1-.007-.052v-.023c.004-.021.002-.042.002-.063v-.072-.076-.586-.018c0-.003 0 .006-.002.008 0 0 0-.003-.002-.004l-.007-.037c-.002-.02 0-.032.001-.052V45.8l-.005-.011c-.01-.028-.003-.048-.003-.075v-.09-.096-.123-.683c0-.009-.002-.018 0-.027 0-.015.003-.031.005-.046 0-.018.01-.034.017-.05l-.008-.026a.258.258 0 0 1-.007-.083v-.017c0-.002 0 .003-.002.004a.364.364 0 0 1-.008-.08v-.027l-.002-.006-.003-.022c-.005-.033-.003-.066-.002-.1l-.008-.021-.003-.004a.155.155 0 0 1-.018-.073c0-.008.004-.034.006-.046-.002-.016-.002-.031-.002-.046v-.075-.07-.08-1.307c.003-.023-.002-.048 0-.071a.657.657 0 0 1 .008-.044c.002-.023.012-.044.015-.066 0-.002-.003.006-.003.004a.703.703 0 0 1 .005-.045c.006-.02.002-.032 0-.055l.001-.071v-.06c.002-.017-.002-.034 0-.05.004-.03.007-.036.01-.048 0 .004-.001.003-.002-.014-.001-.018-.003-.022-.003-.04 0-.018.003-.037.003-.056v-.066-.334c-.001-.062.002-.048.081-.134.008-.008.052-.009.06-.01zm7.317.08a.236.236 0 0 1 .13.022c.1.04.464.167.807.282.343.115.975.338 1.404.494 1.148.418 2.38.836 2.912.99.258.073 1.077.354 1.821.622.744.269 1.492.527 1.664.574.33.091 2.119.693 3.05 1.027.304.109.606.25.67.315.214.213-.132.12-2.108-.574a153.83 153.83 0 0 0-2.526-.867 28.16 28.16 0 0 1-1.144-.398c-.298-.113-.8-.29-1.114-.392a7.279 7.279 0 0 1-.832-.323c-.143-.074-.333-.136-.423-.136-.089 0-.464-.121-.832-.268-.368-.147-.776-.288-.906-.314a6.477 6.477 0 0 1-.78-.263 20.195 20.195 0 0 0-1.194-.418c-.358-.111-.65-.252-.65-.313 0-.032.019-.053.051-.059zm-7.135.02l.002.001zm.002.002c-.026-.001.015.009.011.006l-.011-.006zm3.006.027l.051.664c.029.365.105 2.465.17 4.667.066 2.202.16 4.045.21 4.095.098.098.317.228 1.045.62.257.14.772.422 1.144.628.372.206.727.375.79.376.143.003.176-3.295.034-3.383a.217.217 0 0 1-.096-.163c0-.057.054-.07.12-.03.088.054.1-.049.043-.384-.082-.482-.095-3.191-.023-4.894l.042-1.004-.585-.205a73.609 73.609 0 0 1-1.469-.54c-.486-.184-1.017-.36-1.18-.39zm48.896.08c.132 0 .22.012.22.037 0 .036-.153.131-.339.21-.185.08-.417.214-.515.299-.115.098-.275.129-.45.084-.24-.06-.268-.04-.238.17.027.188.11.245.397.271.2.019.856.151 1.457.295 1.363.326 1.883.326 5.512-.007 7.16-.656 6.933-.645 6.709-.338-.117.16-.42.216-1.838.343-.933.083-3.149.293-4.922.465-3.578.347-3.86.344-5.554-.063l-1.185-.285-3.444.32c-4.793.446-10.234.925-12.025 1.058-.83.062-1.66.139-1.847.171-.207.036-.338.016-.338-.052 0-.06-.175-.14-.39-.178-.214-.037-.78-.183-1.255-.325-.476-.142-.941-.229-1.035-.193-.225.087-1.39-.266-1.344-.406.02-.062.535-.143 1.172-.186 1.219-.082 5.573-.423 11.694-.915 7.14-.574 8.1-.642 8.202-.579.056.035.118.023.137-.027.03-.078.824-.17 1.22-.169zm-48.448.307c.194.021.559.155 1.236.418.486.188 1.024.387 1.196.44.262.083.317.159.344.48.039.457-.027.467-.8.116-.307-.14-.602-.254-.655-.254-.053 0-.305-.095-.559-.21-.254-.116-.579-.256-.722-.31-.2-.076-.26-.173-.26-.415 0-.192.025-.285.22-.265zm-2.5.015l.005.003v-.001l-.005-.002zm78.643.702c.415-.008.608.018.588.08-.023.068-.156.131-.296.14-.672.042-3.457.302-6.132.572-1.63.165-3.596.353-4.368.417-.773.064-1.436.15-1.474.19-.066.067-.295 6.143-.295 7.795 0 .495-.04.754-.119.754-.086 0-.1-.338-.053-1.222.035-.672.096-2.612.134-4.31.038-1.697.102-3.14.142-3.205.076-.124 4.096-.619 5.051-.623.29 0 1.576-.114 2.86-.252 1.963-.211 3.27-.322 3.962-.336zm-76.23.252a.35.35 0 0 1 .143.03.24.24 0 0 0 .021.016l.004.001.013.004.01.003c-.004 0-.007-.002-.01-.003l-.002.001c.005.002.01.002.017.006l.003.002c0-.003.003-.007.003-.008.023 0 .046.004.068.01.002 0 .002-.003.004-.003a.48.48 0 0 1 .038.005l.02.003c.063.02.036.013.084.039h.007c0-.001 0-.002-.002-.003a.273.273 0 0 1 .094.034.299.299 0 0 1 .038.022l.025.02.012.01a.24.24 0 0 1 .015.014l.015.013c-.005-.005-.023-.015-.016-.015.01 0 .055.03.062.035.01.007.016.018.024.027l.03.013.037.027c.14.023.3.059.379.102.003.002.006.008.009.011a.173.173 0 0 1 .023.004c.07.022.132.083.19.142.02.011.038.022.058.036l.035.001c.005-.033.01-.054.016-.054.02 0 .25.094.51.208l.005.003.016.005.006.004.443.197.062 1.273c.035.701.075 2.292.09 3.537.018 1.475-.01 2.26-.078 2.259h-.007c.031.085.04.162.033.23.072.059.13.114.13.148 0 .141.006.165-.227.044-.127.108-.35.084-.526-.161-.02-.01-.036-.018-.022-.02a.667.667 0 0 1-.059-.046c-.007-.004-.013-.005-.02-.008-.027-.005-.045-.003-.074-.016-.018-.008-.03-.025-.046-.037l-.007-.006-.006-.002V51c0 .002.007.003.006.005s-.005 0-.007 0c-.011-.005-.01-.007-.017-.009a.595.595 0 0 1-.107-.02c.008.004.004.002.014.005l-.049-.013.035.008c-.1-.03-.05-.008-.138-.049.055-.01-.023.006-.123-.06a.642.642 0 0 1-.11-.1l-.002-.003-.006-.004a.45.45 0 0 1-.105-.038c.003.002.011.005.008.005-.007 0-.013-.003-.02-.005-.002 0-.005-.003-.006 0l.008.001-.051-.006c-.031-.007-.034-.006-.076-.027-.009-.005-.017-.012-.025-.018h-.001a.085.085 0 0 1-.013-.008l-.008-.007a1.097 1.097 0 0 1-.07-.037c-.024-.006-.045-.022-.065-.034l-.004-.001-.013-.008-.002-.002-.004-.002-.017-.012c-.247-.015-.382-.147-.394-.29a.638.638 0 0 1-.063-.256c-.065-.116-.06-.23-.004-.315V49.094l-.003-.021c-.002.007-.004-.013-.006-.02l-.005-.02c.001.006.004.015.001.013-.017-.009-.017-.035-.025-.052 0 0-.001.003-.002.002-.051-.09-.055-.103-.065-.236-.002-.029.006-.057.01-.086.004-.03.012-.043.005-.03l-.002.002c-.008-.05-.003-.105-.003-.156v-.136-.192V47.958c-.007-.023-.019-.074-.021-.085l-.004-.052c-.006-.016-.013-.032-.016-.05-.006-.03-.007-.062-.01-.093.002-.072.006-.143.004-.215v-.179-.184-.752-.178-.171-.21-.086l-.005-.022c0-.06.001-.101.005-.134v-.011h.002c.005-.03.018-.043.034-.052l-.001-.003c-.004-.041.003-.083.006-.125-.013-.02-.03-.17-.015-.052l-.014-.047a.572.572 0 0 1-.013-.074c-.003-.026-.013-.103-.003-.078.014.035.005.076.016.112.004.012.008.016.012.025-.004-.052-.006-.042 0-.116v-.016c-.003.033 0 .074-.01.019-.007-.027-.011-.054-.016-.081-.008-.055-.003-.11.001-.166a.559.559 0 0 1-.059-.238l.003-.021-.005-.023a1.691 1.691 0 0 1-.012-.14c-.004-.013-.01-.026-.013-.04-.024-.088-.005-.177-.007-.266-.002-.05-.001-.098-.001-.147v-.04c0-.007-.001-.004-.003-.015v.005a2.335 2.335 0 0 1-.004-.022v-.025c.002-.007 0-.021 0-.033a.192.192 0 0 1-.01-.061c0-.01.004-.025.003-.035l-.001-.059c-.01-.019-.016-.042-.02-.06 0-.023-.008-.026-.01-.045l-.003-.009-.006-.008c-.007-.013-.015-.026-.019-.04-.004-.019-.002-.038-.005-.056-.001-.01.002.02 0 .03l-.002-.018c-.002-.019-.004-.027-.004-.046v.018c-.002-.008-.005-.015-.006-.023-.002-.011-.002-.023-.003-.034.003-.025.002-.05.002-.075v-.047c0-.024.004-.043.009-.063v-.002-.057-.062-.062c-.018-.014-.032-.029-.029-.049.002-.012.006-.018.008-.028-.052-.06-.026-.09.023-.103.007-.02.022-.037.055-.04zm.188.05l.008.001c-.002-.002-.003-.005-.012 0l.004-.001zm24.286.329c.38.069 3.37 1.137 3.32 1.187-.074.075-2.65.324-4.472.432-.972.058-1.932.134-2.132.17-.491.089-.488.087 1.384-.937 1.17-.639 1.718-.885 1.9-.852zm-27.963.003v.008c0-.002 0-.004.002-.006l-.002-.002zm51.107.176c.023-.008.049.008.078.042.072.083.033 4.218-.107 11.205l-.03 1.537.285-.063c.158-.034.287-.02.287.034 0 .053-.644.2-1.43.327-.787.127-1.513.254-1.613.283-.11.032-.182-.004-.182-.091 0-.107.318-.18 1.222-.28l1.222-.136.038-6.359c.03-5.159.065-6.44.23-6.499zm.505.033a.054.054 0 0 1 .034.002c.071.024.328.095.572.157.467.12.554.354.376 1.016-.054.202-.132.233-.57.233h-.509v-.724c0-.467.027-.663.098-.683zm-1.167.027a.63.63 0 0 1 .17.004c.082.046.028 5.68-.1 10.285l-.062 2.197-.795.126c-.437.07-.912.15-1.055.177l-.26.05V50.18c0-6.04-.002-6.118-.206-6.1a356.864 356.864 0 0 0-5.983.5c-1.516.14-3.677.331-4.802.427-1.125.097-2.091.204-2.147.239-.178.11-.286 12.213-.111 12.35.104.081.64.03 1.963-.184 2.699-.438 3.433-.481 3.433-.203 0 .153-.07.222-.234.231-.816.045-1.346.11-2.783.34-.886.143-1.893.288-2.236.323-.344.035-1.467.195-2.497.355-1.03.161-2.036.3-2.236.31-.2.01-1.05.133-1.886.275-1.735.293-2.412.315-2.82.093l-.287-.155v-5.356c0-4.666.02-5.365.156-5.417.12-.046.156-.246.156-.865v-.805l2.003-.173c1.101-.095 2.634-.225 3.406-.288 1.72-.141 2.029-.25 2.121-.743.08-.429-.173-.377 3.444-.696 1.373-.121 3.971-.355 5.773-.519 1.802-.164 3.557-.306 3.9-.316.344-.01 1.397-.1 2.341-.202.708-.076 1.342-.13 1.634-.14zm29.31.09c-.012.017-.02.124-.021.303 0 .287.019.416.044.288.024-.128.02-.362 0-.52-.008-.06-.017-.082-.024-.072zm-23.143.228v1.044l-.494.058-1.034.123-.54.064-.04-.503-.039-.503-.018.494c-.01.272-.054.49-.097.483a3.36 3.36 0 0 1-.338-.093 2.842 2.842 0 0 0-.639-.093c-.436-.012-.52-.146-.432-.69l.061-.381.531.068c.701.09.974.091 2.117.003zm-48.828.406c-.163.034-.168.206-.125.541.033.264.09 3.57.123 7.346.059 6.517.071 6.873.254 7.021.106.086.582.378 1.059.65.476.272 1.053.656 1.282.854.229.199.457.363.507.365.053.002.061-1.63.019-3.82-.04-2.102-.075-5.542-.076-7.644-.002-3.358-.05-4.188-.217-3.693-.034.102-.08.1-.212-.009-.092-.076-.369-.202-.615-.28-.929-.294-1.903-.75-1.903-.891 0-.187.258-.144.988.163.315.132.83.343 1.144.469.315.125.631.252.703.282.07.03.13-.013.13-.095 0-.162-.422-.366-1.997-.965-.583-.222-.902-.328-1.064-.294zm40.29.046c.036.002.068.01.085.028.034.035-.027.06-.137.055-.12-.005-.146-.03-.063-.063a.284.284 0 0 1 .115-.02zm31.996.075c-.017-.01-.03.075-.03.225 0 .2.022.282.048.182a.854.854 0 0 0 0-.365c-.007-.025-.013-.038-.018-.042zm-32.828.088c.5-.007.847.005.887.045.1.099-.165 18.333-.268 18.446-.051.056-.1-1.252-.11-3.017-.015-2.131-.041-2.754-.084-1.971-.042.765-.074-.026-.096-2.392-.018-1.945-.047-3.467-.066-3.38-.125.58-.106 7.493.022 7.445.114-.044.14.282.14 1.75 0 1.882-.057 2.13-.455 1.976-.093-.035-.17-.013-.17.05 0 .062-.105.112-.233.11-.257-.004-.7.065-1.494.221-.006.004-.028.022-.035.025l.001-.003c-.034.027-.06.07-.102.085-.027.007-.053.015-.08.02-.006.002-.012 0-.018 0h-.447l-.021-.002c-.27.039-.487.056-.542.035-.082-.03-.149-.006-.149.056 0 .064-.112.092-.26.063-.143-.027-.26-.008-.26.042s-.128.087-.286.082a7.756 7.756 0 0 0-.884.065l-.598.074v-2.39c0-1.314.03-4.778.068-7.698l.07-5.308 1.257-.12c2.248-.213 4.76-.515 4.822-.578.273-.273-.325-.265-2.851.035-1.48.176-2.878.332-3.106.348l-.416.027-.063 3.537c-.035 1.945-.07 5.444-.078 7.775-.013 3.777-.033 4.239-.179 4.239-.145 0-.16-.36-.14-3.297.018-2.422-.007-3.308-.096-3.337-.066-.022-.12-.229-.12-.46 0-.381-.02-.413-.234-.36-.129.031-.655.11-1.17.175-.515.064-1.55.207-2.3.317-.75.11-1.465.2-1.587.2h-.222l.001-4.654c0-2.56.03-5.249.068-5.975l.067-1.32.313.062c.24.048.292.03.228-.073-.065-.106.03-.124.452-.083.316.03.535.009.535-.051s.195-.08.469-.05c.257.03.468.016.468-.03 0-.079 1.318-.143 2.641-.128.425.005.568-.024.468-.094-.097-.068.079-.082.531-.044.472.04.613.026.469-.043-.157-.076-.074-.094.338-.075.3.013.546-.003.546-.038 0-.125 2.86-.314 4.359-.334zm.073.454c-.568-.02-1.776.076-4.017.3-1.687.168-3.934.384-4.993.478-1.058.094-2.053.196-2.21.227l-.286.055v1.218c0 .67.03 1.248.067 1.285.037.036.118.032.182-.006.063-.04.221-.058.35-.041.128.016.234-.025.234-.093 0-.087.137-.103.468-.053.257.039.468.03.468-.015 0-.08.417-.115 2.08-.176 1.59-.059 1.62-.062 1.456-.174-.11-.076-.009-.086.353-.036.386.053.49.04.431-.056s.039-.109.401-.055c.329.05.48.036.48-.045 0-.078.138-.095.416-.05.253.04.416.025.416-.038 0-.057.199-.1.442-.095.72.015 3.127-.128 3.38-.2.223-.064.235-.12.235-1.087 0-.561.027-1.094.062-1.184.036-.093-.075-.147-.415-.159zm17.202.078a3.123 3.123 0 0 0-.363.034l-.52.07.546-.016c.514-.014.547 0 .56.245l.015.26.046-.246c.048-.255-.002-.349-.283-.346zm-17.266.107v.934c0 .715.053.923-.397 1.024-.01.008-.02.01-.031.006-.248.052-.627.077-1.245.131-.768.067-2.66.255-4.204.419-1.545.163-3.21.324-3.702.356-.492.032-1.042.088-1.223.124l-.328.066v-.942c0-1.13-.316-.982 2.705-1.264 4.684-.436 7.859-.748 8.139-.8zm16.112.043c-.327.013-1.057.075-1.884.165-1.104.12-2.474.252-3.046.292-.572.04-.957.093-.855.116.044.01.075.029.098.062.019 0 .038 0 .056.003.01-.005.022-.01.033-.013l-.02.011.136-.046c-.02.007.005-.002.024-.004a.559.559 0 0 1 .246.014l.064.018c-.014.003-.055.008-.041.01.039.002.08-.011.118-.004.015.003.028.01.042.013l.124-.004c.256-.008.762-.054 1.214-.104a.873.873 0 0 1 .225-.024l.045-.005a.771.771 0 0 1 .194-.022h.034c.172-.016.35-.029.526-.036.042-.01.076-.016.162-.037.055 0 .077-.002.138.001h.002a1.49 1.49 0 0 1 .236-.023c.056-.019.116-.033.184-.042l-.176-.038.46.017.104-.033c.015-.004.03 0 .046.003a.74.74 0 0 1 .218-.028h.008c.071-.015.12-.026.166-.033.047-.035.209-.048.402-.03l.04.002.052-.01c.012-.003.024-.008.036-.01.018-.005.072-.01.054-.007-.06.013-.057.01-.09.017l-.038.01.038.003.234-.06h.097c.018-.037.105-.067.214-.067.04 0 .071.024.097.058l.056-.007c.022-.006.046-.01.07-.017.018-.009.032-.011.049-.019-.003-.033-.004-.082-.01-.087a.596.596 0 0 0-.182-.006zm-10.736.014c.139.006.246.028.286.068.076.076.061.139-.046.207-.253.16-1.352.127-1.352-.04 0-.136.696-.253 1.112-.235zm.805.005c.099.01.235.076.426.125.578.151 1.586.138 2.158-.028.224-.064.276 9.669.052 9.807-.248.153-2.102.122-2.604-.044l-.495-.165.052-1.515c.029-.833.078-3.01.109-4.838.049-2.897.005-3.37.302-3.342zm10.044.107l-.04.005-.052.012v.002l.073-.012.019-.007zm-55.42.087h.006l.599.23c.257.098.666.268.909.376.242.108.488.196.546.196.022 0 .041.046.058.11a.258.258 0 0 1 .298.04c.017-.027.038-.045.061-.045.057 0 .104.093.104.207 0 .048-.01.091-.023.126.007.041.01.085.01.133V49.2a.34.34 0 0 1 .024.146V50.283c0 .026.004.136-.003.171.004.014.01.027.012.04.01.073.015.106.015.135a.437.437 0 0 1 .047.2l-.002.015c.016.05.03.102.026.156v.165c0 .034 0 .07-.002.103a.727.727 0 0 1-.001.207c-.004.021-.012.042-.02.062 0 .045 0 .09.005.136-.005.035-.005.071-.014.106-.002.01-.007.017-.01.026V51.818c.023.085.04.211.04.358 0 .24-.041.436-.093.463v.11c0 .06 0 .119.002.177 0 .042-.002.083-.005.124 0 .006 0 .015-.002.018.02.072.034.146.029.221 0 .056 0 .113.002.17 0 .055 0 .055-.005.113.02.079.031.158.027.24V54c-.001.043-.007.086.002.128a.778.778 0 0 1-.013.228c-.005.02 0 .063-.013.07v.118c.001.054.002.11-.003.166l.004.012a.783.783 0 0 1 .023.218V55.7c0 .037.005.102-.002.14l-.002-.005c.013.09.01.171-.01.26-.001.012 0 .029-.01.035-.008.005 0-.019 0-.028l-.004.039v.006c-.001 0-.01-.026-.011-.025l.025.13-.009.071a.574.574 0 0 1 .116.378v.359c0 .083 0 .166-.003.25-.001.007.004.017-.002.025-.001.002-.003-.008-.003-.006a.513.513 0 0 1-.005.248 2.644 2.644 0 0 1-.025.064c0 .012 0 .025-.01.029-.002 0 0-.003-.002-.003v.231c.057.04.103.27.103.517 0 .212-.035.403-.08.482l.001.13a3.935 3.935 0 0 1-.004.165c.021.11-.008.226-.012.335-.015.326-.194.47-.362.453l-.014.235-.72-.467c-.417-.272-.67-.497-.603-.539.273-.168-.047-.345-.431-.24l-.378.105.065-.407c.046-.286.028-.408-.06-.408-.098 0-.119-.658-.092-2.808.02-1.545-.003-2.809-.05-2.809-.046 0-.074-1.219-.064-2.709.01-1.49-.01-2.738-.047-2.773-.134-.135-.072-1.928.066-1.873zm53.734.093c-.002 0-.004 0-.006.002l.006-.001zm-.007.002c-.013 0-.027 0-.046.007l-.017.007h.005l.058-.014zm-.667.117l-.016.004-.006.003h.004a.152.152 0 0 0 .018-.007zm-9.058.223c.377-.011.81.05.81.16 0 .162-.074.209-.339.217-.628.02-.926.153-.468.21.215.028.433.007.486-.045.23-.231.32.086.32 1.129v1.084l-.054-.006v.098l-.002.015.049.008-.036 1.479c-.045 1.86-.048 2.426-.125 2.606a6.314 6.314 0 0 0 0 .167v.002l.065.004v1.742l-.315.063c-.374.075-.489.305-.314.63.079.148.104.439.066.775a20.754 20.754 0 0 0-.07 1.576c-.01.957-.027 1.04-.214 1.04-.193 0-.2-.07-.165-1.36.034-1.242.02-1.368-.157-1.462-.169-.091-.221-9.899-.053-10.028.082-.063.29-.097.516-.104zm12.628.575c-.012-.054-.02.412-.02 1.248 0 1.116.015 1.572.033 1.015.019-.558.019-1.47 0-2.029a2.463 2.463 0 0 0-.013-.234zm-55.228.056c-.004-.003-.009.01-.014.024l.017.01-.003-.034zm55.64.085c-.015-.03-.026.13-.026.43 0 .401.018.578.04.394a4.33 4.33 0 0 0 .002-.729.443.443 0 0 0-.016-.095zm-39.716.202c.06.001.097.006.105.014.101.1.158 1.202.063 1.203-.05 0-.512.047-1.027.103-.515.056-1.089.128-1.274.16-.298.051-.34.03-.35-.181-.01-.176-.025-.19-.06-.056-.058.22-.032.22-.663.013-.496-.162-.514-.181-.514-.564 0-.448.095-.49 1.13-.501a21.168 21.168 0 0 0 1.596-.121c.43-.047.815-.074.994-.07zm-6.684.177c.135 0 .158.495.172 3.77.009 2.074.027 3.817.04 3.875.013.057.03 1.467.036 3.133l.012 3.03.468.009c.257.005.468-.028.468-.073 0-.046.14-.062.312-.037.172.026.312.002.312-.052s.14-.077.312-.052c.259.038.464.23.246.23-.037 0-.61.092-1.274.205-.664.113-1.307.197-1.427.187-.307-.025-2.006-1.039-2.012-1.2-.008-.209.295-.273.493-.106.098.084.373.25.612.371.506.257.873.55.811.651-.023.039.073.047.214.021.287-.055.339-.208.101-.299-.106-.04-.156-.207-.156-.523 0-.282.04-.438.104-.399.057.036.104-.004.104-.089 0-.084-.058-.177-.13-.206-.104-.042-.104-.053 0-.06.101-.006.125-.607.11-2.687-.01-1.473-.037-2.41-.057-2.08-.02.328-.082.597-.136.597-.06 0-.1 1.087-.1 2.763 0 1.815-.035 2.74-.103 2.698-.066-.04-.104-1.284-.104-3.386 0-2.146.037-3.323.104-3.323.066 0 .104-.812.104-2.227 0-1.685.032-2.24.13-2.28.104-.042.104-.054 0-.061-.153-.01-.177-.529-.026-.529.062 0 .104-.381.104-.936 0-.763.029-.936.156-.936zm2.653.08v.446c0 .245.067.52.15.61.275.306.283 10.929.005 10.93-.387.004-.483.15-.449.681l.033.505-.728.128c-.4.07-.802.131-.893.135-.184.007-.303-4.07-.303-10.377v-3.049l.234.078c.304.1 1.066.098 1.56-.005zm-3.16.56c.003.02.007.109.012.27.019.643.019 1.696 0 2.34-.018.644-.033.117-.033-1.17 0-.965.008-1.503.02-1.44zm22.082.413c.036.002.067.01.084.028.035.035-.027.06-.136.055-.121-.005-.146-.03-.063-.063a.284.284 0 0 1 .115-.02zm-40.283.164l-.001.01c0 .002 0 .004.002.006l-.001-.016zm22.145.148c.095.008.224.071.398.144l.33.138h.13a.51.51 0 0 1 .038.002l.012-.003.022.002.002-.034 1.04-.114c.572-.062 1.073-.096 1.114-.075.04.02.075 2.51.077 5.53l.004 5.494-.91.13c-.5.072-1.003.148-1.117.169-.115.02-.446-.079-.738-.222l-.53-.26-.068-2.822a272.585 272.585 0 0 1-.069-5.456c0-2.177-.02-2.647.265-2.623zm34.394.186v0zm-56.195.028c-.002-.002 0 .005.003.007 0 0 .002 0 .003.002l-.006-.01zm-.472.008c.069-.069 2.188 1.08 2.348 1.272.176.213.033.196-.467-.055-1.126-.565-1.98-1.117-1.88-1.217zm40.861.074c-.1-.002-1.27.126-2.6.283l-2.418.287v3.604c0 1.983-.03 3.75-.065 3.93-.063.313-.053.324.286.318.439-.007 1.269-.173.949-.19-.322-.016-.297-.22.026-.22.143 0 .26.047.26.105 0 .057.128.099.286.093l.286-.01-.26-.093c-.207-.073-.176-.083.156-.045.229.026.86.001 1.404-.055 1.438-.148 1.66-.2 1.594-.37-.03-.08-.004-.145.06-.145.08 0 .114-.685.114-2.289 0-1.456-.037-2.288-.103-2.288-.135 0-.142-2.462-.005-2.546.057-.035.114.215.135.593.037.649.038.648.058-.153.017-.705-.003-.808-.162-.81zm6.762.003c-.38-.003-5.567.668-5.454.706.112.037 4.277-.446 4.777-.554.06-.013.101-.011.134.006.006 0 .012-.003.019-.003h.08a.112.112 0 0 1 .034-.005h.171a.095.095 0 0 1 .087-.024c.087.017.129.092.145.356.024.024.039.077.04.172v.03c0 .034 0 .067-.006.1.002-.013.004-.112.007-.012-.002.033.004.067-.005.099 0 0 0 .004-.002.005l.007.024-.034.08c-.002.188-.005.393-.012.676-.033 1.337-.019 1.488.13 1.43.15-.057.167.195.167 2.534 0 1.428.023 2.597.052 2.597.028 0 .044-1.79.034-3.978-.01-2.189-.048-3.698-.086-3.355l-.07.624-.017-.754c-.015-.641-.044-.755-.2-.755zm5.321.09l.003.013h.001v-.002a.029.029 0 0 0-.004-.012zm-52.046.023v.001l.003.001c-.001 0-.002 0-.003-.002zm39.764.17l-.068 3.568c-.038 1.962-.083 3.582-.1 3.599-.038.038-1.872.3-3.155.45-1.264.147-1.288.145-1.288-.098 0-.114.054-.208.12-.208.088 0 .108-.887.077-3.406l-.041-3.407.468-.027c.568-.034 3.138-.322 3.632-.409zm-39.298.026H12.867h-.01zm.498.289l.002.004h.003zm49.991.078c-.004.01.015.017.05.022l-.007-.015-.043-.007zm-4.231.015c0 .034.002.056.003.095l.016.054c.003-.01.009-.02.01-.03.006-.037-.01-.074-.024-.108 0-.003-.004-.008-.005-.01zm-54.26 1.225c.004.009.001.015.004.022a.223.223 0 0 0-.002-.021l-.001-.001zm71.768.06c-.015-.028-.026.109-.026.366 0 .343.018.497.042.34.023-.156.02-.437 0-.624a.338.338 0 0 0-.016-.083zm-61.28.025c.087.006.337.144 1.058.533.566.305 1.182.621 1.368.702.186.08.338.204.338.276 0 .205-.334.154-.73-.112-.2-.133-.748-.449-1.22-.702-.472-.253-.859-.518-.859-.59 0-.066-.007-.11.045-.107zM4.89 50.57c.001.004 0 .006.002.01v-.005l-.002-.005zm88.73.131c.083.002.11.022.11.06 0 .056-.083.099-.183.094-.1-.005-.463.019-.806.054-.563.057-.578.054-.156-.033.599-.123.896-.177 1.035-.175zm-89.045.068H4.57c0 .048-.001.097-.007.14 0 .01.002.014.003.023.002 0 .005 0 .007-.002v-.02-.127-.014zm17.757.022l.007.022v-.008a.046.046 0 0 0-.007-.014zm69.513.203c.056 0 .109.008.144.022.07.028-.012.05-.184.048-.171-.002-.23-.025-.128-.052a.66.66 0 0 1 .168-.018zm-74.8.116c.013.013.026.025.041.032.011.005.024.006.036.007l-.007-.012a.214.214 0 0 1-.07-.026zm.05.043c.017.01.034.017.05.033-.004-.004-.01-.014-.014-.022l-.035-.011zm-11.858.183c.047-.047 1.939 1.154 2.054 1.305.029.037.59.43 1.249.875.657.444 1.574 1.074 2.037 1.399 2.279 1.6 4.387 3.059 6.042 4.183 1.07.727 1.3.93 1.054.934-.075 0-.23.025-.344.055-.196.051-.376-.058-2.237-1.358-.2-.14-.785-.558-1.3-.93-.515-.37-1.4-.992-1.967-1.38-.567-.388-1.112-.783-1.212-.878-.1-.095-.549-.417-.998-.715-.448-.299-.863-.596-.92-.662-.057-.066-.619-.467-1.248-.891-.63-.425-1.19-.825-1.248-.89-.154-.173-.717-.516-.805-.49-.089.027-.232-.481-.157-.557zm74.291 1.35c.143.01.072.05-.325.111-.22.034-.634.105-.92.158-1.07.2-1.508.235-1.508.124 0-.06.198-.132.441-.16.244-.027.858-.102 1.365-.167.451-.057.805-.076.947-.066zm-57.264.34l.008.03a.197.197 0 0 0-.004-.023c0-.003-.003-.005-.005-.008zm.023.488c.005.015.007.03.011.046.002-.017.002-.034-.01-.046zm68.694.248c-.014-.032-.024.152-.024.495-.001.458.017.658.04.445a5.202 5.202 0 0 0 0-.832.498.498 0 0 0-.016-.108zm.52.313c-.014-.033-.024.151-.024.494 0 .458.017.658.04.445.022-.213.018-.588 0-.832a.491.491 0 0 0-.015-.107zm-69.214.59l.003.009v-.006l-.003-.002zm42.013.203c.162.004.298.095.235.197-.043.07-.004.086.104.045.096-.037.174-.022.174.034 0 .055.118.1.263.1.145 0 .414.06.598.134.358.144 2.467-.099 2.301-.265-.042-.042.004-.076.103-.076.099 0 .15.047.115.104-.035.057.008.103.098.103.565 0-.02.196-1.008.337-1.506.216-1.44.22-2.445-.16-.867-.33-.984-.418-.701-.526a.429.429 0 0 1 .163-.027zm-.163.603l.623.201c.343.111.741.238.884.283.144.044.448.048.677.011.229-.038.777-.098 1.219-.133l.803-.064-.05 1.48c-.027.814-.078 3.056-.113 4.98l-.062 3.5-.42.066c-.232.037-.461.093-.51.123-.167.103-1.44.134-1.44.035 0-.054-.058-.098-.13-.098-.073 0-.3-.09-.503-.198a5.066 5.066 0 0 0-.778-.321l-.409-.123.034-2.877c.018-1.583.066-3.775.104-4.871zm26.743.554l-.037.754c-.02.415-.068.76-.109.768-.297.053-.535.098-.827.154-.186.035-.338.124-.338.198 0 .13.12.118 1.118-.108.221-.05.233-.099.213-.91zm-39.121.052c.085 0 .156.047.156.104 0 .057-.07.104-.156.104s-.157-.047-.157-.104c0-.057.07-.104.157-.104zm-.573.118c.048 0 .094.007.13.022.071.029.013.052-.13.052-.143 0-.201-.023-.13-.052a.364.364 0 0 1 .13-.022zm-.636.104c.056 0 .109.008.144.022.07.028-.012.05-.184.048-.172-.002-.229-.026-.128-.052a.66.66 0 0 1 .168-.018zm25.975.058c-.013-.047-.022.256-.022.814 0 .743.016 1.061.036.706.02-.355.02-.964 0-1.352a1.453 1.453 0 0 0-.013-.168zm-26.69.046c.046 0 .094.007.13.021.07.03.012.053-.13.053-.144 0-.202-.024-.131-.053a.363.363 0 0 1 .13-.021zm13.21.169v1.4c0 .77-.032 2.179-.07 3.13l-.067 1.729-.478.059c-.263.032-.934.144-1.492.249l-1.014.189v-1.891c0-1.041.03-2.452.067-3.136l.066-1.242 1.208-.186a64.82 64.82 0 0 0 1.493-.243zm-15.188.026c.115 0 .209.046.209.103 0 .057-.094.104-.209.104-.114 0-.207-.047-.207-.104 0-.057.093-.103.207-.103zm28.15.677l-.058 1.404-.059 1.404-.285-.02c-.158-.01-.287.017-.287.061s-.48.16-1.066.258l-.321.054a1.314 1.314 0 0 1-.352.151c-.082.018-.167.03-.25.035a.924.924 0 0 1-.178-.01l.014.157c.715-.122 1.07-.179 1.79-.302l1.04-.179.006-1.506zm17.44.03c.009-.002-.02.001-.028.005-.006.002-.011.006-.016.009.018-.005.012-.002.044-.014zm-.267.162c-.003.002-.008.003-.01.006h.004l.006-.005zm.157.015c.002 0 .004 0 .007.002h.002a.022.022 0 0 1-.005-.003h-.004zm-3.48.003c-.015.015-.013.014-.03.033l-.065.017-.035.031a.665.665 0 0 0 .102-.032c.062-.026.069-.043.028-.05zm-.149.064c-.057.014-.115.027-.17.045-.013.004-.008.004-.014.006l.08-.01c.029-.007.066-.015.071-.018.012-.007.022-.015.033-.023zm-37.421.13c.168.009.195.05.122.124-.06.059-.356.104-4.083.626-1.03.145-2.621.377-3.537.518-.915.14-1.945.281-2.288.314-.344.033-1.45.196-2.46.363-2.133.352-2.065.347-2.065.156 0-.143 1.111-.395 1.757-.398.15-.001 1.044-.11 1.988-.245 3.379-.478 6.12-.873 8.346-1.202 1.263-.187 1.939-.268 2.22-.255zm36.993.187a1.157 1.157 0 0 0-.128.018c-.157.032-.565.1-.925.158l-.02.004-.07.012-.143.024a.554.554 0 0 1-.247.04c-1.666.267-4.238.702-5.466.925-.775.142-1.548.258-1.716.259-.42.002-.774.106-.774.228 0 .057.167.075.39.042.215-.032.577-.082.806-.112.48-.062 3.29-.558 5.41-.954.8-.15 1.69-.29 1.975-.309.724-.051 1.093-.143 1.093-.27 0-.05-.07-.072-.185-.064zm-36.946.318l-.028 3.239-.028 3.238-.572.06c-.541.057-1.467.218-5.359.933-.916.169-1.758.306-1.872.305-.113 0-.955.137-1.87.305-.915.169-2.25.407-2.965.53-.715.122-1.4.246-1.523.275-.283.067-.38-1.318-.33-4.697l.033-2.184.676-.076c.737-.083 3.235-.434 6.501-.913l4.213-.617a82.022 82.022 0 0 1 2.628-.355zm11.234.599c.17 0 .188.132.199 1.508l.011 1.508h-.517l.005-1.298c.006-1.496.045-1.718.301-1.718zm15.32.205c.296-.003.314.109.26.385-.027.145-.24.225-.97.364-1.395.265-1.716.253-1.716-.068 0-.295-.015-.29 1.544-.562.425-.074.704-.118.882-.12zm1.102.12a.274.274 0 0 0-.114.02c-.083.034-.059.058.062.063.11.005.172-.02.137-.054-.017-.017-.049-.027-.085-.029zm-46.926.075c.368-.016 1.23.3 1.407.601.089.153.592.2.592.057 0-.048.14-.066.313-.04.171.025.312.001.312-.053s.14-.076.312-.052c.171.026.312.002.312-.052s.14-.077.312-.052c.183.027.312 0 .312-.067 0-.061.07-.085.156-.052.086.033.156.008.156-.056 0-.203.296-.122.367.101.094.298.085.302-.953.413-.507.053-1.063.118-1.234.144-.172.025-.455.076-.629.113-.334.072-1.808-.6-1.896-.865-.03-.092.038-.135.16-.14zm-.032.661c.024-.024.347.126.718.333l.674.376 1.438-.208a39.344 39.344 0 0 1 1.569-.21c.104 0 .126 1.162.104 5.637l-.027 5.635-1.352.29c-1.496.32-1.612.336-1.612.21 0-.047-.06-.087-.13-.087-.072 0-.392-.196-.712-.436l-.581-.435-.067-5.53c-.036-3.042-.046-5.55-.022-5.575zm42.13.178l-.017.01h.017zm-47.093.326c.042.002.265.119.494.258 1.303.793 1.368.803 3.152.502.533-.09.983-.146 1-.125.034.04.164 6.954.131 6.954-.01 0-.51.094-1.111.208-1.727.33-2.079.233-3.407-.934l-.338-.296v-3.286c0-1.807.036-3.283.078-3.28zm30.982.355c-.013-.053-.021.297-.022.94 0 .859.016 1.224.036.811.02-.412.02-1.114 0-1.56a1.946 1.946 0 0 0-.014-.191zm4.594 1.215c.085.008.127.053.127.134 0 .106-.094.163-.268.163-.326 0-.29-.244.042-.293a.377.377 0 0 1 .1-.004zm-.185.505c.187 0 .208.07.208.676 0 .372-.01.67-.025.664a26.003 26.003 0 0 0-.472-.18c-.481-.18-.563-.458-.152-.517.181-.025.233-.101.233-.338 0-.235.047-.305.208-.305zm-1.074.744c.047.007.034.038.034.085 0 .111-.608.28-1.092.303-.172.008-.889.132-1.593.274-.705.143-1.384.259-1.509.258-.125 0-.976.137-1.891.305-.915.168-2.483.448-3.485.623-3.42.595-5.356.929-6.969 1.203-.886.15-2.384.408-3.328.573l-2.965.516c-.686.12-1.353.246-1.482.28-.143.038-.234.016-.234-.057 0-.165-.14-.137 5.825-1.155 2.37-.404 4.877-.839 6.865-1.19.83-.146 1.583-.267 1.675-.266.09 0 .302-.065.468-.145.166-.08.816-.226 1.446-.323.629-.098 1.87-.313 2.756-.478.887-.165 2.01-.322 2.497-.35a15.845 15.845 0 0 0 1.91-.26c.748-.154.993-.208 1.072-.196zm.17.494c.303.012.522.067.722.162l.39.185v.663c0 .658.003.664.361.813.957.4 1.408.643 1.408.757 0 .146.966.102 1.56-.07.453-.132 1.144-.137 1.144-.01 0 .094-1.275.424-1.632.422-.104 0-.867.137-1.696.304-2.55.516-3.874.767-4.525.86a39.19 39.19 0 0 0-1.82.338c-1.873.39-3.519.706-4.369.841-.43.069-1.412.25-2.184.405-1.825.365-3.856.752-4.577.872-.704.118-2.565.48-4.16.809-.659.135-1.408.275-1.665.31-.467.062-2.076.373-5.055.977-1.727.35-1.914.37-1.914.209 0-.061-.054-.077-.12-.037s-.172.007-.234-.075c-.063-.081-.489-.4-.947-.707-.457-.307-.902-.626-.988-.708-.085-.083-.554-.42-1.04-.748-.574-.388-.896-.676-.917-.82-.036-.244-.041-.241 1.23-.48.428-.08.908-.178 1.065-.218l.286-.072v2.501l.346.214c.19.118.544.37.786.562.41.324.472.342.928.265 1.298-.22 2.29-.41 2.62-.502l.365-.1-.03-1.857-.03-1.856 1.07-.227a41.793 41.793 0 0 1 2.059-.374c.543-.08 1.503-.242 2.132-.357.63-.115 1.566-.28 2.08-.367a652.556 652.556 0 0 0 7.854-1.369c.772-.142 1.498-.258 1.612-.257.114.001.98-.14 1.924-.313l3.433-.63c1.28-.235 2.022-.335 2.528-.315z" stroke="#000" stroke-width=".104"/></svg>