<?xml version="1.0" standalone="no"?>
<!DOCTYPE svg PUBLIC "-//W3C//DTD SVG 20010904//EN"
 "http://www.w3.org/TR/2001/REC-SVG-20010904/DTD/svg10.dtd">
<svg version="1.0" xmlns="http://www.w3.org/2000/svg"
 width="700.000000pt" height="700.000000pt" viewBox="0 0 700.000000 700.000000"
 preserveAspectRatio="xMidYMid meet">
<metadata>
Created by potrace 1.11, written by Peter Selinger 2001-2013
</metadata>
<g transform="translate(0.000000,700.000000) scale(0.100000,-0.100000)"
fill="#000000" stroke="none">
<path d="M1 4830 c1 -1709 5 -2185 15 -2242 61 -348 337 -604 691 -642 28 -3
58 -3 67 0 14 5 15 205 16 1937 0 1062 3 1933 6 1936 3 3 522 6 1152 6 l1147
0 3 -383 2 -382 -687 -1 c-379 0 -726 0 -773 1 l-85 1 0 -390 c0 -214 3 -392
6 -395 3 -3 349 -7 770 -8 l764 -3 0 -380 0 -380 -660 -2 c-363 -2 -709 -3
-770 -3 l-110 0 1 -1738 c1 -955 2 -1742 3 -1749 1 -9 643 -12 2722 -12 l2720
0 -4 2597 c-2 1428 -6 2606 -9 2617 -3 11 -9 34 -13 50 -38 157 -188 361 -330
452 -120 76 -217 107 -402 127 l-33 3 0 -1946 0 -1947 -382 1 -383 0 -1 768
c-1 423 -5 771 -8 775 -8 7 -768 4 -775 -4 -3 -3 -6 -347 -8 -766 -1 -418 -4
-762 -6 -765 -4 -4 -457 -6 -702 -4 l-51 1 0 1928 c0 1060 3 1929 7 1932 6 4
708 5 745 1 7 -1 11 -234 11 -767 1 -422 5 -770 10 -775 7 -7 301 -12 649 -10
l121 1 -1 1363 -1 1362 -2718 3 -2718 2 2 -2170z"/>
</g>
</svg>
